<svg width="26" height="18" viewBox="0 0 26 18" fill="none" xmlns="http://www.w3.org/2000/svg">
<mask id="mask0_1503_3934" style="mask-type:luminance" maskUnits="userSpaceOnUse" x="0" y="0" width="26" height="18">
<path d="M13.0416 15.9999C19.485 15.9999 24.7082 8.99995 24.7082 8.99995C24.7082 8.99995 19.485 2 13.0416 2C6.59813 2 1.375 8.99995 1.375 8.99995C1.375 8.99995 6.59813 15.9999 13.0416 15.9999Z" fill="white" stroke="white" stroke-width="2.33332" stroke-linejoin="round"/>
<path d="M13.0416 11.9167C13.8152 11.9167 14.557 11.6094 15.104 11.0624C15.651 10.5154 15.9583 9.77356 15.9583 9.00002C15.9583 8.22648 15.651 7.48462 15.104 6.93764C14.557 6.39066 13.8152 6.08337 13.0416 6.08337C12.2681 6.08337 11.5262 6.39066 10.9793 6.93764C10.4323 7.48462 10.125 8.22648 10.125 9.00002C10.125 9.77356 10.4323 10.5154 10.9793 11.0624C11.5262 11.6094 12.2681 11.9167 13.0416 11.9167Z" fill="black" stroke="black" stroke-width="2.33332" stroke-linejoin="round"/>
</mask>
<g mask="url(#mask0_1503_3934)">
<path d="M-0.957031 -4.99976H27.0428V23H-0.957031V-4.99976Z" fill="white"/>
</g>
</svg>
