<svg width="84" height="84" viewBox="0 0 84 84" fill="none" xmlns="http://www.w3.org/2000/svg">
<path d="M81.5736 76.1404L81.5709 76.1377L65.3653 59.9695C71.087 52.9256 73.9453 43.9747 73.3542 34.9044C72.7503 25.6369 68.5918 16.9602 61.746 10.6842C54.9003 4.40813 45.896 1.01722 36.6109 1.21867C27.3259 1.42012 18.477 5.19838 11.91 11.7654C5.34291 18.3325 1.56465 27.1813 1.3632 36.4664C1.16175 45.7514 4.55266 54.7558 10.8287 61.6015C17.1048 68.4472 25.7814 72.6057 35.049 73.2097C44.1192 73.8008 53.0701 70.9425 60.114 65.2207L76.2822 81.4264L76.2822 81.4265L76.2905 81.4345C76.9978 82.1184 77.9432 82.5008 78.9271 82.5008C79.911 82.5008 80.8564 82.1184 81.5637 81.4345L81.5638 81.4346L81.5736 81.4247C82.27 80.7216 82.6606 79.7721 82.6606 78.7826C82.6606 77.793 82.27 76.8435 81.5736 76.1404ZM8.94071 37.3244C8.94081 31.6821 10.614 26.1666 13.7487 21.4752C16.8834 16.7837 21.339 13.1271 26.5519 10.9678C31.7649 8.80853 37.501 8.24357 43.035 9.34435C48.5691 10.4451 53.6524 13.1622 57.6422 17.152C61.632 21.1418 64.3491 26.2252 65.4499 31.7592C66.5507 37.2932 65.9857 43.0294 63.8264 48.2423C61.6672 53.4552 58.0106 57.9108 53.3191 61.0456C48.6275 64.1803 43.1118 65.8535 37.4694 65.8535C29.9062 65.8434 22.6558 62.8344 17.3078 57.4864C11.9597 52.1384 8.95074 44.8877 8.94071 37.3244Z" fill="#756EF2" stroke="#756EF2" stroke-width="1.29057"/>
</svg>
