<svg width="80" height="81" viewBox="0 0 80 81" fill="none" xmlns="http://www.w3.org/2000/svg">
<path d="M48.3281 7.51904H19.9948C18.2267 7.51904 16.531 8.22142 15.2807 9.47166C14.0305 10.7219 13.3281 12.4176 13.3281 14.1857V67.519C13.3281 69.2872 14.0305 70.9828 15.2807 72.2331C16.531 73.4833 18.2267 74.1857 19.9948 74.1857H59.9948C61.7629 74.1857 63.4586 73.4833 64.7088 72.2331C65.9591 70.9828 66.6615 69.2872 66.6615 67.519V25.8524L48.3281 7.51904Z" stroke="#756EF2" stroke-width="6.66667" stroke-linecap="round" stroke-linejoin="round"/>
<path d="M46.6621 7.51904V27.519H66.6621M26.6621 44.1857H33.3288M26.6621 57.519H33.3288M46.6621 44.1857H53.3288M46.6621 57.519H53.3288" stroke="#756EF2" stroke-width="6.66667" stroke-linecap="round" stroke-linejoin="round"/>
</svg>
