<svg width="73" height="74" viewBox="0 0 73 74" fill="none" xmlns="http://www.w3.org/2000/svg">
<path d="M32.85 30.603L29.565 27.4092C28.835 26.7401 27.9675 26.4201 26.9625 26.4493C25.96 26.4809 25.1242 26.8313 24.455 27.5005C23.7858 28.1696 23.4513 29.0213 23.4513 30.0555C23.4513 31.0896 23.7858 31.9413 24.455 32.6105L33.945 42.1005C34.675 42.8305 35.5267 43.1955 36.5 43.1955C37.4733 43.1955 38.325 42.8305 39.055 42.1005L48.6362 32.5192C49.3054 31.8501 49.6254 31.013 49.5962 30.008C49.5646 29.0055 49.2142 28.1696 48.545 27.5005C47.8758 26.8313 47.04 26.4967 46.0374 26.4967C45.0325 26.4967 44.165 26.8313 43.435 27.5005L40.15 30.603V19.0142C40.15 17.9801 39.8008 17.1284 39.1025 16.4592C38.4017 15.7901 37.5342 15.4555 36.5 15.4555C35.4658 15.4555 34.5996 15.8047 33.9012 16.503C33.2004 17.2038 32.85 18.0713 32.85 19.1055V30.603ZM21.9 55.6055H51.1912C52.2254 55.6055 53.0771 55.2551 53.7463 54.5543C54.4154 53.8559 54.75 52.9896 54.75 51.9555C54.75 50.9213 54.3996 50.0538 53.6988 49.353C53.0004 48.6546 52.1342 48.3055 51.1 48.3055H21.8088C20.7746 48.3055 19.9229 48.6546 19.2537 49.353C18.5846 50.0538 18.25 50.9213 18.25 51.9555C18.25 52.9896 18.5992 53.8559 19.2976 54.5543C19.9984 55.2551 20.8658 55.6055 21.9 55.6055ZM36.5 73.8555C31.4508 73.8555 26.7058 72.8967 22.265 70.9793C17.8242 69.0642 13.9613 66.4642 10.6763 63.1792C7.39125 59.8942 4.79123 56.0313 2.8762 51.5905C0.958734 47.1496 0 42.4046 0 37.3555C0 32.3063 0.958734 27.5613 2.8762 23.1205C4.79123 18.6796 7.39125 14.8167 10.6763 11.5317C13.9613 8.24672 17.8242 5.64548 22.265 3.72802C26.7058 1.81299 31.4508 0.855469 36.5 0.855469C41.5492 0.855469 46.2942 1.81299 50.735 3.72802C55.1758 5.64548 59.0388 8.24672 62.3238 11.5317C65.6088 14.8167 68.2088 18.6796 70.1238 23.1205C72.0413 27.5613 73 32.3063 73 37.3555C73 42.4046 72.0413 47.1496 70.1238 51.5905C68.2088 56.0313 65.6088 59.8942 62.3238 63.1792C59.0388 66.4642 55.1758 69.0642 50.735 70.9793C46.2942 72.8967 41.5492 73.8555 36.5 73.8555ZM36.5 66.5555C44.5908 66.5555 51.4808 63.7121 57.1699 58.0254C62.8566 52.3363 65.7 45.4463 65.7 37.3555C65.7 29.2646 62.8566 22.3747 57.1699 16.6855C51.4808 10.9988 44.5908 8.15547 36.5 8.15547C28.4092 8.15547 21.5204 10.9988 15.8337 16.6855C10.1446 22.3747 7.3 29.2646 7.3 37.3555C7.3 45.4463 10.1446 52.3363 15.8337 58.0254C21.5204 63.7121 28.4092 66.5555 36.5 66.5555Z" fill="#756EF2"/>
</svg>
