<svg width="206" height="44" viewBox="0 0 206 44" fill="none" xmlns="http://www.w3.org/2000/svg">
<path d="M77.234 19C77.0615 19 76.9205 18.9451 76.8107 18.8354C76.701 18.7256 76.6461 18.5846 76.6461 18.4121V3.12689C76.6461 2.95444 76.701 2.81334 76.8107 2.7036C76.9205 2.59386 77.0615 2.53899 77.234 2.53899H88.2158C88.3883 2.53899 88.5294 2.59386 88.6391 2.7036C88.7489 2.81334 88.8037 2.95444 88.8037 3.12689V5.33736C88.8037 5.50981 88.7489 5.65091 88.6391 5.76065C88.5294 5.87039 88.3883 5.92526 88.2158 5.92526H80.7143V9.09988H87.6985C87.8709 9.09988 88.012 9.16259 88.1218 9.28801C88.2315 9.39775 88.2864 9.53884 88.2864 9.71129V11.7572C88.2864 11.9139 88.2315 12.055 88.1218 12.1804C88.012 12.2902 87.8709 12.3451 87.6985 12.3451H80.7143V15.6137H88.404C88.5764 15.6137 88.7175 15.6686 88.8272 15.7783C88.937 15.8881 88.9919 16.0292 88.9919 16.2016V18.4121C88.9919 18.5846 88.937 18.7256 88.8272 18.8354C88.7175 18.9451 88.5764 19 88.404 19H77.234ZM96.9576 19.2352C95.7975 19.2352 94.7707 19.0235 93.8771 18.6002C92.9835 18.1769 92.2702 17.5655 91.7371 16.766C91.2198 15.9508 90.9376 14.9788 90.8906 13.8501C90.8749 13.5992 90.8671 13.2857 90.8671 12.9094C90.8671 12.5175 90.8749 12.1961 90.8906 11.9453C90.9376 10.8009 91.2198 9.82887 91.7371 9.02933C92.2545 8.21412 92.9599 7.59487 93.8535 7.17159C94.7628 6.74831 95.7975 6.53667 96.9576 6.53667C98.0393 6.53667 98.9643 6.69344 99.7325 7.00698C100.501 7.30485 101.128 7.6811 101.614 8.13574C102.1 8.59037 102.46 9.06069 102.695 9.54668C102.946 10.017 103.08 10.4324 103.095 10.793C103.111 10.9498 103.056 11.0909 102.931 11.2163C102.805 11.326 102.664 11.3809 102.507 11.3809H99.5208C99.3484 11.3809 99.2151 11.3417 99.1211 11.2633C99.027 11.1849 98.9408 11.0674 98.8624 10.9106C98.6743 10.4246 98.4313 10.0797 98.1334 9.8759C97.8512 9.6721 97.4828 9.57019 97.0282 9.57019C96.4011 9.57019 95.9151 9.774 95.5702 10.1816C95.241 10.5892 95.0607 11.2163 95.0293 12.0629C95.0137 12.6899 95.0137 13.2465 95.0293 13.7325C95.0607 14.5947 95.241 15.2218 95.5702 15.6137C95.9151 16.0057 96.4011 16.2016 97.0282 16.2016C97.5142 16.2016 97.8983 16.0997 98.1804 15.8959C98.4626 15.6921 98.6899 15.3472 98.8624 14.8612C98.9408 14.7045 99.027 14.5869 99.1211 14.5085C99.2151 14.4301 99.3484 14.3909 99.5208 14.3909H102.507C102.664 14.3909 102.805 14.4536 102.931 14.579C103.056 14.6888 103.111 14.822 103.095 14.9788C103.08 15.2453 103.001 15.5589 102.86 15.9194C102.719 16.2643 102.499 16.6328 102.202 17.0247C101.904 17.4166 101.512 17.785 101.026 18.1299C100.556 18.4591 99.9833 18.7256 99.3092 18.9295C98.6351 19.1333 97.8512 19.2352 96.9576 19.2352ZM110.993 19.2352C109.676 19.2352 108.563 19.0235 107.654 18.6002C106.76 18.1769 106.07 17.5734 105.584 16.7895C105.114 15.99 104.847 15.0415 104.785 13.9441C104.769 13.6306 104.761 13.2778 104.761 12.8859C104.761 12.4783 104.769 12.1256 104.785 11.8277C104.847 10.7146 105.13 9.76616 105.631 8.9823C106.133 8.19844 106.831 7.59487 107.724 7.17159C108.633 6.74831 109.723 6.53667 110.993 6.53667C112.278 6.53667 113.368 6.74831 114.262 7.17159C115.171 7.59487 115.876 8.19844 116.378 8.9823C116.88 9.76616 117.162 10.7146 117.225 11.8277C117.24 12.1256 117.248 12.4783 117.248 12.8859C117.248 13.2778 117.24 13.6306 117.225 13.9441C117.162 15.0415 116.887 15.99 116.401 16.7895C115.931 17.5734 115.241 18.1769 114.332 18.6002C113.438 19.0235 112.325 19.2352 110.993 19.2352ZM110.993 16.3662C111.698 16.3662 112.208 16.1546 112.521 15.7313C112.851 15.308 113.039 14.6731 113.086 13.8265C113.101 13.5914 113.109 13.2778 113.109 12.8859C113.109 12.494 113.101 12.1804 113.086 11.9453C113.039 11.1144 112.851 10.4873 112.521 10.064C112.208 9.62506 111.698 9.40558 110.993 9.40558C110.303 9.40558 109.794 9.62506 109.464 10.064C109.135 10.4873 108.955 11.1144 108.923 11.9453C108.908 12.1804 108.9 12.494 108.9 12.8859C108.9 13.2778 108.908 13.5914 108.923 13.8265C108.955 14.6731 109.135 15.308 109.464 15.7313C109.794 16.1546 110.303 16.3662 110.993 16.3662ZM120.149 19C119.976 19 119.835 18.9451 119.725 18.8354C119.616 18.7256 119.561 18.5846 119.561 18.4121V7.35972C119.561 7.18727 119.616 7.04617 119.725 6.93643C119.835 6.82669 119.976 6.77182 120.149 6.77182H122.853C123.025 6.77182 123.167 6.82669 123.276 6.93643C123.386 7.04617 123.441 7.18727 123.441 7.35972V8.25331C123.849 7.76732 124.382 7.35972 125.04 7.0305C125.698 6.70128 126.474 6.53667 127.368 6.53667C128.277 6.53667 129.077 6.74047 129.767 7.14808C130.472 7.55568 131.021 8.15925 131.413 8.95879C131.82 9.74264 132.024 10.7068 132.024 11.8512V18.4121C132.024 18.5846 131.961 18.7256 131.836 18.8354C131.726 18.9451 131.593 19 131.436 19H128.473C128.317 19 128.175 18.9451 128.05 18.8354C127.94 18.7256 127.885 18.5846 127.885 18.4121V11.9923C127.885 11.2555 127.705 10.6911 127.345 10.2992C127 9.89158 126.482 9.68777 125.792 9.68777C125.15 9.68777 124.632 9.89158 124.24 10.2992C123.864 10.6911 123.676 11.2555 123.676 11.9923V18.4121C123.676 18.5846 123.613 18.7256 123.488 18.8354C123.378 18.9451 123.245 19 123.088 19H120.149ZM140.433 19.2352C139.117 19.2352 138.003 19.0235 137.094 18.6002C136.201 18.1769 135.511 17.5734 135.025 16.7895C134.554 15.99 134.288 15.0415 134.225 13.9441C134.21 13.6306 134.202 13.2778 134.202 12.8859C134.202 12.4783 134.21 12.1256 134.225 11.8277C134.288 10.7146 134.57 9.76616 135.072 8.9823C135.573 8.19844 136.271 7.59487 137.165 7.17159C138.074 6.74831 139.164 6.53667 140.433 6.53667C141.719 6.53667 142.809 6.74831 143.702 7.17159C144.611 7.59487 145.317 8.19844 145.819 8.9823C146.32 9.76616 146.602 10.7146 146.665 11.8277C146.681 12.1256 146.689 12.4783 146.689 12.8859C146.689 13.2778 146.681 13.6306 146.665 13.9441C146.602 15.0415 146.328 15.99 145.842 16.7895C145.372 17.5734 144.682 18.1769 143.773 18.6002C142.879 19.0235 141.766 19.2352 140.433 19.2352ZM140.433 16.3662C141.139 16.3662 141.648 16.1546 141.962 15.7313C142.291 15.308 142.479 14.6731 142.526 13.8265C142.542 13.5914 142.55 13.2778 142.55 12.8859C142.55 12.494 142.542 12.1804 142.526 11.9453C142.479 11.1144 142.291 10.4873 141.962 10.064C141.648 9.62506 141.139 9.40558 140.433 9.40558C139.744 9.40558 139.234 9.62506 138.905 10.064C138.576 10.4873 138.395 11.1144 138.364 11.9453C138.348 12.1804 138.341 12.494 138.341 12.8859C138.341 13.2778 138.348 13.5914 138.364 13.8265C138.395 14.6731 138.576 15.308 138.905 15.7313C139.234 16.1546 139.744 16.3662 140.433 16.3662ZM149.589 19C149.417 19 149.276 18.9451 149.166 18.8354C149.056 18.7256 149.001 18.5846 149.001 18.4121V7.35972C149.001 7.18727 149.056 7.04617 149.166 6.93643C149.276 6.82669 149.417 6.77182 149.589 6.77182H152.153C152.325 6.77182 152.466 6.82669 152.576 6.93643C152.686 7.04617 152.74 7.18727 152.74 7.35972V8.15925C153.054 7.73597 153.493 7.36756 154.057 7.05401C154.622 6.72479 155.288 6.55234 156.056 6.53667C157.859 6.50531 159.097 7.18727 159.772 8.58253C160.132 7.9868 160.65 7.50081 161.324 7.12456C161.998 6.73263 162.735 6.53667 163.534 6.53667C164.349 6.53667 165.078 6.72479 165.721 7.10104C166.38 7.46162 166.905 8.026 167.297 8.79418C167.689 9.54668 167.885 10.5265 167.885 11.7336V18.4121C167.885 18.5846 167.822 18.7256 167.696 18.8354C167.587 18.9451 167.453 19 167.297 19H164.569C164.396 19 164.247 18.9451 164.122 18.8354C164.012 18.7256 163.957 18.5846 163.957 18.4121V11.8983C163.957 11.3496 163.879 10.9184 163.722 10.6049C163.565 10.2757 163.354 10.0405 163.087 9.89941C162.821 9.75832 162.515 9.68777 162.17 9.68777C161.888 9.68777 161.606 9.75832 161.324 9.89941C161.057 10.0405 160.838 10.2757 160.665 10.6049C160.508 10.9184 160.43 11.3496 160.43 11.8983V18.4121C160.43 18.5846 160.375 18.7256 160.265 18.8354C160.156 18.9451 160.015 19 159.842 19H157.114C156.942 19 156.801 18.9451 156.691 18.8354C156.581 18.7256 156.526 18.5846 156.526 18.4121V11.8983C156.526 11.3496 156.44 10.9184 156.268 10.6049C156.095 10.2757 155.876 10.0405 155.609 9.89941C155.343 9.75832 155.045 9.68777 154.716 9.68777C154.434 9.68777 154.151 9.75832 153.869 9.89941C153.603 10.0405 153.383 10.2757 153.211 10.6049C153.054 10.9184 152.976 11.3417 152.976 11.8747V18.4121C152.976 18.5846 152.913 18.7256 152.787 18.8354C152.678 18.9451 152.537 19 152.364 19H149.589ZM171.107 19C170.935 19 170.794 18.9451 170.684 18.8354C170.574 18.7256 170.519 18.5846 170.519 18.4121V7.35972C170.519 7.18727 170.574 7.04617 170.684 6.93643C170.794 6.82669 170.935 6.77182 171.107 6.77182H173.882C174.039 6.77182 174.172 6.82669 174.282 6.93643C174.407 7.04617 174.47 7.18727 174.47 7.35972V18.4121C174.47 18.5846 174.407 18.7256 174.282 18.8354C174.172 18.9451 174.039 19 173.882 19H171.107ZM171.131 5.00814C170.88 5.00814 170.754 4.88273 170.754 4.63189C170.754 4.50648 170.794 4.40457 170.872 4.32619L172.941 1.81001C173.098 1.62188 173.231 1.5043 173.341 1.45727C173.451 1.39456 173.608 1.36321 173.811 1.36321H176.892C177.19 1.36321 177.339 1.51998 177.339 1.83352C177.339 1.94326 177.3 2.03732 177.221 2.11571L174.117 4.67892C173.992 4.78866 173.866 4.87489 173.741 4.9376C173.615 4.98463 173.443 5.00814 173.224 5.00814H171.131ZM180.893 19.2352C180.047 19.2352 179.286 19.0784 178.612 18.7648C177.954 18.4356 177.429 17.9967 177.037 17.448C176.645 16.8993 176.449 16.28 176.449 15.5902C176.449 14.4771 176.903 13.5992 177.813 12.9565C178.722 12.298 179.929 11.8512 181.434 11.6161L184.374 11.1693V10.84C184.374 10.2757 184.256 9.84455 184.021 9.54668C183.786 9.24881 183.355 9.09988 182.728 9.09988C182.289 9.09988 181.928 9.1861 181.646 9.35855C181.379 9.531 181.168 9.76616 181.011 10.064C180.87 10.2678 180.674 10.3697 180.423 10.3697H177.789C177.617 10.3697 177.484 10.3227 177.389 10.2286C177.295 10.1189 177.256 9.99348 177.272 9.85238C177.272 9.5702 177.374 9.24881 177.578 8.88824C177.797 8.51199 178.126 8.14357 178.565 7.783C179.004 7.42243 179.569 7.12456 180.258 6.8894C180.948 6.65424 181.779 6.53667 182.751 6.53667C183.77 6.53667 184.64 6.65424 185.361 6.8894C186.082 7.12456 186.663 7.45378 187.101 7.87706C187.556 8.30035 187.893 8.80201 188.113 9.38207C188.332 9.94645 188.442 10.5735 188.442 11.2633V18.4121C188.442 18.5846 188.379 18.7256 188.254 18.8354C188.144 18.9451 188.011 19 187.854 19H185.126C184.954 19 184.813 18.9451 184.703 18.8354C184.593 18.7256 184.538 18.5846 184.538 18.4121V17.5891C184.334 17.8869 184.06 18.1613 183.715 18.4121C183.37 18.6629 182.963 18.8589 182.492 19C182.038 19.1568 181.505 19.2352 180.893 19.2352ZM181.999 16.5544C182.453 16.5544 182.861 16.4603 183.221 16.2722C183.598 16.0684 183.888 15.7627 184.091 15.3551C184.311 14.9318 184.421 14.4066 184.421 13.7795V13.4503L182.422 13.803C181.685 13.9284 181.144 14.1244 180.799 14.3909C180.47 14.6418 180.305 14.9396 180.305 15.2845C180.305 15.551 180.384 15.7783 180.541 15.9665C180.697 16.1546 180.901 16.3035 181.152 16.4133C181.403 16.5073 181.685 16.5544 181.999 16.5544ZM83.3951 41.2352C81.9058 41.2352 80.6281 40.9922 79.5621 40.5062C78.5117 40.0202 77.6886 39.3069 77.0929 38.3662C76.5128 37.4256 76.1915 36.2577 76.1288 34.8624C76.1131 34.2196 76.1052 33.5298 76.1052 32.793C76.1052 32.0562 76.1131 31.3507 76.1288 30.6766C76.1915 29.3127 76.5207 28.1604 77.1164 27.2198C77.7121 26.2635 78.543 25.5423 79.6091 25.0563C80.6751 24.5547 81.9371 24.3038 83.3951 24.3038C84.4298 24.3038 85.3861 24.4371 86.264 24.7036C87.142 24.9544 87.9101 25.3307 88.5686 25.8324C89.227 26.3184 89.7365 26.9141 90.0971 27.6196C90.4733 28.3093 90.6693 29.0932 90.685 29.9711C90.7007 30.1122 90.6536 30.2298 90.5439 30.3239C90.4498 30.4179 90.3323 30.465 90.1912 30.465H87.0165C86.8127 30.465 86.656 30.4258 86.5462 30.3474C86.4365 30.2533 86.3424 30.0887 86.264 29.8535C86.0446 29.0227 85.684 28.4583 85.1823 28.1604C84.6963 27.8469 84.0927 27.6901 83.3716 27.6901C82.5094 27.6901 81.8274 27.9331 81.3257 28.4191C80.8241 28.8894 80.5497 29.6811 80.5027 30.7942C80.4556 32.0797 80.4556 33.3966 80.5027 34.7448C80.5497 35.8579 80.8241 36.6574 81.3257 37.1434C81.8274 37.6137 82.5094 37.8489 83.3716 37.8489C84.0927 37.8489 84.7042 37.6921 85.2058 37.3786C85.7075 37.065 86.0602 36.5007 86.264 35.6854C86.3267 35.4503 86.413 35.2935 86.5227 35.2151C86.6481 35.1211 86.8127 35.074 87.0165 35.074H90.1912C90.3323 35.074 90.4498 35.1211 90.5439 35.2151C90.6536 35.3092 90.7007 35.4268 90.685 35.5679C90.6693 36.4458 90.4733 37.2375 90.0971 37.943C89.7365 38.6328 89.227 39.2285 88.5686 39.7302C87.9101 40.2161 87.142 40.5924 86.264 40.8589C85.3861 41.1097 84.4298 41.2352 83.3951 41.2352ZM93.4868 41C93.3144 41 93.1733 40.9451 93.0636 40.8354C92.9538 40.7256 92.899 40.5846 92.899 40.4121V29.3597C92.899 29.1873 92.9538 29.0462 93.0636 28.9364C93.1733 28.8267 93.3144 28.7718 93.4868 28.7718H96.2617C96.4185 28.7718 96.5517 28.8267 96.6615 28.9364C96.7869 29.0462 96.8496 29.1873 96.8496 29.3597V40.4121C96.8496 40.5846 96.7869 40.7256 96.6615 40.8354C96.5517 40.9451 96.4185 41 96.2617 41H93.4868ZM93.4633 27.0081C93.2909 27.0081 93.1498 26.9533 93.0401 26.8435C92.9303 26.7338 92.8754 26.5927 92.8754 26.4203V24.3274C92.8754 24.1549 92.9303 24.0138 93.0401 23.9041C93.1498 23.7787 93.2909 23.7159 93.4633 23.7159H96.2617C96.4342 23.7159 96.5752 23.7787 96.685 23.9041C96.8104 24.0138 96.8731 24.1549 96.8731 24.3274V26.4203C96.8731 26.5927 96.8104 26.7338 96.685 26.8435C96.5752 26.9533 96.4342 27.0081 96.2617 27.0081H93.4633ZM100.927 41C100.755 41 100.614 40.9451 100.504 40.8354C100.394 40.7256 100.339 40.5846 100.339 40.4121V29.3597C100.339 29.2029 100.394 29.0697 100.504 28.9599C100.614 28.8345 100.755 28.7718 100.927 28.7718H103.632C103.804 28.7718 103.945 28.8345 104.055 28.9599C104.165 29.0697 104.22 29.2029 104.22 29.3597V30.3003C104.643 29.8144 105.145 29.4381 105.725 29.1716C106.32 28.9051 106.987 28.7718 107.723 28.7718H108.758C108.915 28.7718 109.048 28.8267 109.158 28.9364C109.283 29.0462 109.346 29.1873 109.346 29.3597V31.7818C109.346 31.9386 109.283 32.0797 109.158 32.2051C109.048 32.3149 108.915 32.3697 108.758 32.3697H106.477C105.834 32.3697 105.333 32.55 104.972 32.9106C104.627 33.2555 104.455 33.7493 104.455 34.3921V40.4121C104.455 40.5846 104.392 40.7256 104.267 40.8354C104.157 40.9451 104.016 41 103.843 41H100.927ZM116.546 41.2352C115.386 41.2352 114.359 41.0235 113.466 40.6002C112.572 40.1769 111.859 39.5655 111.326 38.766C110.809 37.9508 110.526 36.9788 110.479 35.8501C110.464 35.5992 110.456 35.2857 110.456 34.9094C110.456 34.5175 110.464 34.1961 110.479 33.9453C110.526 32.8009 110.809 31.8289 111.326 31.0293C111.843 30.2141 112.549 29.5949 113.442 29.1716C114.352 28.7483 115.386 28.5367 116.546 28.5367C117.628 28.5367 118.553 28.6934 119.321 29.007C120.089 29.3048 120.717 29.6811 121.203 30.1357C121.689 30.5904 122.049 31.0607 122.284 31.5467C122.535 32.017 122.668 32.4324 122.684 32.793C122.7 32.9498 122.645 33.0909 122.519 33.2163C122.394 33.326 122.253 33.3809 122.096 33.3809H119.11C118.937 33.3809 118.804 33.3417 118.71 33.2633C118.616 33.1849 118.53 33.0674 118.451 32.9106C118.263 32.4246 118.02 32.0797 117.722 31.8759C117.44 31.6721 117.072 31.5702 116.617 31.5702C115.99 31.5702 115.504 31.774 115.159 32.1816C114.83 32.5892 114.649 33.2163 114.618 34.0629C114.602 34.6899 114.602 35.2465 114.618 35.7325C114.649 36.5947 114.83 37.2218 115.159 37.6137C115.504 38.0057 115.99 38.2016 116.617 38.2016C117.103 38.2016 117.487 38.0997 117.769 37.8959C118.051 37.6921 118.279 37.3472 118.451 36.8612C118.53 36.7045 118.616 36.5869 118.71 36.5085C118.804 36.4301 118.937 36.3909 119.11 36.3909H122.096C122.253 36.3909 122.394 36.4536 122.519 36.579C122.645 36.6888 122.7 36.822 122.684 36.9788C122.668 37.2453 122.59 37.5589 122.449 37.9194C122.308 38.2643 122.088 38.6328 121.79 39.0247C121.493 39.4166 121.101 39.785 120.615 40.1299C120.144 40.4591 119.572 40.7256 118.898 40.9295C118.224 41.1333 117.44 41.2352 116.546 41.2352ZM129.288 41.2352C128.395 41.2352 127.595 41.0314 126.89 40.6237C126.2 40.2161 125.659 39.6204 125.267 38.8366C124.875 38.037 124.679 37.065 124.679 35.9206V29.3597C124.679 29.1873 124.734 29.0462 124.844 28.9364C124.954 28.8267 125.095 28.7718 125.267 28.7718H128.207C128.379 28.7718 128.52 28.8267 128.63 28.9364C128.74 29.0462 128.794 29.1873 128.794 29.3597V35.7795C128.794 37.3159 129.484 38.0841 130.864 38.0841C131.507 38.0841 132.016 37.8881 132.392 37.4962C132.784 37.0886 132.98 36.5163 132.98 35.7795V29.3597C132.98 29.1873 133.035 29.0462 133.145 28.9364C133.255 28.8267 133.396 28.7718 133.568 28.7718H136.508C136.68 28.7718 136.821 28.8267 136.931 28.9364C137.041 29.0462 137.095 29.1873 137.095 29.3597V40.4121C137.095 40.5846 137.041 40.7256 136.931 40.8354C136.821 40.9451 136.68 41 136.508 41H133.78C133.623 41 133.482 40.9451 133.356 40.8354C133.247 40.7256 133.192 40.5846 133.192 40.4121V39.5185C132.784 40.0829 132.251 40.514 131.593 40.8119C130.95 41.0941 130.182 41.2352 129.288 41.2352ZM140.449 41C140.277 41 140.136 40.9451 140.026 40.8354C139.916 40.7256 139.862 40.5846 139.862 40.4121V24.8917C139.862 24.7193 139.916 24.5782 140.026 24.4684C140.136 24.3587 140.277 24.3038 140.449 24.3038H143.224C143.397 24.3038 143.538 24.3587 143.648 24.4684C143.757 24.5782 143.812 24.7193 143.812 24.8917V40.4121C143.812 40.5846 143.757 40.7256 143.648 40.8354C143.538 40.9451 143.397 41 143.224 41H140.449ZM150.259 41.2352C149.412 41.2352 148.652 41.0784 147.978 40.7648C147.319 40.4356 146.794 39.9967 146.402 39.448C146.01 38.8993 145.814 38.28 145.814 37.5902C145.814 36.4771 146.269 35.5992 147.178 34.9565C148.087 34.298 149.294 33.8512 150.799 33.6161L153.739 33.1693V32.84C153.739 32.2757 153.621 31.8445 153.386 31.5467C153.151 31.2488 152.72 31.0999 152.093 31.0999C151.654 31.0999 151.293 31.1861 151.011 31.3586C150.745 31.531 150.533 31.7662 150.376 32.064C150.235 32.2678 150.039 32.3697 149.788 32.3697H147.155C146.982 32.3697 146.849 32.3227 146.755 32.2286C146.661 32.1189 146.621 31.9935 146.637 31.8524C146.637 31.5702 146.739 31.2488 146.943 30.8882C147.162 30.512 147.492 30.1436 147.931 29.783C148.369 29.4224 148.934 29.1246 149.624 28.8894C150.313 28.6542 151.144 28.5367 152.116 28.5367C153.135 28.5367 154.005 28.6542 154.727 28.8894C155.448 29.1246 156.028 29.4538 156.467 29.8771C156.921 30.3003 157.258 30.802 157.478 31.3821C157.697 31.9464 157.807 32.5735 157.807 33.2633V40.4121C157.807 40.5846 157.744 40.7256 157.619 40.8354C157.509 40.9451 157.376 41 157.219 41H154.491C154.319 41 154.178 40.9451 154.068 40.8354C153.958 40.7256 153.904 40.5846 153.904 40.4121V39.5891C153.7 39.8869 153.425 40.1613 153.08 40.4121C152.736 40.6629 152.328 40.8589 151.858 41C151.403 41.1568 150.87 41.2352 150.259 41.2352ZM151.364 38.5544C151.818 38.5544 152.226 38.4603 152.587 38.2722C152.963 38.0684 153.253 37.7627 153.457 37.3551C153.676 36.9318 153.786 36.4066 153.786 35.7795V35.4503L151.787 35.803C151.05 35.9284 150.509 36.1244 150.165 36.3909C149.835 36.6418 149.671 36.9396 149.671 37.2845C149.671 37.551 149.749 37.7783 149.906 37.9665C150.063 38.1546 150.266 38.3035 150.517 38.4133C150.768 38.5073 151.05 38.5544 151.364 38.5544ZM161.049 41C160.876 41 160.735 40.9451 160.625 40.8354C160.516 40.7256 160.461 40.5846 160.461 40.4121V29.3597C160.461 29.2029 160.516 29.0697 160.625 28.9599C160.735 28.8345 160.876 28.7718 161.049 28.7718H163.753C163.925 28.7718 164.066 28.8345 164.176 28.9599C164.286 29.0697 164.341 29.2029 164.341 29.3597V30.3003C164.764 29.8144 165.266 29.4381 165.846 29.1716C166.442 28.9051 167.108 28.7718 167.845 28.7718H168.879C169.036 28.7718 169.169 28.8267 169.279 28.9364C169.405 29.0462 169.467 29.1873 169.467 29.3597V31.7818C169.467 31.9386 169.405 32.0797 169.279 32.2051C169.169 32.3149 169.036 32.3697 168.879 32.3697H166.598C165.956 32.3697 165.454 32.55 165.093 32.9106C164.748 33.2555 164.576 33.7493 164.576 34.3921V40.4121C164.576 40.5846 164.513 40.7256 164.388 40.8354C164.278 40.9451 164.137 41 163.965 41H161.049Z" fill="white"/>
<path d="M36.1415 41.8665C36.0903 41.849 36.0573 41.8377 36.0243 41.8265C35.354 41.5862 34.7034 41.3003 34.0521 41.013C33.8002 40.9013 33.9139 40.765 33.9819 40.6245C34.535 39.4794 35.0922 38.3357 35.646 37.1913C36.3527 35.7308 37.0623 34.2724 37.7585 32.807C37.8792 32.5534 37.9845 32.4375 38.2702 32.6047C38.4997 32.7389 38.7551 32.8379 39.0099 32.9152C39.238 32.9847 39.2583 33.0789 39.1832 33.2938C38.4351 35.4302 37.6996 37.5707 36.9591 39.7098C36.7338 40.3604 36.5071 41.0102 36.2797 41.66C36.251 41.7415 36.2397 41.8419 36.1415 41.8665Z" fill="white"/>
<path d="M31.6378 39.6618C31.5823 39.6266 31.5234 39.5894 31.4651 39.5522C30.905 39.1911 30.3752 38.7899 29.8432 38.3895C29.6628 38.2539 29.6782 38.1591 29.8067 37.9989C31.6483 35.7038 33.4864 33.4059 35.3175 31.1031C35.4494 30.9373 35.5259 30.9598 35.6712 31.0729C35.9288 31.2731 36.1962 31.4635 36.4769 31.6293C36.6727 31.7445 36.6545 31.8372 36.5471 32.0072C34.9694 34.4899 33.3987 36.9768 31.8237 39.4608C31.7767 39.5339 31.7564 39.6386 31.6378 39.6618Z" fill="white"/>
<path d="M40.8802 42.917C40.1875 42.851 39.5341 42.7323 38.8786 42.622C38.6463 42.5826 38.6463 42.4478 38.6856 42.2665C39.1334 40.2159 39.5783 38.1646 40.0247 36.1133C40.198 35.3159 40.3861 34.5207 40.5405 33.7198C40.5904 33.4606 40.6872 33.3882 40.9364 33.4409C41.2206 33.5013 41.5098 33.5428 41.7989 33.5744C41.9765 33.5941 42.0326 33.6566 42.0151 33.8435C41.7575 36.5622 41.507 39.2809 41.2543 42.0003C41.2346 42.2096 41.1974 42.4183 41.1946 42.6269C41.1932 42.8735 41.095 42.9739 40.8802 42.917Z" fill="white"/>
<path d="M43.4524 38.3219C43.4524 36.8621 43.4594 35.4023 43.4454 33.9432C43.4433 33.71 43.4973 33.6418 43.7282 33.6488C44.0068 33.6573 44.2946 33.6538 44.5648 33.5947C44.875 33.5266 44.9382 33.6608 44.9719 33.9214C45.1291 35.1487 45.3003 36.3746 45.4652 37.6011C45.6877 39.2555 45.9053 40.9107 46.1355 42.5644C46.1615 42.7512 46.1566 42.8292 45.939 42.8594C45.2561 42.9549 44.5676 42.976 43.8826 43.0442C43.6503 43.0673 43.6496 42.9402 43.6496 42.7702C43.6531 41.2872 43.6517 39.8042 43.6517 38.3212C43.585 38.3219 43.5191 38.3219 43.4524 38.3219Z" fill="white"/>
<path d="M47.737 32.9102C47.8318 32.9495 47.8388 33.0724 47.8753 33.1729C48.5926 35.1209 49.3091 37.069 50.0264 39.0171C50.3043 39.7722 50.5689 40.5324 50.8665 41.2791C50.9746 41.551 50.8988 41.6444 50.6468 41.7182C50.0657 41.8896 49.4867 42.0716 48.9133 42.269C48.648 42.3603 48.5617 42.276 48.4985 42.0189C47.8697 39.4589 47.2296 36.9018 46.5923 34.344C46.5222 34.0609 46.4478 33.7792 46.3839 33.4946C46.3692 33.4293 46.2913 33.3317 46.4232 33.2923C46.8478 33.1666 47.2731 33.0443 47.737 32.9102Z" fill="white"/>
<path d="M26.1855 34.7138C26.267 34.6387 26.34 34.5642 26.4207 34.4989C28.4855 32.8178 30.551 31.1367 32.6172 29.457C32.8516 29.2666 33.1007 28.9301 33.3274 28.9427C33.5499 28.9554 33.7527 29.3263 33.9633 29.5413C34.0124 29.5911 34.0524 29.6523 34.1086 29.693C34.3591 29.8736 34.3423 30.0126 34.117 30.236C32.335 32.0071 30.5671 33.7928 28.7971 35.5758C28.5255 35.8491 28.2616 36.1301 27.9963 36.409C27.898 36.5122 27.8117 36.5804 27.6805 36.4413C27.1913 35.9228 26.7084 35.4002 26.2691 34.8382C26.241 34.8023 26.2185 34.7637 26.1855 34.7138Z" fill="white"/>
<path d="M55.3287 39.3089C55.3379 39.4234 55.2382 39.441 55.1778 39.481C54.6009 39.8597 53.9932 40.1849 53.3903 40.52C53.1481 40.6549 53.1369 40.4498 53.0794 40.3353C52.4491 39.0686 51.8252 37.7999 51.1999 36.5312C50.5591 35.2308 49.9225 33.9284 49.274 32.6323C49.168 32.4208 49.1393 32.2993 49.4032 32.1904C49.693 32.071 49.9688 31.9094 50.2313 31.7359C50.4236 31.6094 50.5036 31.6684 50.6117 31.8398C52.1473 34.2719 53.6886 36.6998 55.2284 39.1298C55.2649 39.1881 55.2965 39.2506 55.3287 39.3089Z" fill="white"/>
<path d="M32.4214 27.6438C32.4066 27.7562 32.3182 27.7801 32.2536 27.8222C29.8288 29.4071 27.4012 30.9877 24.9798 32.5782C24.7812 32.7089 24.6921 32.6688 24.5889 32.4805C24.2857 31.9277 23.9811 31.3755 23.6562 30.8353C23.5109 30.5943 23.5958 30.5107 23.8134 30.4004C26.1343 29.2237 28.4504 28.0358 30.7679 26.8535C31.0577 26.7052 31.3791 26.4186 31.6381 26.465C31.9076 26.5127 31.9806 26.975 32.1666 27.2391C32.2599 27.3726 32.3407 27.5145 32.4214 27.6438Z" fill="white"/>
<path d="M59.1417 36.2601C59.0988 36.3071 59.049 36.3718 58.9901 36.4252C58.5086 36.8671 58.0201 37.3019 57.545 37.7508C57.3702 37.9159 57.279 37.8428 57.1583 37.6904C56.2459 36.5362 55.3272 35.3869 54.4113 34.2362C53.5537 33.1578 52.7009 32.0752 51.8356 31.0032C51.7064 30.843 51.6741 30.7665 51.8664 30.6302C52.1317 30.4419 52.3718 30.2157 52.6111 29.9937C52.7557 29.8602 52.8539 29.8364 53.0111 29.9958C55.0128 32.0254 57.0214 34.0465 59.028 36.0711C59.075 36.1189 59.1431 36.1554 59.1417 36.2601Z" fill="white"/>
<path d="M31.0134 25.0032C31.0212 25.1437 30.8682 25.1304 30.7734 25.1669C29.5003 25.6573 28.2258 26.1434 26.9512 26.6302C25.5897 27.1501 24.2246 27.6608 22.8694 28.1975C22.5977 28.305 22.517 28.2362 22.4469 27.9875C22.2981 27.4599 22.1423 26.9337 21.9591 26.4174C21.8791 26.1919 21.9689 26.1392 22.15 26.0816C23.8491 25.5392 25.5469 24.992 27.2439 24.4447C28.2314 24.1265 29.2195 23.809 30.2042 23.4823C30.3909 23.4205 30.4871 23.417 30.5523 23.646C30.6808 24.0935 30.8499 24.5297 31.0134 25.0032Z" fill="white"/>
<path d="M20.9535 23.076C20.9135 22.894 21.0756 22.8912 21.1634 22.8484C22.7663 22.0658 24.3721 21.2902 25.9772 20.5125C26.8587 20.0854 27.7437 19.666 28.6175 19.2248C28.8161 19.1244 28.9032 19.1518 28.9769 19.3492C29.2232 20.0039 29.4682 20.6601 29.7306 21.3085C29.8247 21.5417 29.6738 21.5621 29.5292 21.6098C27.5472 22.2681 25.5653 22.927 23.5833 23.5853C22.9088 23.8094 22.2308 24.0237 21.5606 24.2583C21.383 24.3208 21.3114 24.2934 21.263 24.1108C21.1704 23.7609 21.0574 23.4174 20.9535 23.076Z" fill="white"/>
<path d="M62.177 32.3319C62.1328 32.4042 62.0935 32.4759 62.0479 32.5433C61.6857 33.0737 61.3131 33.5978 60.9628 34.1359C60.833 34.3354 60.7446 34.3249 60.5712 34.1851C58.4854 32.5075 56.3932 30.8376 54.3045 29.1649C53.8084 28.768 53.8034 28.7596 54.1986 28.2735C54.3782 28.0522 54.5004 27.6728 54.753 27.6532C54.979 27.6356 55.2289 27.9089 55.4661 28.0578C57.6242 29.4059 59.7824 30.7547 61.9391 32.1063C62.0296 32.1632 62.1651 32.185 62.177 32.3319Z" fill="white"/>
<path d="M56.1899 25.0096C56.2194 25.0202 56.2734 25.0405 56.3289 25.0595C58.847 25.9152 61.3638 26.7757 63.8855 27.6208C64.1732 27.7171 64.2434 27.8281 64.1248 28.1119C63.882 28.6929 63.6623 29.2844 63.4454 29.8752C63.3788 30.0571 63.3009 30.0663 63.1373 29.9883C60.65 28.8053 58.1613 27.6265 55.6698 26.4526C55.5007 26.3725 55.4403 26.3135 55.5414 26.1238C55.7056 25.8154 55.8376 25.4894 55.9793 25.1691C56.0158 25.0841 56.0313 24.9815 56.1899 25.0096Z" fill="white"/>
<path d="M27.2182 16.6252C27.2182 16.7397 27.1311 16.772 27.0715 16.8197C24.9225 18.5311 22.7714 20.2403 20.6244 21.9551C20.4616 22.085 20.3669 22.0703 20.2693 21.8975C20.2356 21.8371 20.1823 21.7879 20.1367 21.7345C19.6805 21.2104 19.6826 21.2132 20.1493 20.6639C21.7776 18.7488 23.4079 16.8345 25.0263 14.9117C25.1899 14.7171 25.2811 14.6771 25.4832 14.8598C26.0398 15.3613 26.5865 15.8707 27.0694 16.4446C27.122 16.5071 27.1733 16.5697 27.2182 16.6252Z" fill="white"/>
<path d="M65.1694 23.1884C65.0599 23.9232 64.9652 24.5224 64.8838 25.1245C64.855 25.3366 64.7715 25.3872 64.5616 25.3401C61.9662 24.7578 59.3702 24.1796 56.772 23.6148C56.539 23.5642 56.5249 23.4771 56.5733 23.2846C56.6526 22.9678 56.7242 22.6481 56.7748 22.3257C56.8085 22.11 56.892 22.0377 57.118 22.0636C58.6374 22.2386 60.1583 22.4016 61.6785 22.568C62.7116 22.6812 63.744 22.7985 64.7771 22.9074C65.0354 22.9341 65.2635 22.9657 65.1694 23.1884Z" fill="white"/>
<path d="M18.6572 20.448C18.4902 20.3518 18.3203 20.2506 18.147 20.1551C17.5588 19.8319 17.5609 19.8333 17.8045 19.2032C18.679 16.9397 19.5591 14.6776 20.4174 12.4078C20.536 12.0945 20.6525 12.0615 20.9424 12.1851C21.5642 12.4514 22.1853 12.7169 22.7847 13.0323C22.958 13.1237 22.9966 13.1855 22.89 13.3667C21.5382 15.6597 20.1942 17.9583 18.846 20.2541C18.8032 20.3286 18.7821 20.4347 18.6572 20.448Z" fill="white"/>
<path d="M56.9919 19.7177C56.9919 18.9498 56.9933 18.9646 57.7435 18.888C59.8666 18.6709 61.9882 18.4405 64.1113 18.2157C64.2271 18.2038 64.3443 18.1988 64.4608 18.1904C65.0657 18.1462 65.0665 18.1462 65.1156 18.7777C65.1549 19.2779 65.1886 19.7788 65.2335 20.2783C65.2503 20.4658 65.2075 20.5628 64.9942 20.56C63.1729 20.534 61.3509 20.5944 59.5297 20.527C58.8061 20.5003 58.0804 20.5031 57.3575 20.5291C57.0375 20.5403 56.9385 20.4441 56.989 20.1385C57.0101 20.0015 56.9919 19.8582 56.9919 19.7177Z" fill="white"/>
<path d="M15.2073 15.153C15.2634 13.9159 15.3259 12.6795 15.3694 11.4424C15.3785 11.1811 15.4347 11.0827 15.7231 11.1045C16.4222 11.1572 17.1184 11.219 17.8111 11.3265C17.9725 11.3511 18.0441 11.3897 17.9999 11.5955C17.4553 14.1042 16.9205 16.6157 16.3948 19.1285C16.3429 19.3751 16.2621 19.4257 16.0242 19.3498C15.7702 19.269 15.5007 19.2227 15.2347 19.2009C15.036 19.1847 15.0171 19.0927 15.0248 18.9332C15.088 17.6736 15.1462 16.4133 15.2066 15.153C15.2066 15.153 15.2066 15.153 15.2073 15.153Z" fill="white"/>
<path d="M56.5382 16.0231C56.4933 15.8208 56.6765 15.8468 56.7747 15.8137C58.3342 15.2911 59.8958 14.7761 61.4574 14.2591C62.1662 14.0245 62.8772 13.7961 63.5804 13.5467C63.7952 13.4709 63.8927 13.4983 63.9594 13.7252C64.1264 14.2956 64.3019 14.8639 64.4984 15.4245C64.5946 15.6992 64.5321 15.8032 64.2458 15.8629C62.2483 16.2795 60.2544 16.7108 58.2591 17.138C57.8717 17.2209 57.4801 17.2897 57.0976 17.3916C56.8611 17.4548 56.7965 17.3852 56.7649 17.1548C56.7116 16.7748 56.6161 16.4003 56.5382 16.0231Z" fill="white"/>
<path d="M13.7552 18.9664C13.7769 19.1266 13.6913 19.1631 13.5502 19.1757C13.2955 19.1982 13.0323 19.2088 12.7909 19.2825C12.5157 19.3661 12.4287 19.2657 12.3522 19.0205C11.7283 17.0043 11.0924 14.9909 10.4601 12.9768C10.3794 12.7211 10.3078 12.4612 10.2123 12.2111C10.1386 12.0179 10.2102 11.9378 10.3871 11.8788C11.0854 11.6477 11.7964 11.4685 12.5178 11.3266C12.6758 11.2957 12.7494 11.3386 12.7719 11.5121C12.9804 13.1546 13.1951 14.7956 13.4092 16.4374C13.5102 17.2122 13.6141 17.9864 13.7173 18.7606C13.7264 18.8294 13.7425 18.8976 13.7552 18.9664Z" fill="white"/>
<path d="M56.1189 14.4044C55.9953 14.4458 55.9841 14.3545 55.9581 14.299C55.7848 13.9295 55.6297 13.5515 55.4409 13.1897C55.3202 12.9579 55.5118 12.9312 55.622 12.8638C57.4039 11.7742 59.188 10.6888 60.9727 9.60344C61.6886 9.16788 61.6942 9.16578 62.1188 9.8725C62.3589 10.2722 62.575 10.6867 62.8073 11.0914C62.8761 11.2108 62.8951 11.2838 62.7385 11.3555C60.5565 12.3573 58.3766 13.364 56.1961 14.37C56.1638 14.3854 56.1315 14.3988 56.1189 14.4044Z" fill="white"/>
<path d="M7.71242 13.0693C7.85419 13.0728 7.86683 13.2 7.91034 13.285C8.59603 14.6261 9.27751 15.97 9.9604 17.3132C10.331 18.0417 10.6945 18.7744 11.0749 19.498C11.1781 19.6947 11.1788 19.793 10.9486 19.8851C10.6798 19.9932 10.4257 20.1443 10.1766 20.296C10.0292 20.386 9.94566 20.386 9.83547 20.2349C8.47602 18.3761 7.11025 16.5215 5.74167 14.6689C5.6385 14.5291 5.62587 14.4519 5.77957 14.3367C6.35999 13.9011 6.95936 13.4958 7.5889 13.1354C7.62891 13.1115 7.67102 13.0911 7.71242 13.0693Z" fill="white"/>
<path d="M60.198 7.22707C60.1952 7.33807 60.1103 7.37038 60.0492 7.41815C58.3031 8.78734 56.5534 10.1523 54.8114 11.5271C54.6135 11.6831 54.5188 11.6634 54.3833 11.4555C54.1931 11.1625 53.9692 10.8906 53.7461 10.6209C53.638 10.4902 53.6261 10.408 53.7587 10.2781C55.3091 8.75502 56.8531 7.22566 58.3971 5.69631C58.4975 5.59725 58.5775 5.527 58.7136 5.65626C59.2056 6.12273 59.6695 6.61659 60.1208 7.1224C60.151 7.15612 60.1756 7.19616 60.198 7.22707Z" fill="white"/>
<path d="M8.86471 21.2277C8.80576 21.2909 8.76014 21.3415 8.71311 21.3907C8.49625 21.619 8.26815 21.8382 8.06462 22.0785C7.9432 22.2218 7.85266 22.2056 7.7144 22.1101C5.93736 20.8842 4.15821 19.6611 2.37415 18.4444C2.22396 18.3418 2.2008 18.2681 2.30116 18.1163C2.69629 17.5227 3.1209 16.953 3.5806 16.4071C3.71185 16.2512 3.78554 16.2568 3.92941 16.3973C5.51486 17.9484 7.10802 19.4918 8.69837 21.038C8.75592 21.0935 8.80365 21.1575 8.86471 21.2277Z" fill="white"/>
<path d="M56.7221 4.08501C56.6799 4.13981 56.6315 4.20514 56.581 4.26767C55.2756 5.88414 53.9681 7.4999 52.6669 9.11989C52.5532 9.26179 52.4809 9.27865 52.3405 9.1515C52.0563 8.89227 51.7587 8.6464 51.4562 8.40825C51.3137 8.29584 51.2702 8.20663 51.3804 8.03732C52.4774 6.34217 53.5673 4.6421 54.6566 2.94204C54.7345 2.8198 54.7969 2.74955 54.9555 2.84579C55.524 3.19213 56.0841 3.5497 56.6217 3.94241C56.6645 3.97472 56.727 3.9965 56.7221 4.08501Z" fill="white"/>
<path d="M7.10745 23.4288C7.00498 23.6522 6.8969 23.8721 6.80145 24.0976C6.56704 24.6525 6.56915 24.6561 5.98241 24.5099C4.18221 24.0596 2.38411 23.603 0.581801 23.1618C0.33265 23.1007 0.2751 23.0241 0.342476 22.7649C0.509512 22.12 0.691989 21.4814 0.917278 20.8541C0.988163 20.6574 1.06115 20.6068 1.2689 20.7016C3.14841 21.5594 5.03283 22.4059 6.91445 23.2581C6.99305 23.2932 7.10464 23.303 7.10745 23.4288Z" fill="white"/>
<path d="M52.6939 1.77825C52.6581 1.85132 52.6279 1.91384 52.5963 1.97706C51.7464 3.67713 50.8937 5.37579 50.0501 7.07938C49.9546 7.27186 49.8893 7.34633 49.6711 7.20864C49.337 6.99788 48.9784 6.82577 48.6239 6.65014C48.4822 6.57989 48.4422 6.50824 48.5004 6.35439C49.1573 4.60936 49.81 2.86293 50.4613 1.11649C50.5126 0.980206 50.5547 0.909955 50.7337 0.969668C51.3414 1.1734 51.9429 1.39258 52.5346 1.63846C52.5991 1.66375 52.703 1.67147 52.6939 1.77825Z" fill="white"/>
<path d="M0.523039 28.0397C0.165104 28.1992 0.115976 27.9224 0.0914114 27.5957C0.0471959 27.0014 -0.00333614 26.4085 0.000173025 25.8114C0.00157669 25.6006 0.0717601 25.5613 0.261957 25.576C2.16954 25.7242 4.07713 25.8669 5.98541 26.0067C6.16999 26.02 6.24509 26.0593 6.20649 26.2792C6.14824 26.6108 6.1349 26.9529 6.12648 27.2908C6.12227 27.4608 6.08928 27.5304 5.90049 27.5465C4.38944 27.6758 2.8791 27.8177 1.36875 27.9568C1.11328 27.98 0.858516 28.0067 0.523039 28.0397Z" fill="white"/>
<path d="M45.2942 5.29055C45.5075 3.80896 45.7167 2.33159 45.9357 0.85492C45.975 0.58867 45.8949 0.214936 46.1265 0.0912945C46.3245 -0.0147841 46.6473 0.102535 46.9126 0.136255C47.3169 0.188241 47.719 0.254979 48.1233 0.311882C48.2833 0.334362 48.3261 0.39829 48.2826 0.566189C47.8341 2.29084 47.392 4.01761 46.9547 5.74507C46.914 5.90735 46.8508 5.91578 46.7098 5.87152C46.2992 5.74297 45.8844 5.62705 45.4696 5.51184C45.3489 5.47742 45.2331 5.45424 45.2942 5.29055Z" fill="white"/>
<path d="M6.10374 29.0448C6.24902 28.9928 6.25323 29.0912 6.27288 29.1678C6.37394 29.5633 6.46659 29.9609 6.57748 30.3536C6.61888 30.5004 6.54379 30.5348 6.43921 30.5812C4.9043 31.2654 3.3701 31.9497 1.83869 32.6395C1.68569 32.7084 1.61481 32.6754 1.54392 32.5285C1.24845 31.9181 0.985263 31.2956 0.771204 30.6521C0.720672 30.5011 0.72769 30.4379 0.908062 30.3915C2.61422 29.9574 4.31757 29.5113 6.02162 29.068C6.05672 29.0603 6.0897 29.049 6.10374 29.0448Z" fill="white"/>
<path d="M43.7665 0.76131C43.7244 2.12769 43.6774 3.49406 43.6458 4.86114C43.6409 5.08665 43.5974 5.16884 43.3518 5.14004C42.9468 5.09297 42.5369 5.07822 42.1292 5.06557C41.9741 5.06066 41.9067 5.02904 41.8933 4.85412C41.7839 3.40906 41.6709 1.9647 41.5389 0.521754C41.5144 0.251992 41.6091 0.171203 41.8491 0.152938C42.4078 0.110085 42.9665 0.0602071 43.5237 0.00400649C43.7371 -0.0177712 43.8227 0.0461569 43.7918 0.271662C43.7701 0.432536 43.7876 0.598328 43.7876 0.762012C43.7799 0.762012 43.7729 0.76131 43.7665 0.76131Z" fill="white"/>
<path d="M4.56658 36.5281C4.52588 36.4937 4.47183 36.4515 4.422 36.4045C3.94335 35.9563 3.51032 35.4659 3.09343 34.9601C2.96149 34.8 2.97833 34.7262 3.14607 34.6152C4.44095 33.756 5.73163 32.8905 7.02019 32.0208C7.16267 31.9246 7.23566 31.9098 7.33461 32.0841C7.51288 32.3981 7.7115 32.7037 7.93188 32.9903C8.06593 33.1645 8.02662 33.2544 7.88555 33.39C6.84754 34.3855 5.81725 35.3887 4.78415 36.389C4.7266 36.4445 4.68028 36.519 4.56658 36.5281Z" fill="white"/>
<path d="M38.7036 5.35262C38.4832 5.42779 38.4664 5.32452 38.4376 5.2353C38.046 4.02769 37.6579 2.81867 37.2585 1.61317C37.2052 1.4523 37.2361 1.38556 37.3919 1.33287C37.9653 1.13968 38.5366 0.939468 39.1072 0.737848C39.2567 0.68516 39.3395 0.698508 39.3753 0.88116C39.642 2.23068 39.9164 3.57879 40.1901 4.9269C40.2133 5.04 40.2294 5.1229 40.0673 5.14538C39.583 5.21071 39.1002 5.2915 38.7036 5.35262Z" fill="white"/>
<path d="M10.4004 35.3952C10.3786 35.4451 10.3519 35.5097 10.3218 35.5722C9.79538 36.6506 9.2648 37.7268 8.74474 38.808C8.6549 38.9942 8.58402 39.0735 8.36013 38.9696C7.80007 38.7089 7.24773 38.4371 6.71012 38.1329C6.53747 38.0352 6.51291 37.9566 6.63362 37.7901C7.42389 36.7061 8.20713 35.6179 8.98617 34.5262C9.09706 34.371 9.16443 34.34 9.32586 34.4805C9.61571 34.732 9.93645 34.947 10.2432 35.1795C10.3126 35.2308 10.4256 35.2519 10.4004 35.3952Z" fill="white"/>
<path d="M12.8643 40.0207C12.22 39.9645 11.6185 39.9006 11.0226 39.7847C10.8374 39.7488 10.8093 39.7004 10.8661 39.5163C11.1953 38.4485 11.509 37.3765 11.822 36.3044C11.874 36.1274 11.9231 36.0621 12.1315 36.1478C12.507 36.3016 12.9007 36.4112 13.2896 36.5306C13.4369 36.5756 13.524 36.6149 13.4973 36.8124C13.3597 37.8169 13.2404 38.8236 13.1204 39.831C13.0966 40.0291 12.9786 40.046 12.8643 40.0207Z" fill="white"/>
<path d="M36.7759 5.80461C36.7766 5.92684 36.672 5.92333 36.6047 5.95073C36.173 6.12565 35.7358 6.28863 35.307 6.47129C35.1666 6.531 35.1055 6.50009 35.0333 6.37715C34.5188 5.50112 34.0009 4.6272 33.4766 3.7575C33.3846 3.60506 33.3952 3.51162 33.5489 3.41608C34.0437 3.10698 34.5335 2.79015 35.0255 2.47613C35.1315 2.40798 35.222 2.3553 35.2978 2.5232C35.7758 3.58749 36.2601 4.64898 36.7415 5.71188C36.7548 5.74279 36.7654 5.7758 36.7759 5.80461Z" fill="white"/>
<path d="M31.7007 4.9082C32.2881 5.6922 32.8664 6.46777 33.451 7.23842C33.5402 7.35644 33.5128 7.40632 33.4005 7.47868C32.9794 7.74985 32.5618 8.02804 32.1484 8.31115C32.0382 8.38702 31.9709 8.37367 31.8831 8.27813C31.3532 7.70348 30.8213 7.13094 30.2837 6.56401C30.1833 6.45864 30.2142 6.39611 30.2977 6.30479C30.7384 5.82427 31.1764 5.34095 31.7007 4.9082Z" fill="white"/>
<path d="M15.2235 37.8202C15.2235 37.6333 15.253 37.4408 15.2172 37.2617C15.1505 36.9301 15.2684 36.8451 15.5884 36.8697C15.959 36.8978 16.3345 36.8838 16.7065 36.8662C16.8896 36.8578 16.9795 36.9027 17.0181 37.0924C17.1627 37.7998 17.3178 38.5044 17.4743 39.2091C17.515 39.3931 17.4539 39.4886 17.2714 39.5378C16.7093 39.6882 16.145 39.8259 15.5674 39.9088C15.3533 39.9397 15.3014 39.8659 15.3028 39.6734C15.3077 39.0559 15.3049 38.4384 15.3049 37.8216C15.2775 37.8202 15.2509 37.8202 15.2235 37.8202Z" fill="white"/>
<path d="M28.8802 8.0957C29.4094 8.55093 29.9274 9.00053 30.4495 9.44381C30.5646 9.54146 30.5745 9.61171 30.4558 9.71569C30.0691 10.0536 29.7133 10.4231 29.3757 10.8095C29.2894 10.9085 29.2157 10.9114 29.1083 10.8348C28.7097 10.551 28.3075 10.2728 27.9026 9.9988C27.7903 9.92292 27.7861 9.85478 27.8506 9.74098C28.1658 9.18318 28.4879 8.63031 28.8802 8.0957Z" fill="white"/>
<path d="M19.6225 38.5624C19.4912 38.5827 19.4828 38.4788 19.4554 38.4134C19.2168 37.8444 18.9873 37.2719 18.7466 36.7035C18.6841 36.5567 18.7276 36.4991 18.8694 36.4605C19.3298 36.3326 19.7776 36.1682 20.2078 35.9603C20.3552 35.8893 20.4268 35.9181 20.5103 36.0565C20.751 36.4555 21.0044 36.8468 21.2626 37.2346C21.3441 37.3562 21.3412 37.4299 21.2205 37.5205C20.7447 37.8781 20.2562 38.2146 19.7347 38.5019C19.694 38.5251 19.6526 38.5462 19.6225 38.5624Z" fill="white"/>
<path d="M28.0423 12.4621C28.0367 12.4727 28.0325 12.4839 28.0262 12.4938C27.7139 12.9862 27.4008 13.478 27.0885 13.9704C27.038 14.0498 26.9776 14.0189 26.9067 14.0027C26.2814 13.8566 26.2232 13.7688 26.4098 13.1752C26.532 12.786 26.6793 12.4052 26.7994 12.016C26.8597 11.82 26.9404 11.7758 27.1222 11.8833C27.3826 12.0378 27.6549 12.1727 27.9202 12.3195C27.9749 12.349 28.0599 12.3652 28.0423 12.4621Z" fill="white"/>
<path d="M22.8793 35.9193C22.8252 35.8701 22.781 35.8357 22.7438 35.7949C22.5311 35.5638 22.3248 35.3263 22.1065 35.1008C21.9978 34.9884 22.0118 34.9238 22.1367 34.8353C22.555 34.5395 22.9452 34.2079 23.3186 33.8574C23.4176 33.7647 23.4955 33.7281 23.6092 33.8391C23.7165 33.9445 23.8408 34.0337 23.9636 34.1215C24.078 34.2037 24.1054 34.2852 24.0232 34.4131C23.7137 34.8929 23.3825 35.3558 23.014 35.7928C22.9789 35.835 22.9333 35.8694 22.8793 35.9193Z" fill="white"/>
<path d="M25.8153 16.3604C25.8216 16.2227 25.8258 16.085 25.8364 15.9473C25.842 15.8707 25.8272 15.7717 25.9283 15.7478C25.9774 15.7359 26.0441 15.7548 26.0904 15.7808C26.1957 15.8412 26.1185 15.9248 26.0946 15.9909C26.0329 16.1637 25.9592 16.3316 25.8904 16.5016C25.7542 16.5142 25.8034 16.4271 25.8153 16.3604Z" fill="white"/>
<path d="M25.8179 16.3574C25.8433 16.4046 25.8679 16.4526 25.8933 16.4998C25.8778 16.5646 25.8637 16.6302 25.787 16.6675C25.7384 16.5548 25.7518 16.454 25.8179 16.3574Z" fill="white"/>
</svg>
