<svg width="244" height="355" viewBox="0 0 244 355" fill="none" xmlns="http://www.w3.org/2000/svg">
<g filter="url(#filter0_d_1526_5018)">
<rect x="8" y="4" width="227.694" height="92.7887" rx="10.0559" fill="#756EF2"/>
<circle cx="64.0623" cy="50.3944" r="22.3944" fill="white"/>
<path d="M59.3304 43.4609V38.9849H67.1282V59.5352H62.1173V43.4609H59.3304Z" fill="#756EF2"/>
<path d="M109.002 45.3943H106.53L102.396 39.1348V45.3943H99.9236V35.246H102.396L106.53 41.5345V35.246H109.002V45.3943ZM112.037 36.4893C111.604 36.4893 111.247 36.364 110.967 36.1134C110.698 35.8532 110.563 35.5352 110.563 35.1593C110.563 34.7738 110.698 34.4558 110.967 34.2052C111.247 33.945 111.604 33.8149 112.037 33.8149C112.461 33.8149 112.808 33.945 113.078 34.2052C113.358 34.4558 113.497 34.7738 113.497 35.1593C113.497 35.5352 113.358 35.8532 113.078 36.1134C112.808 36.364 112.461 36.4893 112.037 36.4893ZM113.266 37.3277V45.3943H110.794V37.3277H113.266ZM118.686 43.0813L120.435 37.3277H123.066L120.204 45.3943H117.154L114.291 37.3277H116.937L118.686 43.0813ZM131.711 41.2309C131.711 41.4622 131.696 41.7031 131.667 41.9537H126.073C126.111 42.4549 126.27 42.8404 126.55 43.1102C126.839 43.3704 127.191 43.5005 127.605 43.5005C128.222 43.5005 128.651 43.2403 128.892 42.7199H131.523C131.388 43.25 131.142 43.727 130.785 44.1511C130.438 44.5751 130 44.9076 129.47 45.1485C128.94 45.3895 128.347 45.5099 127.692 45.5099C126.902 45.5099 126.198 45.3413 125.581 45.004C124.964 44.6667 124.483 44.1848 124.136 43.5584C123.789 42.9319 123.615 42.1995 123.615 41.361C123.615 40.5226 123.784 39.7901 124.121 39.1637C124.468 38.5372 124.95 38.0554 125.567 37.7181C126.184 37.3807 126.892 37.2121 127.692 37.2121C128.472 37.2121 129.166 37.3759 129.773 37.7036C130.381 38.0313 130.853 38.4987 131.19 39.1058C131.537 39.713 131.711 40.4214 131.711 41.2309ZM129.181 40.5804C129.181 40.1563 129.036 39.819 128.747 39.5684C128.458 39.3179 128.097 39.1926 127.663 39.1926C127.248 39.1926 126.897 39.3131 126.608 39.554C126.328 39.7949 126.155 40.1371 126.087 40.5804H129.181ZM135.487 34.6967V45.3943H133.015V34.6967H135.487ZM139.85 41.361C139.85 40.5226 140.019 39.7901 140.356 39.1637C140.703 38.5372 141.18 38.0554 141.787 37.7181C142.404 37.3807 143.108 37.2121 143.898 37.2121C144.91 37.2121 145.753 37.4771 146.428 38.0072C147.112 38.5372 147.56 39.2841 147.772 40.2479H145.141C144.919 39.6311 144.491 39.3227 143.854 39.3227C143.402 39.3227 143.04 39.501 142.77 39.8576C142.5 40.2045 142.366 40.7057 142.366 41.361C142.366 42.0164 142.5 42.5223 142.77 42.8789C143.04 43.2259 143.402 43.3993 143.854 43.3993C144.491 43.3993 144.919 43.0909 145.141 42.4741H147.772C147.56 43.4186 147.112 44.1607 146.428 44.7004C145.743 45.2401 144.9 45.5099 143.898 45.5099C143.108 45.5099 142.404 45.3413 141.787 45.004C141.18 44.6667 140.703 44.1848 140.356 43.5584C140.019 42.9319 139.85 42.1995 139.85 41.361ZM148.603 41.3466C148.603 40.5177 148.757 39.7901 149.065 39.1637C149.384 38.5372 149.812 38.0554 150.352 37.7181C150.892 37.3807 151.494 37.2121 152.159 37.2121C152.728 37.2121 153.224 37.3277 153.648 37.559C154.082 37.7903 154.414 38.0939 154.646 38.4698V37.3277H157.118V45.3943H154.646V44.2522C154.405 44.6281 154.067 44.9317 153.634 45.163C153.21 45.3943 152.713 45.5099 152.145 45.5099C151.489 45.5099 150.892 45.3413 150.352 45.004C149.812 44.657 149.384 44.1703 149.065 43.5439C148.757 42.9078 148.603 42.1754 148.603 41.3466ZM154.646 41.361C154.646 40.7442 154.472 40.2575 154.125 39.9009C153.788 39.5444 153.373 39.3661 152.882 39.3661C152.39 39.3661 151.971 39.5444 151.624 39.9009C151.287 40.2479 151.118 40.7298 151.118 41.3466C151.118 41.9634 151.287 42.4549 151.624 42.8211C151.971 43.1777 152.39 43.356 152.882 43.356C153.373 43.356 153.788 43.1777 154.125 42.8211C154.472 42.4645 154.646 41.9778 154.646 41.361ZM158.414 41.3466C158.414 40.5177 158.569 39.7901 158.877 39.1637C159.195 38.5372 159.624 38.0554 160.164 37.7181C160.703 37.3807 161.306 37.2121 161.971 37.2121C162.501 37.2121 162.983 37.3229 163.416 37.5446C163.86 37.7662 164.207 38.065 164.457 38.4409V34.6967H166.929V45.3943H164.457V44.2378C164.226 44.6233 163.893 44.9317 163.46 45.163C163.036 45.3943 162.539 45.5099 161.971 45.5099C161.306 45.5099 160.703 45.3413 160.164 45.004C159.624 44.657 159.195 44.1703 158.877 43.5439C158.569 42.9078 158.414 42.1754 158.414 41.3466ZM164.457 41.361C164.457 40.7442 164.284 40.2575 163.937 39.9009C163.599 39.5444 163.185 39.3661 162.693 39.3661C162.202 39.3661 161.783 39.5444 161.436 39.9009C161.098 40.2479 160.93 40.7298 160.93 41.3466C160.93 41.9634 161.098 42.4549 161.436 42.8211C161.783 43.1777 162.202 43.356 162.693 43.356C163.185 43.356 163.599 43.1777 163.937 42.8211C164.284 42.4645 164.457 41.9778 164.457 41.361ZM176.321 41.2309C176.321 41.4622 176.307 41.7031 176.278 41.9537H170.684C170.722 42.4549 170.881 42.8404 171.161 43.1102C171.45 43.3704 171.802 43.5005 172.216 43.5005C172.833 43.5005 173.262 43.2403 173.503 42.7199H176.134C175.999 43.25 175.753 43.727 175.396 44.1511C175.049 44.5751 174.611 44.9076 174.081 45.1485C173.551 45.3895 172.958 45.5099 172.303 45.5099C171.512 45.5099 170.809 45.3413 170.192 45.004C169.575 44.6667 169.093 44.1848 168.746 43.5584C168.4 42.9319 168.226 42.1995 168.226 41.361C168.226 40.5226 168.395 39.7901 168.732 39.1637C169.079 38.5372 169.561 38.0554 170.178 37.7181C170.794 37.3807 171.503 37.2121 172.303 37.2121C173.083 37.2121 173.777 37.3759 174.384 37.7036C174.992 38.0313 175.464 38.4987 175.801 39.1058C176.148 39.713 176.321 40.4214 176.321 41.2309ZM173.792 40.5804C173.792 40.1563 173.647 39.819 173.358 39.5684C173.069 39.3179 172.707 39.1926 172.274 39.1926C171.859 39.1926 171.508 39.3131 171.218 39.554C170.939 39.7949 170.766 40.1371 170.698 40.5804H173.792ZM182.541 37.241C183.485 37.241 184.237 37.5494 184.796 38.1662C185.364 38.7734 185.649 39.6118 185.649 40.6816V45.3943H183.191V41.0141C183.191 40.4744 183.051 40.0551 182.772 39.7564C182.493 39.4576 182.117 39.3082 181.644 39.3082C181.172 39.3082 180.796 39.4576 180.517 39.7564C180.237 40.0551 180.098 40.4744 180.098 41.0141V45.3943H177.626V37.3277H180.098V38.3975C180.348 38.0409 180.685 37.7614 181.11 37.559C181.534 37.347 182.011 37.241 182.541 37.241ZM186.875 41.3466C186.875 40.5177 187.029 39.7901 187.338 39.1637C187.656 38.5372 188.085 38.0554 188.624 37.7181C189.164 37.3807 189.766 37.2121 190.431 37.2121C191 37.2121 191.496 37.3277 191.92 37.559C192.354 37.7903 192.686 38.0939 192.918 38.4698V37.3277H195.39V45.3943H192.918V44.2522C192.677 44.6281 192.34 44.9317 191.906 45.163C191.482 45.3943 190.985 45.5099 190.417 45.5099C189.761 45.5099 189.164 45.3413 188.624 45.004C188.085 44.657 187.656 44.1703 187.338 43.5439C187.029 42.9078 186.875 42.1754 186.875 41.3466ZM192.918 41.361C192.918 40.7442 192.744 40.2575 192.397 39.9009C192.06 39.5444 191.646 39.3661 191.154 39.3661C190.663 39.3661 190.243 39.5444 189.896 39.9009C189.559 40.2479 189.39 40.7298 189.39 41.3466C189.39 41.9634 189.559 42.4549 189.896 42.8211C190.243 43.1777 190.663 43.356 191.154 43.356C191.646 43.356 192.06 43.1777 192.397 42.8211C192.744 42.4645 192.918 41.9778 192.918 41.361ZM99.4321 61.3466C99.4321 60.5177 99.5863 59.7901 99.8947 59.1637C100.213 58.5372 100.642 58.0554 101.181 57.7181C101.721 57.3807 102.323 57.2121 102.988 57.2121C103.518 57.2121 104 57.3229 104.434 57.5446C104.877 57.7662 105.224 58.065 105.475 58.4409V54.6967H107.947V65.3943H105.475V64.2378C105.244 64.6233 104.911 64.9317 104.477 65.163C104.053 65.3943 103.557 65.5099 102.988 65.5099C102.323 65.5099 101.721 65.3413 101.181 65.004C100.642 64.657 100.213 64.1703 99.8947 63.5439C99.5863 62.9078 99.4321 62.1754 99.4321 61.3466ZM105.475 61.361C105.475 60.7442 105.301 60.2575 104.954 59.9009C104.617 59.5444 104.203 59.3661 103.711 59.3661C103.22 59.3661 102.8 59.5444 102.453 59.9009C102.116 60.2479 101.947 60.7298 101.947 61.3466C101.947 61.9634 102.116 62.4549 102.453 62.8211C102.8 63.1777 103.22 63.356 103.711 63.356C104.203 63.356 104.617 63.1777 104.954 62.8211C105.301 62.4645 105.475 61.9778 105.475 61.361ZM117.339 61.2309C117.339 61.4622 117.325 61.7031 117.296 61.9537H111.701C111.74 62.4549 111.899 62.8404 112.178 63.1102C112.467 63.3704 112.819 63.5005 113.234 63.5005C113.85 63.5005 114.279 63.2403 114.52 62.7199H117.151C117.016 63.25 116.771 63.727 116.414 64.1511C116.067 64.5751 115.628 64.9076 115.098 65.1485C114.568 65.3895 113.976 65.5099 113.32 65.5099C112.53 65.5099 111.827 65.3413 111.21 65.004C110.593 64.6667 110.111 64.1848 109.764 63.5584C109.417 62.9319 109.244 62.1995 109.244 61.361C109.244 60.5226 109.412 59.7901 109.75 59.1637C110.097 58.5372 110.578 58.0554 111.195 57.7181C111.812 57.3807 112.52 57.2121 113.32 57.2121C114.101 57.2121 114.795 57.3759 115.402 57.7036C116.009 58.0313 116.481 58.4987 116.819 59.1058C117.166 59.713 117.339 60.4214 117.339 61.2309ZM114.809 60.5804C114.809 60.1563 114.665 59.819 114.376 59.5684C114.087 59.3179 113.725 59.1926 113.291 59.1926C112.877 59.1926 112.525 59.3131 112.236 59.554C111.957 59.7949 111.783 60.1371 111.716 60.5804H114.809ZM124.988 65.5099C124.285 65.5099 123.658 65.3895 123.109 65.1485C122.56 64.9076 122.126 64.5799 121.808 64.1655C121.49 63.7415 121.312 63.2692 121.273 62.7488H123.716C123.745 63.0283 123.875 63.2548 124.106 63.4282C124.338 63.6017 124.622 63.6885 124.959 63.6885C125.268 63.6885 125.504 63.6306 125.668 63.515C125.841 63.3897 125.928 63.2307 125.928 63.0379C125.928 62.8066 125.807 62.638 125.567 62.532C125.326 62.4163 124.935 62.291 124.396 62.1561C123.817 62.0212 123.335 61.8814 122.95 61.7369C122.564 61.5827 122.232 61.3466 121.952 61.0285C121.673 60.7008 121.533 60.2623 121.533 59.713C121.533 59.2504 121.659 58.8312 121.909 58.4553C122.169 58.0698 122.545 57.7662 123.037 57.5446C123.538 57.3229 124.131 57.2121 124.815 57.2121C125.827 57.2121 126.622 57.4627 127.2 57.9638C127.788 58.465 128.125 59.1299 128.212 59.9588H125.928C125.889 59.6793 125.764 59.4576 125.552 59.2938C125.35 59.1299 125.08 59.048 124.743 59.048C124.453 59.048 124.232 59.1058 124.078 59.2215C123.923 59.3275 123.846 59.4769 123.846 59.6696C123.846 59.9009 123.967 60.0744 124.208 60.1901C124.458 60.3057 124.844 60.4214 125.364 60.537C125.962 60.6912 126.448 60.8454 126.824 60.9996C127.2 61.1442 127.528 61.3851 127.807 61.7224C128.096 62.0501 128.246 62.4934 128.255 63.0524C128.255 63.5246 128.12 63.9487 127.851 64.3245C127.59 64.6908 127.21 64.9799 126.709 65.1919C126.217 65.4039 125.644 65.5099 124.988 65.5099ZM137.733 57.3277V65.3943H135.261V64.2956C135.011 64.6522 134.668 64.9413 134.235 65.163C133.811 65.375 133.338 65.481 132.818 65.481C132.201 65.481 131.657 65.3461 131.184 65.0763C130.712 64.7968 130.346 64.3968 130.086 63.8764C129.826 63.356 129.695 62.744 129.695 62.0405V57.3277H132.153V61.708C132.153 62.2477 132.293 62.6669 132.572 62.9656C132.852 63.2644 133.228 63.4138 133.7 63.4138C134.182 63.4138 134.562 63.2644 134.842 62.9656C135.121 62.6669 135.261 62.2477 135.261 61.708V57.3277H137.733ZM149.802 57.241C150.804 57.241 151.599 57.5446 152.187 58.1517C152.784 58.7589 153.083 59.6022 153.083 60.6816V65.3943H150.626V61.0141C150.626 60.4936 150.486 60.0937 150.206 59.8142C149.936 59.5251 149.561 59.3805 149.079 59.3805C148.597 59.3805 148.216 59.5251 147.937 59.8142C147.667 60.0937 147.532 60.4936 147.532 61.0141V65.3943H145.074V61.0141C145.074 60.4936 144.935 60.0937 144.655 59.8142C144.385 59.5251 144.009 59.3805 143.528 59.3805C143.046 59.3805 142.665 59.5251 142.385 59.8142C142.116 60.0937 141.981 60.4936 141.981 61.0141V65.3943H139.509V57.3277H141.981V58.3397C142.231 58.0024 142.559 57.7373 142.964 57.5446C143.369 57.3422 143.826 57.241 144.337 57.241C144.944 57.241 145.484 57.3711 145.956 57.6313C146.438 57.8915 146.814 58.2626 147.084 58.7444C147.363 58.3011 147.744 57.9397 148.226 57.6602C148.708 57.3807 149.233 57.241 149.802 57.241ZM156.055 56.4893C155.621 56.4893 155.265 56.364 154.985 56.1134C154.716 55.8532 154.581 55.5352 154.581 55.1593C154.581 54.7738 154.716 54.4558 154.985 54.2052C155.265 53.945 155.621 53.8149 156.055 53.8149C156.479 53.8149 156.826 53.945 157.096 54.2052C157.376 54.4558 157.515 54.7738 157.515 55.1593C157.515 55.5352 157.376 55.8532 157.096 56.1134C156.826 56.364 156.479 56.4893 156.055 56.4893ZM157.284 57.3277V65.3943H154.812V57.3277H157.284ZM163.99 57.241C164.935 57.241 165.687 57.5494 166.246 58.1662C166.814 58.7734 167.099 59.6118 167.099 60.6816V65.3943H164.641V61.0141C164.641 60.4744 164.501 60.0551 164.222 59.7564C163.942 59.4576 163.566 59.3082 163.094 59.3082C162.622 59.3082 162.246 59.4576 161.967 59.7564C161.687 60.0551 161.547 60.4744 161.547 61.0141V65.3943H159.075V57.3277H161.547V58.3975C161.798 58.0409 162.135 57.7614 162.559 57.559C162.983 57.347 163.46 57.241 163.99 57.241ZM170.06 56.4893C169.626 56.4893 169.269 56.364 168.99 56.1134C168.72 55.8532 168.585 55.5352 168.585 55.1593C168.585 54.7738 168.72 54.4558 168.99 54.2052C169.269 53.945 169.626 53.8149 170.06 53.8149C170.484 53.8149 170.831 53.945 171.1 54.2052C171.38 54.4558 171.52 54.7738 171.52 55.1593C171.52 55.5352 171.38 55.8532 171.1 56.1134C170.831 56.364 170.484 56.4893 170.06 56.4893ZM171.288 57.3277V65.3943H168.816V57.3277H171.288ZM176.361 65.5099C175.658 65.5099 175.031 65.3895 174.482 65.1485C173.933 64.9076 173.499 64.5799 173.181 64.1655C172.863 63.7415 172.685 63.2692 172.646 62.7488H175.089C175.118 63.0283 175.248 63.2548 175.48 63.4282C175.711 63.6017 175.995 63.6885 176.332 63.6885C176.641 63.6885 176.877 63.6306 177.041 63.515C177.214 63.3897 177.301 63.2307 177.301 63.0379C177.301 62.8066 177.181 62.638 176.94 62.532C176.699 62.4163 176.308 62.291 175.769 62.1561C175.19 62.0212 174.709 61.8814 174.323 61.7369C173.938 61.5827 173.605 61.3466 173.326 61.0285C173.046 60.7008 172.906 60.2623 172.906 59.713C172.906 59.2504 173.032 58.8312 173.282 58.4553C173.542 58.0698 173.918 57.7662 174.41 57.5446C174.911 57.3229 175.504 57.2121 176.188 57.2121C177.2 57.2121 177.995 57.4627 178.573 57.9638C179.161 58.465 179.498 59.1299 179.585 59.9588H177.301C177.262 59.6793 177.137 59.4576 176.925 59.2938C176.723 59.1299 176.453 59.048 176.116 59.048C175.826 59.048 175.605 59.1058 175.451 59.2215C175.296 59.3275 175.219 59.4769 175.219 59.6696C175.219 59.9009 175.34 60.0744 175.581 60.1901C175.831 60.3057 176.217 60.4214 176.737 60.537C177.335 60.6912 177.821 60.8454 178.197 60.9996C178.573 61.1442 178.901 61.3851 179.18 61.7224C179.469 62.0501 179.619 62.4934 179.628 63.0524C179.628 63.5246 179.494 63.9487 179.224 64.3245C178.963 64.6908 178.583 64.9799 178.082 65.1919C177.59 65.4039 177.017 65.5099 176.361 65.5099ZM185.637 63.2981V65.3943H184.379C183.483 65.3943 182.784 65.1774 182.283 64.7438C181.782 64.3004 181.531 63.5824 181.531 62.5898V59.3805H180.548V57.3277H181.531V55.3617H184.003V57.3277H185.622V59.3805H184.003V62.6187C184.003 62.8596 184.061 63.0331 184.177 63.1391C184.292 63.2451 184.485 63.2981 184.755 63.2981H185.637ZM189.486 58.6722C189.775 58.2288 190.136 57.8819 190.57 57.6313C191.004 57.3711 191.485 57.241 192.015 57.241V59.8576H191.336C190.719 59.8576 190.257 59.9925 189.948 60.2623C189.64 60.5226 189.486 60.9852 189.486 61.6501V65.3943H187.014V57.3277H189.486V58.6722ZM196.869 65.5099C196.079 65.5099 195.365 65.3413 194.729 65.004C194.103 64.6667 193.607 64.1848 193.24 63.5584C192.884 62.9319 192.706 62.1995 192.706 61.361C192.706 60.5322 192.889 59.8046 193.255 59.1781C193.621 58.5421 194.122 58.0554 194.758 57.7181C195.394 57.3807 196.108 57.2121 196.898 57.2121C197.688 57.2121 198.401 57.3807 199.037 57.7181C199.673 58.0554 200.175 58.5421 200.541 59.1781C200.907 59.8046 201.09 60.5322 201.09 61.361C201.09 62.1898 200.902 62.9223 200.526 63.5584C200.16 64.1848 199.654 64.6667 199.008 65.004C198.372 65.3413 197.659 65.5099 196.869 65.5099ZM196.869 63.3704C197.341 63.3704 197.741 63.1969 198.069 62.85C198.406 62.5031 198.575 62.0067 198.575 61.361C198.575 60.7153 198.411 60.219 198.083 59.872C197.765 59.5251 197.37 59.3516 196.898 59.3516C196.416 59.3516 196.016 59.5251 195.698 59.872C195.38 60.2093 195.221 60.7057 195.221 61.361C195.221 62.0067 195.375 62.5031 195.684 62.85C196.002 63.1969 196.397 63.3704 196.869 63.3704Z" fill="white"/>
<rect x="8" y="126.956" width="227.694" height="92.7887" rx="10.0559" fill="#756EF2"/>
<circle cx="61.5623" cy="173.351" r="22.3944" fill="white"/>
<path d="M54.633 178.635C55.2711 178.128 55.562 177.894 55.5057 177.931C57.3449 176.411 58.79 175.163 59.841 174.187C60.9107 173.211 61.8116 172.188 62.5435 171.119C63.2754 170.049 63.6414 169.007 63.6414 167.994C63.6414 167.224 63.4631 166.624 63.1065 166.192C62.7499 165.761 62.2151 165.545 61.5019 165.545C60.7887 165.545 60.2257 165.817 59.8128 166.361C59.4187 166.887 59.2217 167.637 59.2217 168.613H54.5767C54.6143 167.018 54.9521 165.686 55.5902 164.616C56.247 163.546 57.101 162.758 58.1519 162.251C59.2217 161.744 60.404 161.491 61.699 161.491C63.9323 161.491 65.612 162.063 66.738 163.208C67.8828 164.353 68.4552 165.845 68.4552 167.684C68.4552 169.692 67.7702 171.56 66.4002 173.286C65.0302 174.994 63.2848 176.664 61.1641 178.297H68.7649V182.21H54.633V178.635Z" fill="#756EF2"/>
<path d="M106.502 178.351H104.03L99.8956 172.091V178.351H97.4236V168.202H99.8956L104.03 174.491V168.202H106.502V178.351ZM109.537 169.446C109.104 169.446 108.747 169.32 108.467 169.07C108.198 168.81 108.063 168.491 108.063 168.116C108.063 167.73 108.198 167.412 108.467 167.162C108.747 166.901 109.104 166.771 109.537 166.771C109.961 166.771 110.308 166.901 110.578 167.162C110.858 167.412 110.997 167.73 110.997 168.116C110.997 168.491 110.858 168.81 110.578 169.07C110.308 169.32 109.961 169.446 109.537 169.446ZM110.766 170.284V178.351H108.294V170.284H110.766ZM116.186 176.038L117.935 170.284H120.566L117.704 178.351H114.654L111.791 170.284H114.437L116.186 176.038ZM129.211 174.187C129.211 174.419 129.196 174.659 129.167 174.91H123.573C123.611 175.411 123.77 175.797 124.05 176.067C124.339 176.327 124.691 176.457 125.105 176.457C125.722 176.457 126.151 176.197 126.392 175.676H129.023C128.888 176.206 128.642 176.683 128.285 177.107C127.938 177.531 127.5 177.864 126.97 178.105C126.44 178.346 125.847 178.466 125.192 178.466C124.402 178.466 123.698 178.298 123.081 177.96C122.464 177.623 121.983 177.141 121.636 176.515C121.289 175.888 121.115 175.156 121.115 174.317C121.115 173.479 121.284 172.746 121.621 172.12C121.968 171.494 122.45 171.012 123.067 170.674C123.684 170.337 124.392 170.168 125.192 170.168C125.972 170.168 126.666 170.332 127.273 170.66C127.881 170.988 128.353 171.455 128.69 172.062C129.037 172.669 129.211 173.378 129.211 174.187ZM126.681 173.537C126.681 173.113 126.536 172.775 126.247 172.525C125.958 172.274 125.597 172.149 125.163 172.149C124.748 172.149 124.397 172.269 124.108 172.51C123.828 172.751 123.655 173.093 123.587 173.537H126.681ZM132.987 167.653V178.351H130.515V167.653H132.987ZM145.446 174.187C145.446 174.419 145.431 174.659 145.402 174.91H139.808C139.846 175.411 140.005 175.797 140.285 176.067C140.574 176.327 140.926 176.457 141.34 176.457C141.957 176.457 142.386 176.197 142.627 175.676H145.258C145.123 176.206 144.877 176.683 144.52 177.107C144.173 177.531 143.735 177.864 143.205 178.105C142.675 178.346 142.082 178.466 141.427 178.466C140.637 178.466 139.933 178.298 139.316 177.96C138.699 177.623 138.218 177.141 137.871 176.515C137.524 175.888 137.35 175.156 137.35 174.317C137.35 173.479 137.519 172.746 137.856 172.12C138.203 171.494 138.685 171.012 139.302 170.674C139.919 170.337 140.627 170.168 141.427 170.168C142.207 170.168 142.901 170.332 143.508 170.66C144.116 170.988 144.588 171.455 144.925 172.062C145.272 172.669 145.446 173.378 145.446 174.187ZM142.916 173.537C142.916 173.113 142.771 172.775 142.482 172.525C142.193 172.274 141.832 172.149 141.398 172.149C140.983 172.149 140.632 172.269 140.343 172.51C140.063 172.751 139.89 173.093 139.822 173.537H142.916ZM157.043 170.197C158.045 170.197 158.84 170.501 159.428 171.108C160.025 171.715 160.324 172.558 160.324 173.638V178.351H157.867V173.97C157.867 173.45 157.727 173.05 157.447 172.77C157.177 172.481 156.802 172.337 156.32 172.337C155.838 172.337 155.457 172.481 155.178 172.77C154.908 173.05 154.773 173.45 154.773 173.97V178.351H152.315V173.97C152.315 173.45 152.176 173.05 151.896 172.77C151.626 172.481 151.25 172.337 150.769 172.337C150.287 172.337 149.906 172.481 149.626 172.77C149.357 173.05 149.222 173.45 149.222 173.97V178.351H146.75V170.284H149.222V171.296C149.472 170.959 149.8 170.694 150.205 170.501C150.61 170.298 151.067 170.197 151.578 170.197C152.185 170.197 152.725 170.327 153.197 170.588C153.679 170.848 154.055 171.219 154.325 171.701C154.604 171.257 154.985 170.896 155.467 170.617C155.949 170.337 156.474 170.197 157.043 170.197ZM164.525 171.426C164.766 171.05 165.098 170.747 165.522 170.515C165.946 170.284 166.443 170.168 167.011 170.168C167.676 170.168 168.279 170.337 168.818 170.674C169.358 171.012 169.782 171.494 170.091 172.12C170.409 172.746 170.568 173.474 170.568 174.303C170.568 175.132 170.409 175.864 170.091 176.5C169.782 177.127 169.358 177.613 168.818 177.96C168.279 178.298 167.676 178.466 167.011 178.466C166.452 178.466 165.956 178.351 165.522 178.119C165.098 177.888 164.766 177.589 164.525 177.223V182.196H162.053V170.284H164.525V171.426ZM168.052 174.303C168.052 173.686 167.879 173.204 167.532 172.857C167.195 172.501 166.775 172.322 166.274 172.322C165.783 172.322 165.363 172.501 165.016 172.857C164.679 173.214 164.51 173.701 164.51 174.317C164.51 174.934 164.679 175.421 165.016 175.777C165.363 176.134 165.783 176.312 166.274 176.312C166.766 176.312 167.185 176.134 167.532 175.777C167.879 175.411 168.052 174.92 168.052 174.303ZM174.336 171.628C174.626 171.185 174.987 170.838 175.421 170.588C175.854 170.327 176.336 170.197 176.866 170.197V172.814H176.187C175.57 172.814 175.107 172.949 174.799 173.219C174.491 173.479 174.336 173.941 174.336 174.606V178.351H171.864V170.284H174.336V171.628ZM185.652 174.187C185.652 174.419 185.637 174.659 185.608 174.91H180.014C180.052 175.411 180.212 175.797 180.491 176.067C180.78 176.327 181.132 176.457 181.546 176.457C182.163 176.457 182.592 176.197 182.833 175.676H185.464C185.329 176.206 185.083 176.683 184.727 177.107C184.38 177.531 183.941 177.864 183.411 178.105C182.881 178.346 182.288 178.466 181.633 178.466C180.843 178.466 180.139 178.298 179.522 177.96C178.906 177.623 178.424 177.141 178.077 176.515C177.73 175.888 177.556 175.156 177.556 174.317C177.556 173.479 177.725 172.746 178.062 172.12C178.409 171.494 178.891 171.012 179.508 170.674C180.125 170.337 180.833 170.168 181.633 170.168C182.414 170.168 183.108 170.332 183.715 170.66C184.322 170.988 184.794 171.455 185.131 172.062C185.478 172.669 185.652 173.378 185.652 174.187ZM183.122 173.537C183.122 173.113 182.977 172.775 182.688 172.525C182.399 172.274 182.038 172.149 181.604 172.149C181.19 172.149 180.838 172.269 180.549 172.51C180.269 172.751 180.096 173.093 180.028 173.537H183.122ZM190.238 178.466C189.534 178.466 188.908 178.346 188.358 178.105C187.809 177.864 187.375 177.536 187.057 177.122C186.739 176.698 186.561 176.226 186.522 175.705H188.965C188.994 175.985 189.124 176.211 189.356 176.385C189.587 176.558 189.871 176.645 190.209 176.645C190.517 176.645 190.753 176.587 190.917 176.471C191.09 176.346 191.177 176.187 191.177 175.994C191.177 175.763 191.057 175.594 190.816 175.488C190.575 175.373 190.185 175.247 189.645 175.112C189.067 174.977 188.585 174.838 188.199 174.693C187.814 174.539 187.481 174.303 187.202 173.985C186.922 173.657 186.782 173.219 186.782 172.669C186.782 172.207 186.908 171.787 187.158 171.412C187.419 171.026 187.794 170.723 188.286 170.501C188.787 170.279 189.38 170.168 190.064 170.168C191.076 170.168 191.871 170.419 192.449 170.92C193.037 171.421 193.374 172.086 193.461 172.915H191.177C191.139 172.636 191.013 172.414 190.801 172.25C190.599 172.086 190.329 172.004 189.992 172.004C189.703 172.004 189.481 172.062 189.327 172.178C189.173 172.284 189.095 172.433 189.095 172.626C189.095 172.857 189.216 173.031 189.457 173.146C189.707 173.262 190.093 173.378 190.613 173.493C191.211 173.648 191.698 173.802 192.073 173.956C192.449 174.1 192.777 174.341 193.056 174.679C193.346 175.006 193.495 175.45 193.505 176.009C193.505 176.481 193.37 176.905 193.1 177.281C192.84 177.647 192.459 177.936 191.958 178.148C191.466 178.36 190.893 178.466 190.238 178.466ZM194.525 174.303C194.525 173.474 194.68 172.746 194.988 172.12C195.306 171.494 195.735 171.012 196.275 170.674C196.814 170.337 197.417 170.168 198.082 170.168C198.65 170.168 199.147 170.284 199.571 170.515C200.004 170.747 200.337 171.05 200.568 171.426V170.284H203.04V178.351H200.568V177.209C200.327 177.584 199.99 177.888 199.556 178.119C199.132 178.351 198.636 178.466 198.067 178.466C197.412 178.466 196.814 178.298 196.275 177.96C195.735 177.613 195.306 177.127 194.988 176.5C194.68 175.864 194.525 175.132 194.525 174.303ZM200.568 174.317C200.568 173.701 200.395 173.214 200.048 172.857C199.71 172.501 199.296 172.322 198.804 172.322C198.313 172.322 197.894 172.501 197.547 172.857C197.209 173.204 197.041 173.686 197.041 174.303C197.041 174.92 197.209 175.411 197.547 175.777C197.894 176.134 198.313 176.312 198.804 176.312C199.296 176.312 199.71 176.134 200.048 175.777C200.395 175.421 200.568 174.934 200.568 174.317Z" fill="white"/>
<rect x="8" y="249.913" width="227.694" height="92.7887" rx="10.0559" fill="#756EF2"/>
<circle cx="60.5623" cy="296.307" r="22.3944" fill="white"/>
<path d="M53.1232 290.697C53.1983 288.689 53.8551 287.14 55.0938 286.052C56.3324 284.963 58.0121 284.419 60.1328 284.419C61.5404 284.419 62.7415 284.663 63.7361 285.151C64.7496 285.639 65.5097 286.305 66.0164 287.15C66.5419 287.994 66.8046 288.942 66.8046 289.993C66.8046 291.232 66.4949 292.245 65.8756 293.033C65.2563 293.803 64.5338 294.328 63.708 294.61V294.722C64.7777 295.079 65.6223 295.67 66.2416 296.496C66.8609 297.322 67.1706 298.382 67.1706 299.677C67.1706 300.841 66.8984 301.873 66.3542 302.774C65.8287 303.656 65.0499 304.35 64.0177 304.857C63.0042 305.364 61.7937 305.617 60.3862 305.617C58.1341 305.617 56.3324 305.063 54.9812 303.956C53.6487 302.849 52.9449 301.178 52.8698 298.945H57.5429C57.5617 299.771 57.7963 300.428 58.2467 300.916C58.6971 301.385 59.354 301.619 60.2173 301.619C60.9492 301.619 61.5122 301.413 61.9063 301C62.3192 300.568 62.5257 300.005 62.5257 299.311C62.5257 298.41 62.2348 297.763 61.653 297.369C61.0899 296.956 60.1797 296.749 58.9223 296.749H58.0215V292.836H58.9223C59.8795 292.836 60.6489 292.677 61.2307 292.358C61.8313 292.02 62.1315 291.429 62.1315 290.584C62.1315 289.909 61.9439 289.383 61.5685 289.008C61.1932 288.632 60.6771 288.445 60.0202 288.445C59.307 288.445 58.7722 288.661 58.4156 289.092C58.0778 289.524 57.8807 290.059 57.8244 290.697H53.1232Z" fill="#756EF2"/>
<path d="M105.502 301.307H103.03L98.8956 295.047V301.307H96.4236V291.159H98.8956L103.03 297.447V291.159H105.502V301.307ZM108.537 292.402C108.104 292.402 107.747 292.277 107.467 292.026C107.198 291.766 107.063 291.448 107.063 291.072C107.063 290.686 107.198 290.368 107.467 290.118C107.747 289.858 108.104 289.727 108.537 289.727C108.961 289.727 109.308 289.858 109.578 290.118C109.858 290.368 109.997 290.686 109.997 291.072C109.997 291.448 109.858 291.766 109.578 292.026C109.308 292.277 108.961 292.402 108.537 292.402ZM109.766 293.24V301.307H107.294V293.24H109.766ZM115.186 298.994L116.935 293.24H119.566L116.704 301.307H113.654L110.791 293.24H113.437L115.186 298.994ZM128.211 297.144C128.211 297.375 128.196 297.616 128.167 297.866H122.573C122.611 298.367 122.77 298.753 123.05 299.023C123.339 299.283 123.691 299.413 124.105 299.413C124.722 299.413 125.151 299.153 125.392 298.632H128.023C127.888 299.163 127.642 299.64 127.285 300.064C126.938 300.488 126.5 300.82 125.97 301.061C125.44 301.302 124.847 301.423 124.192 301.423C123.402 301.423 122.698 301.254 122.081 300.917C121.464 300.579 120.983 300.097 120.636 299.471C120.289 298.845 120.115 298.112 120.115 297.274C120.115 296.435 120.284 295.703 120.621 295.076C120.968 294.45 121.45 293.968 122.067 293.631C122.684 293.293 123.392 293.125 124.192 293.125C124.972 293.125 125.666 293.289 126.273 293.616C126.881 293.944 127.353 294.411 127.69 295.018C128.037 295.626 128.211 296.334 128.211 297.144ZM125.681 296.493C125.681 296.069 125.536 295.732 125.247 295.481C124.958 295.23 124.597 295.105 124.163 295.105C123.748 295.105 123.397 295.226 123.108 295.467C122.828 295.708 122.655 296.05 122.587 296.493H125.681ZM131.987 290.609V301.307H129.515V290.609H131.987ZM139.314 294.382C139.555 294.007 139.887 293.703 140.311 293.472C140.735 293.24 141.232 293.125 141.8 293.125C142.465 293.125 143.067 293.293 143.607 293.631C144.147 293.968 144.571 294.45 144.879 295.076C145.197 295.703 145.356 296.43 145.356 297.259C145.356 298.088 145.197 298.82 144.879 299.456C144.571 300.083 144.147 300.57 143.607 300.917C143.067 301.254 142.465 301.423 141.8 301.423C141.241 301.423 140.745 301.307 140.311 301.076C139.887 300.844 139.555 300.546 139.314 300.179V305.152H136.842V293.24H139.314V294.382ZM142.841 297.259C142.841 296.642 142.667 296.16 142.321 295.814C141.983 295.457 141.564 295.279 141.063 295.279C140.571 295.279 140.152 295.457 139.805 295.814C139.468 296.17 139.299 296.657 139.299 297.274C139.299 297.89 139.468 298.377 139.805 298.734C140.152 299.09 140.571 299.269 141.063 299.269C141.554 299.269 141.974 299.09 142.321 298.734C142.667 298.367 142.841 297.876 142.841 297.259ZM149.125 294.585C149.414 294.141 149.776 293.794 150.209 293.544C150.643 293.284 151.125 293.154 151.655 293.154V295.77H150.976C150.359 295.77 149.896 295.905 149.588 296.175C149.279 296.435 149.125 296.898 149.125 297.563V301.307H146.653V293.24H149.125V294.585ZM156.508 301.423C155.718 301.423 155.005 301.254 154.369 300.917C153.743 300.579 153.246 300.097 152.88 299.471C152.523 298.845 152.345 298.112 152.345 297.274C152.345 296.445 152.528 295.717 152.894 295.091C153.261 294.455 153.762 293.968 154.398 293.631C155.034 293.293 155.747 293.125 156.537 293.125C157.328 293.125 158.041 293.293 158.677 293.631C159.313 293.968 159.814 294.455 160.18 295.091C160.547 295.717 160.73 296.445 160.73 297.274C160.73 298.102 160.542 298.835 160.166 299.471C159.8 300.097 159.294 300.579 158.648 300.917C158.012 301.254 157.299 301.423 156.508 301.423ZM156.508 299.283C156.981 299.283 157.381 299.11 157.708 298.763C158.046 298.416 158.214 297.919 158.214 297.274C158.214 296.628 158.05 296.132 157.723 295.785C157.405 295.438 157.01 295.264 156.537 295.264C156.056 295.264 155.656 295.438 155.338 295.785C155.02 296.122 154.86 296.618 154.86 297.274C154.86 297.919 155.015 298.416 155.323 298.763C155.641 299.11 156.036 299.283 156.508 299.283ZM161.55 297.259C161.55 296.43 161.704 295.703 162.012 295.076C162.33 294.45 162.759 293.968 163.299 293.631C163.839 293.293 164.441 293.125 165.106 293.125C165.636 293.125 166.118 293.236 166.551 293.457C166.995 293.679 167.342 293.978 167.592 294.353V290.609H170.064V301.307H167.592V300.15C167.361 300.536 167.029 300.844 166.595 301.076C166.171 301.307 165.674 301.423 165.106 301.423C164.441 301.423 163.839 301.254 163.299 300.917C162.759 300.57 162.33 300.083 162.012 299.456C161.704 298.82 161.55 298.088 161.55 297.259ZM167.592 297.274C167.592 296.657 167.419 296.17 167.072 295.814C166.735 295.457 166.32 295.279 165.829 295.279C165.337 295.279 164.918 295.457 164.571 295.814C164.234 296.16 164.065 296.642 164.065 297.259C164.065 297.876 164.234 298.367 164.571 298.734C164.918 299.09 165.337 299.269 165.829 299.269C166.32 299.269 166.735 299.09 167.072 298.734C167.419 298.377 167.592 297.89 167.592 297.274ZM179.818 293.24V301.307H177.346V300.208C177.095 300.565 176.753 300.854 176.32 301.076C175.896 301.288 175.423 301.394 174.903 301.394C174.286 301.394 173.742 301.259 173.269 300.989C172.797 300.709 172.431 300.309 172.171 299.789C171.911 299.269 171.78 298.657 171.78 297.953V293.24H174.238V297.621C174.238 298.16 174.378 298.579 174.657 298.878C174.937 299.177 175.313 299.326 175.785 299.326C176.267 299.326 176.647 299.177 176.927 298.878C177.206 298.579 177.346 298.16 177.346 297.621V293.24H179.818ZM181.102 297.274C181.102 296.435 181.271 295.703 181.608 295.076C181.955 294.45 182.432 293.968 183.039 293.631C183.656 293.293 184.36 293.125 185.15 293.125C186.162 293.125 187.005 293.39 187.68 293.92C188.364 294.45 188.812 295.197 189.024 296.16H186.393C186.171 295.544 185.743 295.235 185.107 295.235C184.654 295.235 184.292 295.414 184.022 295.77C183.752 296.117 183.618 296.618 183.618 297.274C183.618 297.929 183.752 298.435 184.022 298.792C184.292 299.138 184.654 299.312 185.107 299.312C185.743 299.312 186.171 299.004 186.393 298.387H189.024C188.812 299.331 188.364 300.073 187.68 300.613C186.995 301.153 186.152 301.423 185.15 301.423C184.36 301.423 183.656 301.254 183.039 300.917C182.432 300.579 181.955 300.097 181.608 299.471C181.271 298.845 181.102 298.112 181.102 297.274ZM194.842 299.211V301.307H193.585C192.688 301.307 191.99 301.09 191.488 300.656C190.987 300.213 190.737 299.495 190.737 298.502V295.293H189.754V293.24H190.737V291.274H193.209V293.24H194.828V295.293H193.209V298.531C193.209 298.772 193.267 298.946 193.382 299.052C193.498 299.158 193.691 299.211 193.961 299.211H194.842ZM199.891 301.423C199.101 301.423 198.388 301.254 197.752 300.917C197.125 300.579 196.629 300.097 196.263 299.471C195.906 298.845 195.728 298.112 195.728 297.274C195.728 296.445 195.911 295.717 196.277 295.091C196.643 294.455 197.144 293.968 197.781 293.631C198.417 293.293 199.13 293.125 199.92 293.125C200.71 293.125 201.424 293.293 202.06 293.631C202.696 293.968 203.197 294.455 203.563 295.091C203.929 295.717 204.112 296.445 204.112 297.274C204.112 298.102 203.924 298.835 203.549 299.471C203.182 300.097 202.676 300.579 202.031 300.917C201.395 301.254 200.681 301.423 199.891 301.423ZM199.891 299.283C200.363 299.283 200.763 299.11 201.091 298.763C201.428 298.416 201.597 297.919 201.597 297.274C201.597 296.628 201.433 296.132 201.105 295.785C200.787 295.438 200.392 295.264 199.92 295.264C199.438 295.264 199.038 295.438 198.72 295.785C198.402 296.122 198.243 296.618 198.243 297.274C198.243 297.919 198.397 298.416 198.706 298.763C199.024 299.11 199.419 299.283 199.891 299.283Z" fill="white"/>
</g>
<defs>
<filter id="filter0_d_1526_5018" x="0" y="0" width="243.695" height="354.701" filterUnits="userSpaceOnUse" color-interpolation-filters="sRGB">
<feFlood flood-opacity="0" result="BackgroundImageFix"/>
<feColorMatrix in="SourceAlpha" type="matrix" values="0 0 0 0 0 0 0 0 0 0 0 0 0 0 0 0 0 0 127 0" result="hardAlpha"/>
<feOffset dy="4"/>
<feGaussianBlur stdDeviation="4"/>
<feComposite in2="hardAlpha" operator="out"/>
<feColorMatrix type="matrix" values="0 0 0 0 0 0 0 0 0 0 0 0 0 0 0 0 0 0 0.1 0"/>
<feBlend mode="normal" in2="BackgroundImageFix" result="effect1_dropShadow_1526_5018"/>
<feBlend mode="normal" in="SourceGraphic" in2="effect1_dropShadow_1526_5018" result="shape"/>
</filter>
</defs>
</svg>
