<svg width="205" height="61" viewBox="0 0 205 61" fill="none" xmlns="http://www.w3.org/2000/svg">
<path fill-rule="evenodd" clip-rule="evenodd" d="M29.5626 10.0088C29.5626 10.0088 28.615 9.87354 26.7199 9.87354C24.8248 9.82845 23.8773 10.0088 23.8773 10.0088L23.7825 8.70134L25.0617 8.56608L24.6353 2.07389H22.7402V0.270508C22.7402 0.270508 23.0719 0 26.7673 0C30.4627 0 30.7944 0.270508 30.7944 0.270508V2.07389H28.8993L28.4255 8.61117L29.7047 8.74642L29.5626 10.0088Z" fill="white"/>
<path fill-rule="evenodd" clip-rule="evenodd" d="M23.1217 10.1878C23.1217 10.1878 22.1742 10.4132 20.4686 11.0895C18.7156 11.7657 17.8628 12.2617 17.8628 12.2617L17.2469 11.0895L18.384 10.5484L15.3518 4.68744L13.5515 5.4088L12.8408 3.74066C12.8408 3.74066 13.0777 3.37999 16.4415 2.02745C19.8527 0.719993 20.2317 0.810163 20.2317 0.810163L20.9423 2.47829L19.142 3.15456L21.3687 9.37624L22.6005 8.97048L23.1217 10.1878Z" fill="white"/>
<path fill-rule="evenodd" clip-rule="evenodd" d="M17.2457 12.7135C17.2457 12.7135 16.4877 13.2545 15.1611 14.5168C13.8346 15.7792 13.2661 16.5457 13.2661 16.5457L12.2238 15.689L13.0765 14.7423L7.91242 10.4141L6.53848 11.7216L5.21191 10.4592C5.21191 10.4592 5.25929 10.0084 7.86504 7.57381C10.4708 5.09416 10.8972 5.04907 10.8972 5.04907L12.2238 6.31144L10.8498 7.6189L15.398 12.5331L16.393 11.7216L17.2457 12.7135Z" fill="white"/>
<path fill-rule="evenodd" clip-rule="evenodd" d="M12.8405 17.1311C12.8405 17.1311 12.3194 17.9426 11.6087 19.5657C10.8507 21.1887 10.6612 22.1355 10.6612 22.1355L9.382 21.7297L9.76102 20.5125L3.22295 18.4386L2.46492 20.1518L0.711956 19.4755C0.711956 19.4755 0.569824 19.0697 1.99114 15.8236C3.41246 12.5776 3.79148 12.3972 3.79148 12.3972L5.54444 13.0735L4.83378 14.7416L10.9928 17.627L11.6087 16.4999L12.8405 17.1311Z" fill="white"/>
<path fill-rule="evenodd" clip-rule="evenodd" d="M10.5178 22.8136C10.5178 22.8136 10.3756 23.7153 10.3756 25.5186C10.3756 27.322 10.5178 28.2237 10.5178 28.2237L9.14382 28.3139L9.00169 27.0966L2.17936 27.5024V29.3057H0.284264C0.284264 29.3057 0 28.9902 0 25.4736C0 21.9569 0.284264 21.6414 0.284264 21.6414H2.17936V23.4898L9.04906 23.9407L9.1912 22.7234L10.5178 22.8136Z" fill="white"/>
<path fill-rule="evenodd" clip-rule="evenodd" d="M10.6612 28.9441C10.6612 28.9441 10.8981 29.8458 11.6087 31.4237C12.272 33.0919 12.8405 33.9034 12.8405 33.9034L11.6087 34.4895L10.9928 33.4075L4.83378 36.2929L5.54444 37.961L3.79148 38.6373C3.79148 38.6373 3.41246 38.4119 1.99114 35.2109C0.569824 31.9648 0.711956 31.6041 0.711956 31.6041L2.46492 30.9278L3.22295 32.641L9.71364 30.5671L9.33462 29.3949L10.6612 28.9441Z" fill="white"/>
<path fill-rule="evenodd" clip-rule="evenodd" d="M13.2666 34.4883C13.2666 34.4883 13.8351 35.2096 15.1617 36.5171C16.4882 37.7795 17.2936 38.3205 17.2936 38.3205L16.3935 39.3574L15.3985 38.5459L10.8503 43.4601L12.2243 44.7676L10.8977 46.0299C10.8977 46.0299 10.4239 45.9849 7.86555 43.5052C5.21242 40.9805 5.16504 40.5747 5.16504 40.5747L6.4916 39.3123L7.86555 40.6198L13.0297 36.2917L12.1769 35.3449L13.2666 34.4883Z" fill="white"/>
<path fill-rule="evenodd" clip-rule="evenodd" d="M17.9097 38.7725C17.9097 38.7725 18.7151 39.2233 20.4207 39.8996C22.1736 40.6209 23.1212 40.8013 23.1212 40.8013L22.6474 42.0186L21.4156 41.6579L19.2363 47.8345L21.0366 48.5558L20.2786 50.224C20.2786 50.224 19.8522 50.3592 16.4884 49.0067C13.0772 47.6992 12.8877 47.3385 12.8877 47.3385L13.5984 45.6704L15.3513 46.3918L18.3835 40.5308L17.199 39.9447L17.9097 38.7725Z" fill="white"/>
<path fill-rule="evenodd" clip-rule="evenodd" d="M23.9247 40.9824C23.9247 40.9824 24.8722 41.1177 26.7199 41.1177C28.615 41.1628 29.5626 40.9824 29.5626 40.9824L29.7047 42.2899L28.3781 42.38L28.8519 48.9173H30.7944V50.7207C30.7944 50.7207 30.4627 50.9461 26.7673 50.9461C23.0719 50.9461 22.7402 50.7207 22.7402 50.7207V48.9173H24.6353L25.1091 42.38L23.8299 42.2899L23.9247 40.9824Z" fill="white"/>
<path fill-rule="evenodd" clip-rule="evenodd" d="M30.3691 40.8464C30.3691 40.8464 31.3167 40.6209 33.0696 39.9447C34.8226 39.2684 35.628 38.7725 35.628 38.7725L36.2913 39.9447L35.1069 40.4857L38.139 46.3467L39.892 45.6253L40.6026 47.2935C40.6026 47.2935 40.4131 47.6541 37.002 49.0067C33.5908 50.3141 33.2118 50.224 33.2118 50.224L32.5011 48.5558L34.3015 47.8795L32.1221 41.6579L30.7955 42.1087L30.3691 40.8464Z" fill="white"/>
<path fill-rule="evenodd" clip-rule="evenodd" d="M36.3389 38.3676C36.3389 38.3676 37.0969 37.8266 38.4235 36.5642C39.75 35.3018 40.3186 34.5354 40.3186 34.5354L41.3609 35.392L40.5081 36.3388L45.6722 40.6218L47.0461 39.3144L48.3727 40.5767C48.3727 40.5767 48.3253 41.0276 45.7196 43.4622C43.1138 45.9418 42.6874 45.9869 42.6874 45.9869L41.3609 44.7245L42.7348 43.4171L38.234 38.5029L37.239 39.3144L36.3389 38.3676Z" fill="white"/>
<path fill-rule="evenodd" clip-rule="evenodd" d="M40.793 33.9034C40.793 33.9034 41.2667 33.0919 42.0248 31.4688C42.7828 29.8909 42.9723 28.9441 42.9723 28.9441L44.2989 29.3499L43.9199 30.5221L50.4106 32.596L51.1686 30.8827L52.8742 31.559C52.8742 31.559 53.0163 31.9648 51.595 35.1658C50.1737 38.4119 49.7946 38.5922 49.7946 38.5922L48.0417 37.9159L48.7997 36.2027L42.6407 33.3173L42.0248 34.4444L40.793 33.9034Z" fill="white"/>
<path fill-rule="evenodd" clip-rule="evenodd" d="M43.1113 28.1789C43.1113 28.1789 43.2535 27.2772 43.2535 25.4738C43.2535 23.6704 43.1113 22.7687 43.1113 22.7687L44.4853 22.6785L44.6274 23.8958L51.4971 23.445V21.6416H53.3922C53.3922 21.6416 53.6765 21.9572 53.6765 25.4738C53.6765 28.9904 53.3922 29.306 53.3922 29.306H51.4971V27.5026L44.6274 27.0518L44.4853 28.269L43.1113 28.1789Z" fill="white"/>
<path fill-rule="evenodd" clip-rule="evenodd" d="M42.9254 22.0011C42.9254 22.0011 42.6886 21.0994 41.9779 19.4764C41.2672 17.8083 40.7461 16.9967 40.7461 16.9967L41.9779 16.4106L42.5464 17.5378L48.7055 14.6523L47.9474 12.9391L49.7004 12.2178C49.7004 12.2178 50.0794 12.4432 51.5007 15.6442C52.9221 18.8903 52.7799 19.2961 52.7799 19.2961L51.027 19.9723L50.2689 18.2591L43.7782 20.3781L44.1573 21.5503L42.9254 22.0011Z" fill="white"/>
<path fill-rule="evenodd" clip-rule="evenodd" d="M40.2717 16.4113C40.2717 16.4113 39.7032 15.6899 38.3766 14.3825C37.05 13.1201 36.292 12.5791 36.292 12.5791L37.1448 11.5422L38.1397 12.3537L42.6406 7.43945L41.2666 6.132L42.5932 4.86963C42.5932 4.86963 43.0669 4.91471 45.6253 7.39437C48.2311 9.87402 48.2785 10.2798 48.2785 10.2798L46.9519 11.5422L45.5779 10.2347L40.4138 14.5177L41.2666 15.4645L40.2717 16.4113Z" fill="white"/>
<path fill-rule="evenodd" clip-rule="evenodd" d="M35.5811 12.1735C35.5811 12.1735 34.7284 11.7227 33.0228 11.0013C31.3172 10.28 30.3223 10.0996 30.3223 10.0996L30.7487 8.88234L32.0278 9.24302L34.2072 3.06642L32.4069 2.34507L33.1649 0.722019C33.1649 0.722019 33.5913 0.586765 36.9551 1.9393C40.4136 3.24676 40.6031 3.60744 40.6031 3.60744L39.8925 5.27557L38.0921 4.55421L35.06 10.4152L36.1971 10.9562L35.5811 12.1735Z" fill="white"/>
<path fill-rule="evenodd" clip-rule="evenodd" d="M19.4734 18.9355C19.4734 18.9355 19.0944 19.3413 18.4311 20.243C17.7678 21.1447 17.5783 21.6406 17.5783 21.6406L16.8203 21.2349L17.1993 20.6037L13.5513 18.62L12.888 19.5216L11.9404 18.8905C11.9404 18.8905 11.9404 18.665 13.1722 16.8617C14.4514 15.0583 14.6883 15.0132 14.6883 15.0132L15.6359 15.6444L14.9726 16.5461L18.289 18.9806L18.8101 18.3945L19.4734 18.9355Z" fill="white"/>
<path fill-rule="evenodd" clip-rule="evenodd" d="M17.3402 22.0922C17.3402 22.0922 17.1507 22.6332 16.9138 23.6702C16.6769 24.7522 16.6769 25.2932 16.6769 25.2932L15.8715 25.2481L15.9189 24.5268L11.7971 23.9858L11.5602 25.1129L10.4231 24.8875C10.4231 24.8875 10.281 24.662 10.7074 22.5431C11.1812 20.4692 11.3707 20.2888 11.3707 20.2888L12.5077 20.4692L12.2708 21.5963L16.3453 22.6332L16.5348 21.9119L17.3402 22.0922Z" fill="white"/>
<path fill-rule="evenodd" clip-rule="evenodd" d="M16.7255 25.7878C16.7255 25.7878 16.7728 26.3289 16.9623 27.4109C17.1519 28.4929 17.3887 28.9889 17.3887 28.9889L16.5833 29.2594L16.3464 28.538L12.3194 29.575L12.5563 30.657L11.4192 30.8824C11.4192 30.8824 11.2297 30.7472 10.7559 28.6733C10.2822 26.5543 10.4243 26.3289 10.4243 26.3289L11.5613 26.1034L11.7982 27.2306L15.9674 26.6895L15.8727 25.9231L16.7255 25.7878Z" fill="white"/>
<path fill-rule="evenodd" clip-rule="evenodd" d="M17.5785 29.4392C17.5785 29.4392 17.8154 29.9351 18.4313 30.8368C19.0946 31.7385 19.521 32.1443 19.521 32.1443L18.8577 32.6402L18.3839 32.0541L15.0675 34.4887L15.7308 35.3904L14.7833 36.0216C14.7833 36.0216 14.5464 35.9765 13.2672 34.1731C11.988 32.3697 12.0354 32.1443 12.0354 32.1443L12.9829 31.5131L13.6462 32.4148L17.2469 30.4311L16.8679 29.7548L17.5785 29.4392Z" fill="white"/>
<path fill-rule="evenodd" clip-rule="evenodd" d="M19.8513 32.4597C19.8513 32.4597 20.3251 32.8204 21.2253 33.4516C22.1728 34.0828 22.694 34.2631 22.694 34.2631L22.3149 34.9845L21.6043 34.6238L19.5197 38.0953L20.5146 38.7265L19.8513 39.6282C19.8513 39.6282 19.6144 39.6733 17.7193 38.456C15.8242 37.2387 15.7295 37.0133 15.7295 37.0133L16.3928 36.1116L17.3403 36.7428L19.8987 33.5868L19.2828 33.0909L19.8513 32.4597Z" fill="white"/>
<path fill-rule="evenodd" clip-rule="evenodd" d="M23.1695 34.4883C23.1695 34.4883 23.738 34.6686 24.8277 34.894C25.9174 35.1195 26.5333 35.1195 26.5333 35.1195L26.4385 35.931L25.6331 35.8408L25.112 39.8083L26.249 40.0337L26.0595 41.0706C26.0595 41.0706 25.8226 41.2059 23.6433 40.755C21.4165 40.3493 21.2744 40.1239 21.2744 40.1239L21.5113 39.0418L22.6957 39.2673L23.7854 35.4351L23.0274 35.2096L23.1695 34.4883Z" fill="white"/>
<path fill-rule="evenodd" clip-rule="evenodd" d="M27.0527 35.1211C27.0527 35.1211 27.6213 35.076 28.7583 34.8957C29.8954 34.6702 30.4165 34.4448 30.4165 34.4448L30.6534 35.2113L29.8954 35.4367L30.9851 39.314L32.1695 39.0885L32.4064 40.1255C32.4064 40.1255 32.2169 40.3509 29.9901 40.7567C27.8108 41.2075 27.5739 41.0723 27.5739 41.0723L27.337 39.9902L28.4741 39.7648L27.9055 35.7974L27.1475 35.8875L27.0527 35.1211Z" fill="white"/>
<path fill-rule="evenodd" clip-rule="evenodd" d="M30.8887 34.3082C30.8887 34.3082 31.4098 34.0828 32.3574 33.4967C33.3049 32.8655 33.7313 32.4597 33.7313 32.4597L34.2525 33.0909L33.6366 33.5417L36.1949 36.6977L37.1425 36.0665L37.8058 36.9682C37.8058 36.9682 37.7584 37.1936 35.8633 38.4109C33.9682 39.6282 33.7313 39.5831 33.7313 39.5831L33.068 38.6814L34.0156 38.0502L31.931 34.6238L31.2677 35.0295L30.8887 34.3082Z" fill="white"/>
<path fill-rule="evenodd" clip-rule="evenodd" d="M34.1104 32.1443C34.1104 32.1443 34.4894 31.6934 35.1527 30.8368C35.8159 29.9802 36.0054 29.4392 36.0054 29.4392L36.7635 29.7999L36.3845 30.4762L40.0325 32.4599L40.6958 31.5582L41.6433 32.1443C41.6433 32.1443 41.6433 32.4148 40.4115 34.1731C39.1323 35.9765 38.8955 36.0666 38.8955 36.0666L37.9479 35.4355L38.6112 34.5338L35.2948 32.0992L34.7736 32.6853L34.1104 32.1443Z" fill="white"/>
<path fill-rule="evenodd" clip-rule="evenodd" d="M36.2451 29.0339C36.2451 29.0339 36.4346 28.4929 36.6715 27.456C36.9084 26.3739 36.9084 25.7878 36.9084 25.7878L37.7138 25.878L37.6664 26.6444L41.8356 27.1855L42.0725 26.0583L43.2096 26.2838C43.2096 26.2838 43.3043 26.5092 42.8779 28.6282C42.4042 30.7021 42.2147 30.8373 42.2147 30.8373L41.0776 30.6119L41.3145 29.5749L37.2874 28.538L37.0505 29.2594L36.2451 29.0339Z" fill="white"/>
<path fill-rule="evenodd" clip-rule="evenodd" d="M36.9558 25.2931C36.9558 25.2931 36.9084 24.752 36.7189 23.67C36.482 22.588 36.2451 22.092 36.2451 22.092L37.0505 21.8666L37.2874 22.588L41.3145 21.551L41.0776 20.4239L42.2147 20.1985C42.2147 20.1985 42.4042 20.3337 42.8779 22.4527C43.3517 24.5717 43.2096 24.7971 43.2096 24.7971L42.0725 25.0225L41.8356 23.8954L37.6664 24.4364L37.7612 25.2029L36.9558 25.2931Z" fill="white"/>
<path fill-rule="evenodd" clip-rule="evenodd" d="M36.0528 21.641C36.0528 21.641 35.8159 21.145 35.2 20.2433C34.5367 19.3416 34.1104 18.9359 34.1104 18.9359L34.7736 18.4399L35.2474 19.026L38.5638 16.5915L37.9005 15.6898L38.8481 15.0586C38.8481 15.0586 39.085 15.1037 40.3168 16.9071C41.596 18.7105 41.5486 18.9359 41.5486 18.9359L40.601 19.5671L39.9378 18.6654L36.3371 20.6491L36.7161 21.2803L36.0528 21.641Z" fill="white"/>
<path fill-rule="evenodd" clip-rule="evenodd" d="M33.7782 18.5303C33.7782 18.5303 33.3044 18.1696 32.4042 17.5384C31.4567 16.9072 30.9355 16.7269 30.9355 16.7269L31.3619 16.0055L32.0252 16.3662L34.1098 12.8947L33.1623 12.2635L33.8256 11.3618C33.8256 11.3618 34.0624 11.3618 35.9575 12.534C37.8526 13.7513 37.9 13.9767 37.9 13.9767L37.2367 14.8784L36.2892 14.2472L33.7308 17.4032L34.3467 17.8991L33.7782 18.5303Z" fill="white"/>
<path fill-rule="evenodd" clip-rule="evenodd" d="M30.417 16.5465C30.417 16.5465 29.8485 16.3662 28.7588 16.0957C27.6218 15.8703 27.0059 15.8703 27.0059 15.8703L27.1006 15.0587L27.906 15.1489L28.4746 11.1815L27.2901 10.956L27.527 9.874C27.527 9.874 27.7639 9.73875 29.9433 10.1896C32.17 10.5954 32.3121 10.7757 32.3121 10.7757L32.0752 11.8577L30.8908 11.6323L29.8011 15.5096L30.5592 15.735L30.417 16.5465Z" fill="white"/>
<path fill-rule="evenodd" clip-rule="evenodd" d="M26.5304 15.9152C26.5304 15.9152 25.9145 15.9603 24.8248 16.1406C23.6877 16.366 23.1666 16.5915 23.1666 16.5915L22.9297 15.825L23.6877 15.5996L22.5507 11.7223L21.4136 11.9477L21.1768 10.8657C21.1768 10.8657 21.3189 10.6854 23.5456 10.2345C25.725 9.82877 26.0092 9.96402 26.0092 9.96402L26.2461 11.0461L25.0617 11.2715L25.6302 15.1938L26.4356 15.1488L26.5304 15.9152Z" fill="white"/>
<path fill-rule="evenodd" clip-rule="evenodd" d="M22.6466 16.7715C22.6466 16.7715 22.1254 16.997 21.1779 17.5831C20.2303 18.2142 19.8039 18.62 19.8039 18.62L19.2828 17.9888L19.8987 17.538L17.3403 14.382L16.3928 15.0132L15.7295 14.1115C15.7295 14.1115 15.8242 13.8861 17.672 12.7139C19.5671 11.4966 19.8513 11.5417 19.8513 11.5417L20.4672 12.4434L19.5197 13.0746L21.6043 16.501L22.3149 16.1403L22.6466 16.7715Z" fill="white"/>
<path fill-rule="evenodd" clip-rule="evenodd" d="M21.5108 22.4065C21.5108 22.4065 21.3212 22.677 21.037 23.3082C20.7527 23.9394 20.7053 24.255 20.7053 24.255L20.2316 24.1197L20.3737 23.6689L17.9575 22.9024L17.6732 23.5336L17.0099 23.3082C17.0099 23.3082 16.9625 23.1729 17.4837 21.9556C18.0048 20.7384 18.147 20.6482 18.147 20.6482L18.8102 20.8736L18.526 21.5048L20.8475 22.5868L21.0844 22.136L21.5108 22.4065Z" fill="white"/>
<path fill-rule="evenodd" clip-rule="evenodd" d="M20.6559 24.5728C20.6559 24.5728 20.6086 24.9334 20.6086 25.5646C20.5612 26.2409 20.6559 26.6016 20.6559 26.6016L20.1348 26.6466L20.0874 26.1507L17.529 26.3311V27.0073H16.8184C16.8184 27.0073 16.7236 26.8721 16.7236 25.6097C16.7236 24.3022 16.8184 24.167 16.8184 24.167H17.529V24.7982L20.0874 24.9334L20.1348 24.4826L20.6559 24.5728Z" fill="white"/>
<path fill-rule="evenodd" clip-rule="evenodd" d="M20.7522 26.825C20.7522 26.825 20.7996 27.1856 21.1312 27.7717C21.3681 28.4029 21.605 28.6734 21.605 28.6734L21.1312 28.8988L20.8943 28.4931L18.5729 29.5751L18.8571 30.2063L18.1938 30.4768C18.1938 30.4768 18.0517 30.3866 17.5306 29.1694C17.0094 27.9521 17.0568 27.8168 17.0568 27.8168L17.7201 27.5463L18.0043 28.1775L20.4206 27.366L20.2784 26.9151L20.7522 26.825Z" fill="white"/>
<path fill-rule="evenodd" clip-rule="evenodd" d="M21.6987 28.9441C21.6987 28.9441 21.9356 29.2146 22.4093 29.6654C22.8831 30.1614 23.2147 30.3417 23.2147 30.3417L22.8357 30.7024L22.4567 30.4319L20.7511 32.2353L21.2723 32.6861L20.7985 33.182C20.7985 33.182 20.6564 33.137 19.6141 32.2353C18.6191 31.3336 18.6191 31.1532 18.6191 31.1532L19.0929 30.7024L19.6141 31.1532L21.5565 29.5753L21.3196 29.2597L21.6987 28.9441Z" fill="white"/>
<path fill-rule="evenodd" clip-rule="evenodd" d="M23.4508 30.5232C23.4508 30.5232 23.7824 30.6584 24.3983 30.929C25.0616 31.1995 25.3932 31.2446 25.3932 31.2446L25.2511 31.6954L24.7773 31.5601L23.9719 33.8595L24.6352 34.13L24.3509 34.7612C24.3509 34.7612 24.2088 34.8062 22.9296 34.3103C21.6504 33.8144 21.5557 33.6791 21.5557 33.6791L21.8399 33.0479L22.5032 33.3184L23.6403 31.1093L23.2139 30.929L23.4508 30.5232Z" fill="white"/>
<path fill-rule="evenodd" clip-rule="evenodd" d="M25.6803 31.2883C25.6803 31.2883 26.0593 31.3334 26.77 31.3334C27.4806 31.3334 27.8596 31.2883 27.8596 31.2883L27.907 31.7843L27.4332 31.8293L27.6227 34.309L28.3334 34.2639V34.9402C28.3334 34.9402 28.1913 35.0754 26.8173 35.0754C25.4434 35.0754 25.3486 34.9402 25.3486 34.9402V34.309H26.0593L26.2014 31.8293L25.7277 31.7843L25.6803 31.2883Z" fill="white"/>
<path fill-rule="evenodd" clip-rule="evenodd" d="M28.0938 31.2446C28.0938 31.2446 28.4254 31.1995 29.0887 30.929C29.752 30.7035 30.0362 30.5232 30.0362 30.5232L30.2731 30.929L29.8941 31.1093L31.0311 33.3184L31.6944 33.0479L31.9787 33.6791C31.9787 33.6791 31.8839 33.8144 30.6047 34.3103C29.3256 34.8062 29.1834 34.7612 29.1834 34.7612L28.8992 34.1751L29.5624 33.9045L28.7097 31.6052L28.2359 31.7405L28.0938 31.2446Z" fill="white"/>
<path fill-rule="evenodd" clip-rule="evenodd" d="M30.3223 30.3417C30.3223 30.3417 30.6065 30.1163 31.1277 29.6654C31.6015 29.2146 31.8383 28.9441 31.8383 28.9441L32.2174 29.2597L31.8857 29.6204L33.8282 31.1983L34.3493 30.7024L34.8231 31.1983C34.8231 31.1983 34.8231 31.3336 33.8756 32.2804C32.928 33.1821 32.7385 33.2271 32.7385 33.2271L32.2174 32.7312L32.7385 32.2353L31.0329 30.4319L30.6539 30.6573L30.3223 30.3417Z" fill="white"/>
<path fill-rule="evenodd" clip-rule="evenodd" d="M31.9795 28.6731C31.9795 28.6731 32.169 28.3575 32.4533 27.7714C32.7375 27.1402 32.8323 26.7795 32.8323 26.7795L33.3061 26.9148L33.1639 27.3656L35.5802 28.1321L35.8644 27.5009L36.5277 27.7263C36.5277 27.7263 36.5751 27.8616 36.0539 29.0789C35.5328 30.2961 35.3906 30.3863 35.3906 30.3863L34.7274 30.206L35.0116 29.5748L32.6901 28.4928L32.4533 28.8985L31.9795 28.6731Z" fill="white"/>
<path fill-rule="evenodd" clip-rule="evenodd" d="M32.8789 26.5544C32.8789 26.5544 32.9263 26.1938 32.9263 25.5626C32.9263 24.8863 32.8789 24.5256 32.8789 24.5256L33.4001 24.4805L33.4474 24.9314L36.0058 24.7961V24.1199H36.7165C36.7165 24.1199 36.8112 24.2551 36.8112 25.5175C36.8112 26.825 36.7165 26.9602 36.7165 26.9602H36.0058V26.2839L33.4001 26.1036L33.3527 26.5544H32.8789Z" fill="white"/>
<path fill-rule="evenodd" clip-rule="evenodd" d="M32.8323 24.2109C32.8323 24.2109 32.7375 23.8503 32.4533 23.2642C32.169 22.633 31.9795 22.3625 31.9795 22.3625L32.4533 22.137L32.6902 22.5879L34.9643 21.4608L34.68 20.8296L35.3433 20.5591C35.3433 20.5591 35.4854 20.6493 36.0066 21.8665C36.5751 23.0838 36.4803 23.2191 36.4803 23.2191L35.817 23.4896L35.5328 22.8584L33.1639 23.6699L33.3061 24.1208L32.8323 24.2109Z" fill="white"/>
<path fill-rule="evenodd" clip-rule="evenodd" d="M31.8378 22.0922C31.8378 22.0922 31.601 21.8668 31.1272 21.3709C30.6534 20.92 30.3691 20.6946 30.3691 20.6946L30.7008 20.3339L31.0798 20.6495L32.7854 18.801L32.2169 18.3051L32.6906 17.8542C32.6906 17.8542 32.8328 17.8542 33.8751 18.7559C34.8226 19.6576 34.8226 19.838 34.8226 19.838L34.3488 20.3339L33.8277 19.838L31.8852 21.461L32.2169 21.8217L31.8378 22.0922Z" fill="white"/>
<path fill-rule="evenodd" clip-rule="evenodd" d="M30.0362 20.5592C30.0362 20.5592 29.752 20.3788 29.0887 20.1083C28.4254 19.8378 28.0938 19.7476 28.0938 19.7476L28.2359 19.2968L28.7097 19.4321L29.5151 17.1327L28.8992 16.8622L29.1361 16.231C29.1361 16.231 29.2782 16.186 30.5574 16.6819C31.8366 17.1778 31.9313 17.3131 31.9313 17.3131L31.6944 17.9443L31.0311 17.6738L29.8467 19.8829L30.3205 20.1083L30.0362 20.5592Z" fill="white"/>
<path fill-rule="evenodd" clip-rule="evenodd" d="M27.8094 19.7026C27.8094 19.7026 27.4303 19.6576 26.7671 19.6576C26.0564 19.6576 25.6774 19.7026 25.6774 19.7026L25.63 19.2067L26.1038 19.1616L25.9616 16.7271H25.251V16.0508C25.251 16.0508 25.3931 15.9606 26.7197 15.9606C28.0936 15.9155 28.2357 16.0508 28.2357 16.0508V16.682L27.5251 16.7271L27.3356 19.1616L27.8567 19.2067L27.8094 19.7026Z" fill="white"/>
<path fill-rule="evenodd" clip-rule="evenodd" d="M25.3458 19.7923C25.3458 19.7923 24.9668 19.8824 24.3509 20.1529C23.6876 20.4234 23.4034 20.6038 23.4034 20.6038L23.1665 20.1529L23.5929 19.9275L22.4085 17.7184L21.7926 17.9889L21.5557 17.3577C21.5557 17.3577 21.603 17.2224 22.8822 16.7265C24.1614 16.1855 24.3035 16.2757 24.3035 16.2757L24.5878 16.9068L23.9245 17.1773L24.7773 19.4767L25.2511 19.3414L25.3458 19.7923Z" fill="white"/>
<path fill-rule="evenodd" clip-rule="evenodd" d="M23.1669 20.7397C23.1669 20.7397 22.8826 20.9652 22.4088 21.416C21.8877 21.8669 21.6982 22.1825 21.6982 22.1825L21.2718 21.8218L21.6034 21.5062L19.6609 19.9282L19.1872 20.3791L18.666 19.9282C18.666 19.9282 18.7134 19.793 19.6609 18.8462C20.6085 17.8994 20.798 17.8994 20.798 17.8994L21.2718 18.3503L20.798 18.8462L22.4562 20.6947L22.8352 20.3791L23.1669 20.7397Z" fill="white"/>
<path fill-rule="evenodd" clip-rule="evenodd" d="M0.473633 57.3481H204.528V61H0.473633V57.3481Z" fill="white"/>
<path fill-rule="evenodd" clip-rule="evenodd" d="M173.79 18.8913H172.813C172.591 19.6126 172.457 19.7028 171.925 19.7028C170.548 19.7028 168.816 18.5757 165.086 18.5757C159.403 18.5757 155.539 21.6414 155.539 26.0597C155.539 28.314 156.383 30.3428 158.515 32.1011C162.466 35.3472 171.88 37.6916 171.88 42.696C171.88 45.8519 169.083 47.8807 164.82 47.8807C161.756 47.8807 156.472 46.1224 156.383 40.7573H155.317V48.6021H156.383C156.694 47.8807 157.094 47.4749 157.715 47.4749C158.914 47.4749 162.022 49.0078 165.752 49.0078C171.214 49.0078 175.699 45.2658 175.699 40.7573C175.699 38.8187 175.077 37.0153 172.635 34.9865C167.617 30.7936 158.692 29.4411 158.692 24.0309C158.692 21.3709 161.312 19.6577 164.953 19.6577C168.505 19.6577 172.191 21.3709 172.724 25.654H173.745V18.8913H173.79Z" fill="white"/>
<path fill-rule="evenodd" clip-rule="evenodd" d="M75.2104 24.8865C75.2104 21.3699 76.2317 20.2428 78.9848 20.2428V19.3411H67.04V20.2428C69.8819 20.2428 70.8144 21.1895 70.8144 24.8865V43.1007C70.8144 46.8427 69.7487 47.7895 67.04 47.7895V48.6461H78.9848V47.7895C76.1873 47.7895 75.2104 46.7074 75.2104 43.1007V24.8865Z" fill="white"/>
<path fill-rule="evenodd" clip-rule="evenodd" d="M114.198 27.2331L114.153 20.4253H113.043C112.91 20.5605 112.688 20.6958 112.155 20.6958C110.645 20.6958 108.026 18.8022 101.898 18.8022C91.7735 18.8022 84.4912 25.3846 84.4912 34.4917C84.4912 43.2381 91.5959 49.55 101.409 49.55C107.137 49.55 110.69 47.7466 113.798 48.1974C113.842 48.1974 115.485 41.4798 115.485 41.3897H114.597C111.311 47.0703 106.56 48.3778 102.741 48.3778C95.3703 48.3778 89.0649 42.111 89.0649 33.59C89.0649 25.7002 94.1269 20.0195 102.209 20.0195C107.493 20.0195 111.667 22.8599 113.31 27.2782H114.198V27.2331Z" fill="white"/>
<path fill-rule="evenodd" clip-rule="evenodd" d="M144.082 30.3427H143.061C142.617 32.8224 141.729 33.183 139.464 33.183H130.184V20.6495H139.775C143.46 20.6495 144.571 20.8749 145.325 24.121H145.947V19.2068H121.969V20.1085C124.811 20.1085 125.743 21.1454 125.743 24.7522V43.0115C125.743 46.8888 124.589 47.6101 121.969 47.6101V48.4667H145.947L147.457 43.0115H146.48C144.526 46.8437 143.283 47.024 138.443 47.024H132.626C130.761 47.024 130.184 46.483 130.184 45.0403V34.5806H138.443C141.862 34.5806 142.395 34.8962 143.061 37.3759H144.082V30.3427Z" fill="white"/>
<path fill-rule="evenodd" clip-rule="evenodd" d="M191.638 24.7522C191.638 21.2356 192.659 20.1085 195.413 20.1085V19.2068H183.468V20.1085C186.31 20.1085 187.242 21.0553 187.242 24.7522V42.9664C187.242 46.7084 186.176 47.6552 183.468 47.6552V48.5118H195.413V47.6552C192.615 47.6552 191.638 46.5732 191.638 42.9664V24.7522Z" fill="white"/>
<path fill-rule="evenodd" clip-rule="evenodd" d="M66.708 2.61426H67.9051V7.21289C67.9051 7.70882 67.9494 8.0695 67.9937 8.29492C68.0381 8.52035 68.1267 8.70068 68.3041 8.83594C68.5257 9.10645 68.8361 9.33187 69.1908 9.46712C69.5454 9.60238 69.9001 9.69255 70.3435 9.69255C71.0528 9.69255 71.6292 9.51221 72.1169 9.15153C72.5602 8.79085 72.7819 8.34001 72.7819 7.70882V2.61426H73.979V7.79899C73.979 8.70068 73.6243 9.37695 72.9593 9.96305C72.2942 10.5041 71.4519 10.7746 70.3435 10.7746C69.7228 10.7746 69.1464 10.6844 68.6144 10.459C68.0824 10.2336 67.6834 9.91797 67.3287 9.51221C67.107 9.28678 66.9297 8.97119 66.841 8.70068C66.7523 8.38509 66.708 7.93425 66.708 7.30306V2.61426Z" fill="white"/>
<path fill-rule="evenodd" clip-rule="evenodd" d="M80.7197 10.5942V2.61426H81.7394L87.2813 8.83594V2.61426H88.434V10.5942H87.37L81.9168 4.41764V10.5942H80.7197Z" fill="white"/>
<path fill-rule="evenodd" clip-rule="evenodd" d="M95.6572 10.5942V2.61426H96.8543V10.5942H95.6572Z" fill="white"/>
<path fill-rule="evenodd" clip-rule="evenodd" d="M106.476 10.6844L102.796 2.61426H104.037L106.653 8.34001L109.313 2.61426H110.555L106.786 10.6844H106.476Z" fill="white"/>
<path fill-rule="evenodd" clip-rule="evenodd" d="M116.629 10.5942V2.61426H121.683V3.60612H117.826V6.04069H121.594V7.12272H117.826V9.60238H121.772V10.5942H116.629Z" fill="white"/>
<path fill-rule="evenodd" clip-rule="evenodd" d="M128.734 10.5942V2.61426H131.173C132.015 2.61426 132.68 2.7946 133.124 3.20036C133.567 3.56104 133.833 4.10205 133.833 4.77832C133.833 5.31934 133.7 5.7251 133.434 6.08578C133.212 6.40137 132.813 6.62679 132.237 6.80713C132.37 6.85221 132.503 6.98747 132.636 7.12272C132.769 7.21289 132.902 7.43831 133.124 7.70882L135.163 10.6393H133.744L132.326 8.56543C131.882 7.93425 131.527 7.52848 131.261 7.34814C130.995 7.16781 130.685 7.07764 130.33 7.07764H129.976V10.6393H128.734V10.5942ZM129.976 6.08578H130.995C131.527 6.08578 131.971 5.95052 132.237 5.77018C132.503 5.54476 132.68 5.22917 132.68 4.82341C132.68 4.37256 132.547 4.10205 132.281 3.87663C131.971 3.69629 131.527 3.60612 130.951 3.60612H129.931V6.08578H129.976Z" fill="white"/>
<path fill-rule="evenodd" clip-rule="evenodd" d="M141.015 10.0094V8.52165C141.414 8.97249 141.768 9.243 142.123 9.42334C142.478 9.60368 142.832 9.69385 143.231 9.69385C143.63 9.69385 143.941 9.60368 144.207 9.42334C144.428 9.243 144.561 8.97249 144.561 8.70199C144.561 8.43148 144.473 8.20606 144.34 7.98063C144.207 7.80029 143.808 7.52979 143.187 7.16911C142.256 6.58301 141.635 6.13216 141.414 5.81657C141.192 5.45589 141.059 5.09522 141.059 4.64437C141.059 4.01318 141.281 3.51725 141.768 3.15658C142.212 2.75081 142.832 2.52539 143.542 2.52539C143.852 2.52539 144.162 2.57048 144.473 2.66064C144.783 2.70573 145.093 2.88607 145.448 3.06641V4.37386C145.049 4.10335 144.739 3.87793 144.428 3.74268C144.118 3.60742 143.808 3.56234 143.497 3.56234C143.143 3.56234 142.832 3.65251 142.611 3.83285C142.389 3.9681 142.256 4.23861 142.256 4.50911C142.256 4.91488 142.744 5.41081 143.719 5.99691L143.896 6.08708C144.694 6.58301 145.226 6.98877 145.448 7.34945C145.67 7.71012 145.803 8.16097 145.803 8.70199C145.803 9.33317 145.581 9.8291 145.093 10.2349C144.65 10.6406 144.029 10.821 143.32 10.821C142.877 10.821 142.478 10.7759 142.123 10.6406C141.68 10.4603 141.325 10.2799 141.015 10.0094Z" fill="white"/>
<path fill-rule="evenodd" clip-rule="evenodd" d="M152.317 10.5942V2.61426H153.514V10.5942H152.317Z" fill="white"/>
<path fill-rule="evenodd" clip-rule="evenodd" d="M163.8 3.69629H161.938V9.55729H163.8C164.864 9.55729 165.662 9.33187 166.239 8.79085C166.859 8.24984 167.125 7.57357 167.125 6.62679C167.125 5.7251 166.859 5.04883 166.239 4.50781C165.618 3.9668 164.864 3.69629 163.8 3.69629ZM163.8 2.61426C164.421 2.61426 164.953 2.65934 165.396 2.74951C165.84 2.88477 166.239 3.0651 166.638 3.29053C167.17 3.6512 167.657 4.14714 167.924 4.68815C168.234 5.27425 168.367 5.90544 168.367 6.58171C168.367 7.30306 168.234 7.88916 167.924 8.47526C167.613 9.06136 167.17 9.51221 166.638 9.87288C166.283 10.0983 165.84 10.2786 165.396 10.4139C164.953 10.5492 164.421 10.5492 163.8 10.5492H160.741V2.61426H163.8Z" fill="white"/>
<path fill-rule="evenodd" clip-rule="evenodd" d="M176.173 7.21289H178.788L177.503 4.32747L176.173 7.21289ZM173.424 10.5942L177.059 2.61426H177.946L181.626 10.5942H180.384L179.32 8.24984H175.774L174.665 10.5942H173.424Z" fill="white"/>
<path fill-rule="evenodd" clip-rule="evenodd" d="M190.848 3.69629H188.941V9.55729H190.848C191.867 9.55729 192.71 9.33187 193.286 8.79085C193.907 8.24984 194.173 7.57357 194.173 6.62679C194.173 5.7251 193.862 5.04883 193.286 4.50781C192.71 3.9668 191.867 3.69629 190.848 3.69629ZM190.848 2.61426C191.468 2.61426 192 2.65934 192.399 2.74951C192.843 2.88477 193.286 3.0651 193.641 3.29053C194.217 3.6512 194.616 4.14714 194.926 4.68815C195.281 5.27425 195.414 5.90544 195.414 6.58171C195.414 7.30306 195.281 7.88916 194.926 8.47526C194.616 9.06136 194.217 9.51221 193.641 9.87288C193.286 10.0983 192.843 10.2786 192.444 10.4139C192 10.5492 191.424 10.5492 190.848 10.5492H187.744V2.61426H190.848Z" fill="white"/>
</svg>
