<svg width="399" height="225" viewBox="0 0 399 225" fill="none" xmlns="http://www.w3.org/2000/svg">
<path d="M210.553 131.546C210.392 131.491 210.288 131.456 210.185 131.421C208.079 130.666 206.034 129.767 203.988 128.865C203.196 128.514 203.554 128.085 203.768 127.644C205.505 124.046 207.256 120.453 208.996 116.857C211.217 112.268 213.446 107.686 215.633 103.081C216.013 102.285 216.344 101.92 217.241 102.446C217.962 102.867 218.765 103.179 219.565 103.421C220.282 103.64 220.346 103.936 220.11 104.611C217.759 111.323 215.448 118.049 213.122 124.77C212.414 126.814 211.702 128.856 210.987 130.898C210.897 131.154 210.862 131.469 210.553 131.546Z" fill="white"/>
<path d="M196.405 124.615C196.231 124.505 196.045 124.388 195.862 124.271C194.103 123.137 192.438 121.876 190.766 120.618C190.2 120.192 190.248 119.894 190.652 119.391C196.438 112.18 202.213 104.96 207.967 97.7243C208.381 97.2034 208.622 97.274 209.078 97.6294C209.887 98.2584 210.727 98.8566 211.609 99.3775C212.225 99.7395 212.167 100.031 211.83 100.565C206.873 108.366 201.938 116.179 196.989 123.984C196.842 124.214 196.778 124.543 196.405 124.615Z" fill="white"/>
<path d="M225.444 134.85C223.268 134.643 221.215 134.27 219.155 133.923C218.425 133.8 218.425 133.376 218.549 132.806C219.956 126.363 221.354 119.918 222.756 113.473C223.301 110.968 223.892 108.469 224.377 105.953C224.534 105.138 224.838 104.911 225.621 105.077C226.514 105.266 227.422 105.397 228.331 105.496C228.889 105.558 229.065 105.754 229.01 106.341C228.201 114.883 227.414 123.426 226.62 131.97C226.558 132.628 226.441 133.283 226.432 133.939C226.428 134.714 226.119 135.029 225.444 134.85Z" fill="white"/>
<path d="M233.526 120.408C233.526 115.821 233.548 111.235 233.504 106.65C233.497 105.917 233.667 105.703 234.393 105.725C235.268 105.752 236.172 105.741 237.021 105.555C237.996 105.341 238.194 105.763 238.3 106.582C238.794 110.438 239.332 114.289 239.851 118.143C240.55 123.341 241.233 128.542 241.956 133.738C242.038 134.325 242.023 134.57 241.339 134.665C239.193 134.965 237.03 135.031 234.878 135.245C234.148 135.318 234.146 134.919 234.146 134.384C234.157 129.725 234.152 125.065 234.152 120.406C233.943 120.408 233.736 120.408 233.526 120.408Z" fill="white"/>
<path d="M246.997 103.401C247.295 103.525 247.317 103.911 247.432 104.227C249.685 110.348 251.937 116.468 254.19 122.589C255.064 124.962 255.895 127.35 256.83 129.697C257.17 130.551 256.931 130.844 256.14 131.076C254.314 131.615 252.495 132.186 250.693 132.807C249.86 133.094 249.588 132.829 249.39 132.021C247.414 123.978 245.403 115.943 243.401 107.906C243.18 107.017 242.946 106.132 242.746 105.238C242.699 105.033 242.455 104.726 242.869 104.602C244.203 104.207 245.54 103.823 246.997 103.401Z" fill="white"/>
<path d="M179.272 109.069C179.528 108.833 179.758 108.599 180.011 108.394C186.499 103.112 192.989 97.83 199.481 92.5524C200.217 91.9542 201 90.8969 201.712 90.9366C202.411 90.9764 203.048 92.1418 203.71 92.8172C203.864 92.974 203.99 93.166 204.166 93.294C204.954 93.8613 204.901 94.2983 204.193 95.0002C198.594 100.565 193.039 106.176 187.478 111.778C186.624 112.636 185.795 113.519 184.962 114.396C184.653 114.72 184.382 114.934 183.969 114.497C182.432 112.868 180.915 111.226 179.535 109.46C179.447 109.348 179.376 109.226 179.272 109.069Z" fill="white"/>
<path d="M270.837 123.507C270.866 123.867 270.553 123.922 270.363 124.048C268.551 125.238 266.641 126.26 264.747 127.313C263.986 127.736 263.951 127.092 263.77 126.732C261.79 122.752 259.829 118.766 257.864 114.78C255.851 110.694 253.851 106.602 251.813 102.529C251.48 101.865 251.39 101.483 252.219 101.141C253.13 100.766 253.997 100.258 254.821 99.7128C255.425 99.3155 255.677 99.5009 256.016 100.04C260.841 107.681 265.684 115.309 270.522 122.944C270.637 123.128 270.736 123.324 270.837 123.507Z" fill="white"/>
<path d="M198.864 86.8553C198.817 87.2085 198.54 87.2835 198.337 87.416C190.718 92.3956 183.09 97.3619 175.482 102.359C174.858 102.77 174.578 102.644 174.254 102.052C173.302 100.315 172.344 98.5803 171.323 96.8829C170.867 96.1259 171.134 95.8632 171.817 95.5166C179.11 91.8195 186.387 88.087 193.668 84.3721C194.579 83.9064 195.589 83.0058 196.403 83.1515C197.25 83.3016 197.479 84.754 198.063 85.5839C198.357 86.0033 198.61 86.4492 198.864 86.8553Z" fill="white"/>
<path d="M282.823 113.93C282.689 114.078 282.532 114.281 282.347 114.448C280.834 115.837 279.299 117.203 277.806 118.613C277.257 119.132 276.971 118.903 276.591 118.424C273.725 114.797 270.838 111.186 267.96 107.57C265.266 104.182 262.586 100.781 259.867 97.4126C259.462 96.9094 259.36 96.6688 259.964 96.2406C260.798 95.649 261.552 94.9383 262.304 94.2408C262.758 93.8214 263.067 93.7463 263.561 94.2474C269.85 100.624 276.161 106.975 282.466 113.336C282.614 113.486 282.827 113.601 282.823 113.93Z" fill="white"/>
<path d="M194.44 78.554C194.464 78.9955 193.983 78.9535 193.685 79.0683C189.685 80.609 185.681 82.1364 181.676 83.6661C177.398 85.2994 173.109 86.9041 168.851 88.5905C167.997 88.9282 167.744 88.7119 167.523 87.9305C167.056 86.2729 166.566 84.6196 165.991 82.9973C165.739 82.2887 166.022 82.1232 166.591 81.9422C171.929 80.2382 177.264 78.5187 182.596 76.7992C185.698 75.7993 188.803 74.8016 191.897 73.7753C192.484 73.581 192.786 73.57 192.991 74.2896C193.394 75.6956 193.926 77.0663 194.44 78.554Z" fill="white"/>
<path d="M162.835 72.506C162.709 71.9343 163.219 71.9255 163.494 71.7908C168.531 69.3319 173.576 66.8951 178.62 64.4516C181.389 63.1096 184.17 61.7919 186.915 60.4057C187.539 60.0901 187.813 60.1762 188.044 60.7964C188.818 62.8536 189.588 64.9152 190.413 66.9525C190.708 67.6853 190.234 67.7493 189.78 67.8994C183.552 69.9676 177.325 72.038 171.098 74.1063C168.979 74.8104 166.848 75.4836 164.742 76.2208C164.185 76.4173 163.96 76.3312 163.808 75.7573C163.516 74.6581 163.161 73.5787 162.835 72.506Z" fill="white"/>
<path d="M292.357 101.582C292.218 101.81 292.095 102.035 291.952 102.247C290.814 103.913 289.643 105.56 288.542 107.251C288.135 107.878 287.857 107.844 287.312 107.405C280.758 102.134 274.185 96.8875 267.622 91.632C266.063 90.3849 266.048 90.3584 267.289 88.831C267.854 88.1357 268.237 86.9437 269.031 86.8819C269.741 86.8267 270.526 87.6854 271.272 88.1533C278.053 92.3891 284.833 96.6271 291.61 100.874C291.894 101.053 292.32 101.121 292.357 101.582Z" fill="white"/>
<path d="M273.554 78.5779C273.647 78.611 273.817 78.675 273.991 78.7346C281.903 81.423 289.811 84.127 297.734 86.7823C298.638 87.0847 298.859 87.4335 298.486 88.3252C297.723 90.1506 297.033 92.0091 296.351 93.8655C296.142 94.4371 295.897 94.4658 295.383 94.2208C287.568 90.5038 279.749 86.8 271.92 83.1116C271.389 82.86 271.199 82.6746 271.517 82.0786C272.033 81.1096 272.447 80.0854 272.893 79.0789C273.008 78.8118 273.056 78.4896 273.554 78.5779Z" fill="white"/>
<path d="M182.523 52.241C182.523 52.6008 182.249 52.7023 182.062 52.8524C175.31 58.2293 168.551 63.5996 161.805 68.9876C161.294 69.3959 160.996 69.3496 160.689 68.8066C160.584 68.6167 160.416 68.4622 160.273 68.2945C158.839 66.6479 158.846 66.6567 160.312 64.9306C165.428 58.9136 170.551 52.8987 175.636 46.8574C176.15 46.246 176.437 46.1202 177.072 46.6941C178.82 48.2701 180.538 49.8704 182.055 51.6737C182.221 51.8702 182.382 52.0666 182.523 52.241Z" fill="white"/>
<path d="M301.767 72.8568C301.423 75.1657 301.125 77.0485 300.87 78.9401C300.779 79.6067 300.517 79.7656 299.857 79.6177C291.703 77.7879 283.546 75.9713 275.382 74.1967C274.65 74.0377 274.606 73.764 274.758 73.1592C275.008 72.1638 275.232 71.1595 275.391 70.1463C275.497 69.4687 275.76 69.2413 276.47 69.323C281.244 69.8726 286.022 70.3847 290.799 70.9078C294.045 71.2632 297.288 71.6318 300.534 71.9739C301.346 72.0578 302.063 72.1571 301.767 72.8568Z" fill="white"/>
<path d="M155.619 64.2485C155.094 63.9461 154.56 63.6283 154.015 63.3281C152.167 62.3127 152.174 62.3171 152.939 60.3372C155.687 53.2254 158.452 46.118 161.149 38.9863C161.522 38.0018 161.888 37.8981 162.798 38.2865C164.752 39.1231 166.704 39.9575 168.587 40.9485C169.132 41.2355 169.253 41.4297 168.918 41.9992C164.671 49.2037 160.448 56.4259 156.212 63.6393C156.077 63.8733 156.011 64.2066 155.619 64.2485Z" fill="white"/>
<path d="M276.072 61.9552C276.072 59.5427 276.077 59.589 278.434 59.3484C285.105 58.6664 291.771 57.9424 298.442 57.2361C298.805 57.1985 299.174 57.1831 299.54 57.1566C301.441 57.0176 301.443 57.0176 301.597 59.0019C301.721 60.5735 301.826 62.1473 301.968 63.7166C302.021 64.306 301.886 64.6106 301.216 64.6017C295.493 64.5201 289.769 64.7099 284.046 64.498C281.773 64.4141 279.493 64.423 277.221 64.5046C276.216 64.5399 275.905 64.2375 276.064 63.2774C276.13 62.847 276.072 62.3967 276.072 61.9552Z" fill="white"/>
<path d="M144.775 47.6101C144.951 43.7231 145.148 39.8383 145.284 35.9513C145.313 35.1302 145.489 34.8212 146.396 34.8896C148.592 35.0551 150.78 35.2494 152.956 35.5871C153.463 35.6643 153.688 35.7857 153.549 36.4325C151.838 44.3146 150.158 52.2056 148.506 60.1011C148.343 60.8758 148.089 61.0347 147.342 60.7964C146.543 60.5425 145.697 60.3968 144.861 60.3284C144.237 60.2776 144.177 59.9885 144.202 59.4874C144.4 55.5298 144.583 51.5699 144.773 47.6101C144.773 47.6101 144.773 47.6101 144.775 47.6101Z" fill="white"/>
<path d="M274.639 50.3428C274.498 49.7071 275.073 49.7888 275.382 49.685C280.282 48.0428 285.189 46.4249 290.095 44.8003C292.322 44.0631 294.556 43.3457 296.766 42.5621C297.44 42.3238 297.747 42.4098 297.956 43.1228C298.481 44.9151 299.033 46.7008 299.65 48.4622C299.952 49.3252 299.756 49.6519 298.856 49.8395C292.58 51.1484 286.315 52.5037 280.046 53.8457C278.829 54.1062 277.598 54.3225 276.397 54.6425C275.653 54.8412 275.451 54.6227 275.351 53.8987C275.184 52.7046 274.884 51.5281 274.639 50.3428Z" fill="white"/>
<path d="M140.219 59.5869C140.287 60.0901 140.018 60.2049 139.575 60.2446C138.775 60.3153 137.948 60.3484 137.189 60.5801C136.325 60.8428 136.051 60.5272 135.811 59.7568C133.85 53.422 131.853 47.0959 129.866 40.7676C129.612 39.9642 129.387 39.1475 129.087 38.3617C128.856 37.7547 129.081 37.5031 129.636 37.3177C131.831 36.5915 134.064 36.0286 136.331 35.5828C136.827 35.4856 137.059 35.6203 137.13 36.1655C137.784 41.3261 138.459 46.4823 139.132 51.6407C139.449 54.0753 139.776 56.5077 140.1 58.9401C140.129 59.1565 140.179 59.3706 140.219 59.5869Z" fill="white"/>
<path d="M273.321 45.2528C272.932 45.3831 272.897 45.0961 272.816 44.9217C272.271 43.7607 271.784 42.5732 271.19 41.4364C270.811 40.708 271.413 40.6242 271.759 40.4123C277.358 36.9888 282.964 33.5785 288.571 30.1683C290.821 28.7998 290.838 28.7932 292.172 31.0137C292.927 32.2696 293.606 33.5719 294.336 34.8433C294.552 35.2186 294.611 35.4481 294.12 35.6732C287.264 38.8208 280.415 41.9838 273.563 45.1447C273.462 45.1932 273.36 45.2352 273.321 45.2528Z" fill="white"/>
<path d="M121.233 41.061C121.678 41.0721 121.718 41.4716 121.855 41.7387C124.009 45.9524 126.15 50.1749 128.296 54.3952C129.46 56.6841 130.603 58.9863 131.798 61.2598C132.122 61.8778 132.124 62.1869 131.401 62.476C130.556 62.8159 129.758 63.2905 128.975 63.7673C128.512 64.0498 128.25 64.0498 127.903 63.5752C123.632 57.7348 119.341 51.9076 115.041 46.087C114.717 45.6478 114.677 45.405 115.16 45.043C116.983 43.6744 118.867 42.4009 120.845 41.2685C120.97 41.1935 121.103 41.1295 121.233 41.061Z" fill="white"/>
<path d="M286.143 22.7053C286.134 23.054 285.868 23.1555 285.676 23.3056C280.189 27.6076 274.692 31.8963 269.219 36.216C268.597 36.706 268.299 36.6442 267.874 35.9908C267.276 35.0704 266.572 34.2162 265.871 33.3686C265.532 32.958 265.494 32.6998 265.911 32.2914C270.782 27.5061 275.633 22.7008 280.485 17.8956C280.8 17.5844 281.052 17.3637 281.479 17.7698C283.025 19.2354 284.483 20.7871 285.901 22.3764C285.995 22.4823 286.073 22.6081 286.143 22.7053Z" fill="white"/>
<path d="M124.851 66.6942C124.666 66.8928 124.523 67.0518 124.375 67.2063C123.693 67.9236 122.977 68.6123 122.337 69.3672C121.956 69.8175 121.671 69.7667 121.237 69.4665C115.653 65.6148 110.063 61.772 104.458 57.949C103.986 57.6267 103.913 57.3949 104.229 56.9182C105.47 55.053 106.804 53.2629 108.249 51.5479C108.661 51.0579 108.892 51.0755 109.345 51.517C114.326 56.3906 119.332 61.24 124.329 66.0982C124.509 66.2726 124.659 66.4735 124.851 66.6942Z" fill="white"/>
<path d="M275.217 12.8368C275.084 13.009 274.932 13.2143 274.773 13.4107C270.672 18.4896 266.564 23.5664 262.475 28.6563C262.118 29.1022 261.891 29.1552 261.45 28.7557C260.557 27.9412 259.622 27.1686 258.671 26.4204C258.224 26.0672 258.087 25.7869 258.433 25.2549C261.88 19.9288 265.304 14.5872 268.727 9.24558C268.972 8.86151 269.168 8.64078 269.666 8.94318C271.452 10.0314 273.212 11.1549 274.901 12.3887C275.036 12.4903 275.232 12.5587 275.217 12.8368Z" fill="white"/>
<path d="M119.336 73.6118C119.014 74.3137 118.675 75.0046 118.375 75.7131C117.638 77.4568 117.645 77.4679 115.802 77.0088C110.145 75.5939 104.496 74.1592 98.8329 72.773C98.0501 72.581 97.8692 72.3404 98.0809 71.5259C98.6058 69.4996 99.1791 67.4932 99.887 65.5221C100.11 64.9041 100.339 64.7452 100.992 65.0431C106.897 67.7382 112.818 70.398 118.73 73.0754C118.977 73.1858 119.328 73.2167 119.336 73.6118Z" fill="white"/>
<path d="M262.56 5.59032C262.447 5.81987 262.352 6.01632 262.253 6.21497C259.583 11.5566 256.903 16.8938 254.253 22.2464C253.953 22.8512 253.748 23.0852 253.062 22.6525C252.012 21.9904 250.886 21.4496 249.772 20.8978C249.326 20.677 249.201 20.4519 249.384 19.9685C251.448 14.4856 253.499 8.99835 255.545 3.51106C255.706 3.08285 255.838 2.86212 256.401 3.04974C258.31 3.68985 260.2 4.37852 262.059 5.15107C262.262 5.23053 262.588 5.25481 262.56 5.59032Z" fill="white"/>
<path d="M98.6434 88.1022C97.5188 88.6032 97.3644 87.7335 97.2872 86.7072C97.1483 84.8398 96.9895 82.9769 97.0005 81.1007C97.005 80.4385 97.2255 80.3149 97.8231 80.3612C103.817 80.827 109.81 81.2751 115.806 81.7143C116.386 81.7562 116.622 81.8799 116.501 82.5707C116.318 83.6126 116.276 84.6875 116.249 85.7492C116.236 86.2834 116.132 86.5019 115.539 86.5527C110.792 86.9588 106.046 87.4047 101.301 87.8417C100.498 87.9145 99.6975 87.9984 98.6434 88.1022Z" fill="white"/>
<path d="M239.317 16.6244C239.987 11.9692 240.644 7.32735 241.332 2.68766C241.456 1.8511 241.204 0.676833 241.932 0.288353C242.554 -0.0449454 243.568 0.323669 244.402 0.429619C245.672 0.592957 246.935 0.802648 248.206 0.981437C248.708 1.05207 248.843 1.25293 248.706 1.78047C247.297 7.19933 245.908 12.6248 244.534 18.0525C244.406 18.5624 244.208 18.5889 243.764 18.4498C242.474 18.0459 241.171 17.6817 239.868 17.3197C239.489 17.2115 239.125 17.1387 239.317 16.6244Z" fill="white"/>
<path d="M116.177 91.261C116.633 91.0977 116.646 91.4067 116.708 91.6473C117.026 92.89 117.317 94.1393 117.665 95.3732C117.795 95.8345 117.559 95.9426 117.231 96.0883C112.408 98.2382 107.588 100.388 102.776 102.556C102.295 102.772 102.073 102.668 101.85 102.207C100.921 100.289 100.095 98.3331 99.4219 96.3113C99.2632 95.8367 99.2852 95.638 99.852 95.4924C105.213 94.1283 110.565 92.7266 115.919 91.3339C116.029 91.3096 116.133 91.2743 116.177 91.261Z" fill="white"/>
<path d="M234.514 2.39203C234.382 6.68518 234.234 10.9783 234.135 15.2737C234.119 15.9822 233.982 16.2405 233.211 16.15C231.938 16.0021 230.651 15.9557 229.369 15.916C228.882 15.9005 228.67 15.8012 228.628 15.2516C228.284 10.7112 227.929 6.17309 227.515 1.63935C227.438 0.791756 227.735 0.53792 228.489 0.48053C230.245 0.345887 232 0.18917 233.751 0.0125884C234.421 -0.0558371 234.69 0.145025 234.593 0.85356C234.525 1.35903 234.58 1.87994 234.58 2.39424C234.556 2.39424 234.534 2.39203 234.514 2.39203Z" fill="white"/>
<path d="M111.345 114.773C111.217 114.665 111.047 114.532 110.891 114.384C109.387 112.976 108.026 111.436 106.717 109.846C106.302 109.343 106.355 109.111 106.882 108.763C110.95 106.063 115.006 103.344 119.054 100.611C119.502 100.309 119.731 100.262 120.042 100.81C120.602 101.796 121.227 102.757 121.919 103.657C122.34 104.205 122.217 104.487 121.773 104.913C118.512 108.041 115.275 111.193 112.029 114.336C111.848 114.51 111.702 114.744 111.345 114.773Z" fill="white"/>
<path d="M218.602 16.8185C217.909 17.0547 217.856 16.7302 217.766 16.4499C216.535 12.6556 215.316 8.85687 214.061 5.06919C213.894 4.56373 213.991 4.35403 214.48 4.18849C216.282 3.58149 218.077 2.95242 219.87 2.31893C220.339 2.15338 220.6 2.19532 220.712 2.76921C221.55 7.00939 222.412 11.2451 223.272 15.4809C223.345 15.8363 223.396 16.0967 222.886 16.1674C221.365 16.3726 219.848 16.6265 218.602 16.8185Z" fill="white"/>
<path d="M129.674 111.213C129.606 111.369 129.522 111.572 129.427 111.769C127.773 115.157 126.106 118.539 124.472 121.935C124.19 122.52 123.967 122.77 123.264 122.443C121.504 121.624 119.769 120.77 118.08 119.814C117.537 119.507 117.46 119.26 117.839 118.737C120.322 115.331 122.783 111.912 125.231 108.482C125.579 107.994 125.791 107.897 126.298 108.339C127.209 109.129 128.217 109.804 129.18 110.535C129.399 110.696 129.754 110.762 129.674 111.213Z" fill="white"/>
<path d="M137.416 125.745C135.392 125.569 133.502 125.368 131.63 125.004C131.048 124.891 130.96 124.739 131.138 124.16C132.172 120.805 133.158 117.437 134.142 114.069C134.305 113.513 134.459 113.307 135.114 113.577C136.294 114.06 137.531 114.404 138.753 114.78C139.216 114.921 139.489 115.044 139.405 115.665C138.973 118.821 138.598 121.984 138.221 125.149C138.146 125.772 137.776 125.825 137.416 125.745Z" fill="white"/>
<path d="M212.551 18.2424C212.553 18.6264 212.224 18.6154 212.013 18.7015C210.656 19.2511 209.283 19.7632 207.935 20.3371C207.494 20.5247 207.302 20.4276 207.075 20.0413C205.459 17.2888 203.831 14.543 202.184 11.8104C201.895 11.3314 201.928 11.0378 202.411 10.7376C203.966 9.76642 205.505 8.77094 207.051 7.78429C207.384 7.57018 207.668 7.40464 207.907 7.93218C209.408 11.2762 210.93 14.6114 212.443 17.951C212.484 18.0481 212.518 18.1519 212.551 18.2424Z" fill="white"/>
<path d="M196.603 15.4146C198.449 17.8779 200.266 20.3147 202.103 22.7361C202.383 23.1069 202.297 23.2636 201.944 23.491C200.621 24.343 199.309 25.2171 198.01 26.1066C197.664 26.345 197.452 26.303 197.176 26.0028C195.512 24.1973 193.84 22.3984 192.151 20.6171C191.836 20.286 191.933 20.0896 192.195 19.8026C193.58 18.2928 194.956 16.7742 196.603 15.4146Z" fill="white"/>
<path d="M144.832 118.826C144.832 118.239 144.925 117.634 144.812 117.071C144.603 116.029 144.973 115.762 145.979 115.839C147.143 115.928 148.323 115.883 149.492 115.828C150.067 115.802 150.349 115.943 150.471 116.539C150.925 118.762 151.412 120.976 151.904 123.189C152.032 123.768 151.84 124.068 151.267 124.222C149.5 124.695 147.728 125.127 145.913 125.388C145.24 125.485 145.077 125.253 145.081 124.648C145.097 122.708 145.088 120.768 145.088 118.83C145.002 118.826 144.918 118.826 144.832 118.826Z" fill="white"/>
<path d="M187.74 25.436C189.403 26.8663 191.03 28.279 192.671 29.6718C193.033 29.9786 193.063 30.1993 192.691 30.526C191.476 31.5877 190.358 32.7487 189.297 33.9627C189.026 34.274 188.794 34.2828 188.457 34.0422C187.204 33.1505 185.941 32.2764 184.668 31.4155C184.316 31.1772 184.302 30.9631 184.505 30.6055C185.495 28.8529 186.507 27.1158 187.74 25.436Z" fill="white"/>
<path d="M158.655 121.168C158.242 121.232 158.216 120.905 158.13 120.7C157.38 118.912 156.659 117.113 155.903 115.327C155.707 114.866 155.843 114.685 156.289 114.564C157.735 114.162 159.142 113.645 160.494 112.992C160.957 112.769 161.182 112.86 161.444 113.294C162.201 114.548 162.997 115.778 163.808 116.996C164.064 117.378 164.055 117.61 163.676 117.894C162.181 119.018 160.646 120.075 159.008 120.978C158.88 121.051 158.75 121.117 158.655 121.168Z" fill="white"/>
<path d="M185.105 39.1515C185.088 39.1846 185.075 39.22 185.055 39.2509C184.073 40.7982 183.09 42.3432 182.109 43.8905C181.95 44.14 181.76 44.0428 181.537 43.9921C179.573 43.533 179.39 43.2571 179.976 41.3919C180.36 40.1691 180.823 38.9727 181.2 37.7499C181.39 37.1341 181.643 36.995 182.214 37.3327C183.033 37.8183 183.888 38.2421 184.722 38.7034C184.894 38.7962 185.161 38.8469 185.105 39.1515Z" fill="white"/>
<path d="M168.886 112.859C168.716 112.705 168.577 112.597 168.46 112.469C167.792 111.742 167.144 110.996 166.458 110.288C166.116 109.935 166.16 109.732 166.553 109.453C167.867 108.524 169.093 107.482 170.266 106.381C170.577 106.09 170.822 105.975 171.179 106.324C171.517 106.655 171.907 106.935 172.293 107.211C172.652 107.469 172.738 107.725 172.48 108.127C171.508 109.634 170.467 111.089 169.309 112.462C169.199 112.594 169.056 112.703 168.886 112.859Z" fill="white"/>
<path d="M178.111 51.3977C178.13 50.965 178.144 50.5324 178.177 50.0998C178.194 49.8592 178.148 49.548 178.466 49.4729C178.62 49.4354 178.83 49.495 178.975 49.5767C179.306 49.7665 179.063 50.0291 178.988 50.2366C178.794 50.7796 178.563 51.3072 178.347 51.8413C177.919 51.881 178.073 51.6073 178.111 51.3977Z" fill="white"/>
<path d="M178.11 51.3979C178.19 51.5458 178.267 51.6959 178.346 51.8438C178.298 52.0469 178.254 52.2522 178.013 52.3691C177.861 52.016 177.903 51.7003 178.11 51.3979Z" fill="white"/>
<path d="M1.98739 190.914C1.65655 190.914 1.38587 190.803 1.17533 190.579C0.964798 190.356 0.859531 190.068 0.859531 189.717V158.591C0.859531 158.24 0.964798 157.953 1.17533 157.73C1.38587 157.506 1.65655 157.394 1.98739 157.394H23.0558C23.3867 157.394 23.6574 157.506 23.8679 157.73C24.0784 157.953 24.1837 158.24 24.1837 158.591V163.093C24.1837 163.444 24.0784 163.731 23.8679 163.955C23.6574 164.178 23.3867 164.29 23.0558 164.29H8.66433V170.754H22.0633C22.3942 170.754 22.6648 170.882 22.8754 171.138C23.0859 171.361 23.1912 171.648 23.1912 172V176.166C23.1912 176.485 23.0859 176.772 22.8754 177.028C22.6648 177.251 22.3942 177.363 22.0633 177.363H8.66433V184.019H23.4167C23.7476 184.019 24.0183 184.131 24.2288 184.354C24.4393 184.578 24.5446 184.865 24.5446 185.216V189.717C24.5446 190.068 24.4393 190.356 24.2288 190.579C24.0183 190.803 23.7476 190.914 23.4167 190.914H1.98739Z" fill="white"/>
<path d="M39.8268 191.393C37.6011 191.393 35.6311 190.962 33.9168 190.1C32.2024 189.238 30.834 187.993 29.8114 186.365C28.8188 184.705 28.2775 182.726 28.1872 180.427C28.1572 179.917 28.1421 179.278 28.1421 178.512C28.1421 177.714 28.1572 177.059 28.1872 176.549C28.2775 174.218 28.8188 172.239 29.8114 170.611C30.8039 168.951 32.1573 167.69 33.8717 166.828C35.6161 165.966 37.6011 165.535 39.8268 165.535C41.902 165.535 43.6765 165.854 45.1503 166.493C46.624 167.099 47.8271 167.865 48.7594 168.791C49.6918 169.717 50.3835 170.675 50.8347 171.664C51.3159 172.622 51.5716 173.468 51.6016 174.202C51.6317 174.522 51.5264 174.809 51.2858 175.064C51.0452 175.288 50.7745 175.399 50.4738 175.399H44.7442C44.4134 175.399 44.1578 175.32 43.9773 175.16C43.7968 175 43.6314 174.761 43.481 174.442C43.1201 173.452 42.6539 172.75 42.0825 172.335C41.5411 171.92 40.8343 171.712 39.9621 171.712C38.7591 171.712 37.8267 172.127 37.165 172.957C36.5334 173.787 36.1875 175.064 36.1274 176.788C36.0973 178.065 36.0973 179.198 36.1274 180.188C36.1875 181.944 36.5334 183.221 37.165 184.019C37.8267 184.817 38.7591 185.216 39.9621 185.216C40.8945 185.216 41.6313 185.009 42.1727 184.594C42.7141 184.179 43.1502 183.476 43.481 182.487C43.6314 182.167 43.7968 181.928 43.9773 181.768C44.1578 181.609 44.4134 181.529 44.7442 181.529H50.4738C50.7745 181.529 51.0452 181.657 51.2858 181.912C51.5264 182.135 51.6317 182.407 51.6016 182.726C51.5716 183.269 51.4212 183.907 51.1505 184.641C50.8798 185.344 50.4587 186.094 49.8873 186.892C49.3158 187.69 48.5639 188.44 47.6316 189.143C46.7293 189.813 45.6315 190.356 44.3382 190.771C43.0449 191.186 41.5411 191.393 39.8268 191.393Z" fill="white"/>
<path d="M66.753 191.393C64.2266 191.393 62.0912 190.962 60.3468 190.1C58.6324 189.238 57.3091 188.009 56.3767 186.413C55.4744 184.785 54.9631 182.854 54.8428 180.619C54.8127 179.981 54.7977 179.262 54.7977 178.464C54.7977 177.634 54.8127 176.916 54.8428 176.309C54.9631 174.043 55.5045 172.111 56.4669 170.515C57.4294 168.919 58.7678 167.69 60.4821 166.828C62.2266 165.966 64.3169 165.535 66.753 165.535C69.2193 165.535 71.3096 165.966 73.0239 166.828C74.7684 167.69 76.1218 168.919 77.0842 170.515C78.0467 172.111 78.5881 174.043 78.7084 176.309C78.7384 176.916 78.7535 177.634 78.7535 178.464C78.7535 179.262 78.7384 179.981 78.7084 180.619C78.5881 182.854 78.0617 184.785 77.1293 186.413C76.2271 188.009 74.9037 189.238 73.1593 190.1C71.4449 190.962 69.3095 191.393 66.753 191.393ZM66.753 185.551C68.1065 185.551 69.0839 185.12 69.6855 184.258C70.3171 183.396 70.678 182.103 70.7682 180.38C70.7983 179.901 70.8133 179.262 70.8133 178.464C70.8133 177.666 70.7983 177.028 70.7682 176.549C70.678 174.857 70.3171 173.58 69.6855 172.718C69.0839 171.824 68.1065 171.377 66.753 171.377C65.4297 171.377 64.4522 171.824 63.8206 172.718C63.189 173.58 62.8431 174.857 62.783 176.549C62.7529 177.028 62.7379 177.666 62.7379 178.464C62.7379 179.262 62.7529 179.901 62.783 180.38C62.8431 182.103 63.189 183.396 63.8206 184.258C64.4522 185.12 65.4297 185.551 66.753 185.551Z" fill="white"/>
<path d="M84.3184 190.914C83.9876 190.914 83.7169 190.803 83.5063 190.579C83.2958 190.356 83.1905 190.068 83.1905 189.717V167.211C83.1905 166.86 83.2958 166.572 83.5063 166.349C83.7169 166.126 83.9876 166.014 84.3184 166.014H89.5066C89.8374 166.014 90.1081 166.126 90.3186 166.349C90.5292 166.572 90.6344 166.86 90.6344 167.211V169.031C91.4164 168.041 92.439 167.211 93.7022 166.541C94.9654 165.87 96.4542 165.535 98.1685 165.535C99.913 165.535 101.447 165.95 102.77 166.78C104.124 167.61 105.176 168.839 105.928 170.467C106.71 172.063 107.101 174.027 107.101 176.357V189.717C107.101 190.068 106.981 190.356 106.74 190.579C106.53 190.803 106.274 190.914 105.973 190.914H100.289C99.9882 190.914 99.7175 190.803 99.4769 190.579C99.2663 190.356 99.161 190.068 99.161 189.717V176.644C99.161 175.144 98.8152 173.995 98.1234 173.197C97.4617 172.367 96.4692 171.952 95.1459 171.952C93.9127 171.952 92.9202 172.367 92.1683 173.197C91.4465 173.995 91.0856 175.144 91.0856 176.644V189.717C91.0856 190.068 90.9653 190.356 90.7247 190.579C90.5141 190.803 90.2585 190.914 89.9577 190.914H84.3184Z" fill="white"/>
<path d="M123.234 191.393C120.708 191.393 118.572 190.962 116.828 190.1C115.114 189.238 113.79 188.009 112.858 186.413C111.956 184.785 111.444 182.854 111.324 180.619C111.294 179.981 111.279 179.262 111.279 178.464C111.279 177.634 111.294 176.916 111.324 176.309C111.444 174.043 111.986 172.111 112.948 170.515C113.911 168.919 115.249 167.69 116.963 166.828C118.708 165.966 120.798 165.535 123.234 165.535C125.7 165.535 127.791 165.966 129.505 166.828C131.25 167.69 132.603 168.919 133.565 170.515C134.528 172.111 135.069 174.043 135.19 176.309C135.22 176.916 135.235 177.634 135.235 178.464C135.235 179.262 135.22 179.981 135.19 180.619C135.069 182.854 134.543 184.785 133.611 186.413C132.708 188.009 131.385 189.238 129.64 190.1C127.926 190.962 125.791 191.393 123.234 191.393ZM123.234 185.551C124.588 185.551 125.565 185.12 126.167 184.258C126.798 183.396 127.159 182.103 127.249 180.38C127.279 179.901 127.294 179.262 127.294 178.464C127.294 177.666 127.279 177.028 127.249 176.549C127.159 174.857 126.798 173.58 126.167 172.718C125.565 171.824 124.588 171.377 123.234 171.377C121.911 171.377 120.933 171.824 120.302 172.718C119.67 173.58 119.324 174.857 119.264 176.549C119.234 177.028 119.219 177.666 119.219 178.464C119.219 179.262 119.234 179.901 119.264 180.38C119.324 182.103 119.67 183.396 120.302 184.258C120.933 185.12 121.911 185.551 123.234 185.551Z" fill="white"/>
<path d="M140.8 190.914C140.469 190.914 140.198 190.803 139.987 190.579C139.777 190.356 139.672 190.068 139.672 189.717V167.211C139.672 166.86 139.777 166.572 139.987 166.349C140.198 166.126 140.469 166.014 140.8 166.014H145.717C146.048 166.014 146.319 166.126 146.529 166.349C146.74 166.572 146.845 166.86 146.845 167.211V168.839C147.446 167.977 148.289 167.227 149.371 166.588C150.454 165.918 151.732 165.567 153.206 165.535C156.665 165.471 159.041 166.86 160.334 169.701C161.026 168.488 162.018 167.498 163.312 166.732C164.605 165.934 166.019 165.535 167.552 165.535C169.116 165.535 170.515 165.918 171.748 166.684C173.011 167.418 174.019 168.568 174.771 170.132C175.523 171.664 175.899 173.66 175.899 176.118V189.717C175.899 190.068 175.778 190.356 175.538 190.579C175.327 190.803 175.071 190.914 174.771 190.914H169.537C169.207 190.914 168.921 190.803 168.68 190.579C168.47 190.356 168.364 190.068 168.364 189.717V176.453C168.364 175.336 168.214 174.458 167.913 173.819C167.613 173.149 167.207 172.67 166.695 172.383C166.184 172.095 165.597 171.952 164.936 171.952C164.394 171.952 163.853 172.095 163.312 172.383C162.8 172.67 162.379 173.149 162.048 173.819C161.748 174.458 161.597 175.336 161.597 176.453V189.717C161.597 190.068 161.492 190.356 161.282 190.579C161.071 190.803 160.8 190.914 160.469 190.914H155.236C154.905 190.914 154.635 190.803 154.424 190.579C154.214 190.356 154.108 190.068 154.108 189.717V176.453C154.108 175.336 153.943 174.458 153.612 173.819C153.281 173.149 152.86 172.67 152.349 172.383C151.838 172.095 151.266 171.952 150.635 171.952C150.093 171.952 149.552 172.095 149.01 172.383C148.499 172.67 148.078 173.149 147.747 173.819C147.446 174.458 147.296 175.32 147.296 176.405V189.717C147.296 190.068 147.176 190.356 146.935 190.579C146.725 190.803 146.454 190.914 146.123 190.914H140.8Z" fill="white"/>
<path d="M182.081 190.914C181.75 190.914 181.48 190.803 181.269 190.579C181.058 190.356 180.953 190.068 180.953 189.717V167.211C180.953 166.86 181.058 166.572 181.269 166.349C181.48 166.126 181.75 166.014 182.081 166.014H187.405C187.705 166.014 187.961 166.126 188.171 166.349C188.412 166.572 188.532 166.86 188.532 167.211V189.717C188.532 190.068 188.412 190.356 188.171 190.579C187.961 190.803 187.705 190.914 187.405 190.914H182.081ZM182.126 162.422C181.645 162.422 181.404 162.167 181.404 161.656C181.404 161.401 181.48 161.193 181.63 161.034L185.6 155.91C185.901 155.527 186.156 155.287 186.367 155.192C186.577 155.064 186.878 155 187.269 155H193.179C193.751 155 194.036 155.319 194.036 155.958C194.036 156.181 193.961 156.373 193.811 156.532L187.856 161.752C187.615 161.975 187.374 162.151 187.134 162.279C186.893 162.374 186.562 162.422 186.141 162.422H182.126Z" fill="white"/>
<path d="M200.856 191.393C199.232 191.393 197.773 191.074 196.48 190.436C195.216 189.765 194.209 188.871 193.457 187.754C192.705 186.637 192.329 185.376 192.329 183.971C192.329 181.704 193.201 179.917 194.946 178.608C196.69 177.267 199.006 176.357 201.893 175.878L207.533 174.968V174.298C207.533 173.149 207.307 172.271 206.856 171.664C206.405 171.058 205.578 170.754 204.375 170.754C203.532 170.754 202.841 170.93 202.299 171.281C201.788 171.632 201.382 172.111 201.081 172.718C200.811 173.133 200.435 173.34 199.953 173.34H194.901C194.57 173.34 194.314 173.245 194.134 173.053C193.953 172.83 193.878 172.574 193.908 172.287C193.908 171.712 194.104 171.058 194.495 170.324C194.916 169.557 195.547 168.807 196.389 168.073C197.231 167.339 198.314 166.732 199.638 166.253C200.961 165.774 202.555 165.535 204.42 165.535C206.375 165.535 208.044 165.774 209.427 166.253C210.811 166.732 211.924 167.402 212.766 168.264C213.638 169.126 214.285 170.148 214.706 171.329C215.127 172.478 215.337 173.755 215.337 175.16V189.717C215.337 190.068 215.217 190.356 214.976 190.579C214.766 190.803 214.51 190.914 214.21 190.914H208.976C208.645 190.914 208.375 190.803 208.164 190.579C207.954 190.356 207.848 190.068 207.848 189.717V188.041C207.457 188.648 206.931 189.207 206.269 189.717C205.608 190.228 204.826 190.627 203.923 190.914C203.051 191.234 202.029 191.393 200.856 191.393ZM202.976 185.934C203.848 185.934 204.63 185.743 205.322 185.36C206.044 184.945 206.6 184.322 206.991 183.492C207.412 182.63 207.623 181.561 207.623 180.284V179.613L203.788 180.332C202.375 180.587 201.337 180.986 200.675 181.529C200.044 182.04 199.728 182.646 199.728 183.348C199.728 183.891 199.878 184.354 200.179 184.737C200.48 185.12 200.871 185.424 201.352 185.647C201.833 185.839 202.375 185.934 202.976 185.934Z" fill="white"/>
<path d="M233.872 191.393C231.015 191.393 228.564 190.899 226.519 189.909C224.504 188.919 222.925 187.467 221.782 185.551C220.669 183.636 220.052 181.257 219.932 178.416C219.902 177.107 219.887 175.703 219.887 174.202C219.887 172.702 219.902 171.265 219.932 169.893C220.052 167.115 220.684 164.769 221.827 162.853C222.97 160.906 224.564 159.437 226.609 158.448C228.654 157.426 231.075 156.915 233.872 156.915C235.857 156.915 237.692 157.187 239.376 157.73C241.061 158.24 242.534 159.006 243.798 160.028C245.061 161.018 246.038 162.231 246.73 163.667C247.452 165.072 247.828 166.668 247.858 168.456C247.888 168.743 247.798 168.983 247.587 169.174C247.407 169.366 247.181 169.462 246.91 169.462H240.82C240.429 169.462 240.128 169.382 239.918 169.222C239.707 169.031 239.527 168.695 239.376 168.217C238.955 166.525 238.264 165.375 237.301 164.769C236.369 164.13 235.211 163.811 233.827 163.811C232.173 163.811 230.865 164.306 229.902 165.295C228.94 166.253 228.414 167.865 228.323 170.132C228.233 172.75 228.233 175.431 228.323 178.177C228.414 180.443 228.94 182.072 229.902 183.061C230.865 184.019 232.173 184.498 233.827 184.498C235.211 184.498 236.384 184.179 237.346 183.54C238.309 182.902 238.985 181.752 239.376 180.092C239.497 179.613 239.662 179.294 239.873 179.135C240.113 178.943 240.429 178.847 240.82 178.847H246.91C247.181 178.847 247.407 178.943 247.587 179.135C247.798 179.326 247.888 179.566 247.858 179.853C247.828 181.641 247.452 183.253 246.73 184.689C246.038 186.094 245.061 187.307 243.798 188.329C242.534 189.318 241.061 190.084 239.376 190.627C237.692 191.138 235.857 191.393 233.872 191.393Z" fill="white"/>
<path d="M253.233 190.914C252.902 190.914 252.632 190.803 252.421 190.579C252.211 190.356 252.105 190.068 252.105 189.717V167.211C252.105 166.86 252.211 166.572 252.421 166.349C252.632 166.126 252.902 166.014 253.233 166.014H258.557C258.857 166.014 259.113 166.126 259.324 166.349C259.564 166.572 259.685 166.86 259.685 167.211V189.717C259.685 190.068 259.564 190.356 259.324 190.579C259.113 190.803 258.857 190.914 258.557 190.914H253.233ZM253.188 162.422C252.857 162.422 252.587 162.311 252.376 162.087C252.165 161.864 252.06 161.576 252.06 161.225V156.963C252.06 156.612 252.165 156.325 252.376 156.101C252.587 155.846 252.857 155.718 253.188 155.718H258.557C258.888 155.718 259.158 155.846 259.369 156.101C259.609 156.325 259.73 156.612 259.73 156.963V161.225C259.73 161.576 259.609 161.864 259.369 162.087C259.158 162.311 258.888 162.422 258.557 162.422H253.188Z" fill="white"/>
<path d="M267.508 190.914C267.177 190.914 266.906 190.803 266.696 190.579C266.485 190.356 266.38 190.068 266.38 189.717V167.211C266.38 166.892 266.485 166.62 266.696 166.397C266.906 166.141 267.177 166.014 267.508 166.014H272.696C273.027 166.014 273.297 166.141 273.508 166.397C273.718 166.62 273.824 166.892 273.824 167.211V169.126C274.636 168.137 275.598 167.371 276.711 166.828C277.854 166.285 279.132 166.014 280.546 166.014H282.531C282.832 166.014 283.087 166.126 283.298 166.349C283.538 166.572 283.659 166.86 283.659 167.211V172.143C283.659 172.462 283.538 172.75 283.298 173.005C283.087 173.229 282.832 173.34 282.531 173.34H278.155C276.922 173.34 275.959 173.707 275.267 174.442C274.606 175.144 274.275 176.15 274.275 177.459V189.717C274.275 190.068 274.155 190.356 273.914 190.579C273.703 190.803 273.433 190.914 273.102 190.914H267.508Z" fill="white"/>
<path d="M297.472 191.393C295.247 191.393 293.277 190.962 291.562 190.1C289.848 189.238 288.48 187.993 287.457 186.365C286.465 184.705 285.923 182.726 285.833 180.427C285.803 179.917 285.788 179.278 285.788 178.512C285.788 177.714 285.803 177.059 285.833 176.549C285.923 174.218 286.465 172.239 287.457 170.611C288.45 168.951 289.803 167.69 291.517 166.828C293.262 165.966 295.247 165.535 297.472 165.535C299.548 165.535 301.322 165.854 302.796 166.493C304.27 167.099 305.473 167.865 306.405 168.791C307.337 169.717 308.029 170.675 308.48 171.664C308.962 172.622 309.217 173.468 309.247 174.202C309.277 174.522 309.172 174.809 308.932 175.064C308.691 175.288 308.42 175.399 308.119 175.399H302.39C302.059 175.399 301.803 175.32 301.623 175.16C301.443 175 301.277 174.761 301.127 174.442C300.766 173.452 300.3 172.75 299.728 172.335C299.187 171.92 298.48 171.712 297.608 171.712C296.405 171.712 295.472 172.127 294.811 172.957C294.179 173.787 293.833 175.064 293.773 176.788C293.743 178.065 293.743 179.198 293.773 180.188C293.833 181.944 294.179 183.221 294.811 184.019C295.472 184.817 296.405 185.216 297.608 185.216C298.54 185.216 299.277 185.009 299.818 184.594C300.36 184.179 300.796 183.476 301.127 182.487C301.277 182.167 301.443 181.928 301.623 181.768C301.803 181.609 302.059 181.529 302.39 181.529H308.119C308.42 181.529 308.691 181.657 308.932 181.912C309.172 182.135 309.277 182.407 309.247 182.726C309.217 183.269 309.067 183.907 308.796 184.641C308.525 185.344 308.104 186.094 307.533 186.892C306.962 187.69 306.21 188.44 305.277 189.143C304.375 189.813 303.277 190.356 301.984 190.771C300.691 191.186 299.187 191.393 297.472 191.393Z" fill="white"/>
<path d="M321.917 191.393C320.203 191.393 318.669 190.978 317.316 190.148C315.992 189.318 314.955 188.105 314.203 186.509C313.451 184.881 313.075 182.902 313.075 180.571V167.211C313.075 166.86 313.18 166.572 313.391 166.349C313.601 166.126 313.872 166.014 314.203 166.014H319.842C320.173 166.014 320.444 166.126 320.654 166.349C320.865 166.572 320.97 166.86 320.97 167.211V180.284C320.97 183.412 322.293 184.977 324.94 184.977C326.173 184.977 327.151 184.578 327.873 183.779C328.624 182.949 329 181.784 329 180.284V167.211C329 166.86 329.106 166.572 329.316 166.349C329.527 166.126 329.797 166.014 330.128 166.014H335.768C336.098 166.014 336.369 166.126 336.58 166.349C336.79 166.572 336.895 166.86 336.895 167.211V189.717C336.895 190.068 336.79 190.356 336.58 190.579C336.369 190.803 336.098 190.914 335.768 190.914H330.534C330.234 190.914 329.963 190.803 329.722 190.579C329.512 190.356 329.406 190.068 329.406 189.717V187.898C328.624 189.047 327.602 189.925 326.339 190.531C325.106 191.106 323.632 191.393 321.917 191.393Z" fill="white"/>
<path d="M343.33 190.914C342.999 190.914 342.728 190.803 342.518 190.579C342.307 190.356 342.202 190.068 342.202 189.717V158.113C342.202 157.761 342.307 157.474 342.518 157.251C342.728 157.027 342.999 156.915 343.33 156.915H348.653C348.984 156.915 349.255 157.027 349.465 157.251C349.676 157.474 349.781 157.761 349.781 158.113V189.717C349.781 190.068 349.676 190.356 349.465 190.579C349.255 190.803 348.984 190.914 348.653 190.914H343.33Z" fill="white"/>
<path d="M362.149 191.393C360.524 191.393 359.066 191.074 357.772 190.436C356.509 189.765 355.502 188.871 354.75 187.754C353.998 186.637 353.622 185.376 353.622 183.971C353.622 181.704 354.494 179.917 356.239 178.608C357.983 177.267 360.299 176.357 363.186 175.878L368.826 174.968V174.298C368.826 173.149 368.6 172.271 368.149 171.664C367.698 171.058 366.871 170.754 365.668 170.754C364.825 170.754 364.134 170.93 363.592 171.281C363.081 171.632 362.675 172.111 362.374 172.718C362.103 173.133 361.727 173.34 361.246 173.34H356.193C355.863 173.34 355.607 173.245 355.427 173.053C355.246 172.83 355.171 172.574 355.201 172.287C355.201 171.712 355.396 171.058 355.787 170.324C356.208 169.557 356.84 168.807 357.682 168.073C358.524 167.339 359.607 166.732 360.93 166.253C362.254 165.774 363.848 165.535 365.713 165.535C367.668 165.535 369.337 165.774 370.72 166.253C372.104 166.732 373.217 167.402 374.059 168.264C374.931 169.126 375.578 170.148 375.999 171.329C376.42 172.478 376.63 173.755 376.63 175.16V189.717C376.63 190.068 376.51 190.356 376.269 190.579C376.059 190.803 375.803 190.914 375.502 190.914H370.269C369.938 190.914 369.668 190.803 369.457 190.579C369.247 190.356 369.141 190.068 369.141 189.717V188.041C368.75 188.648 368.224 189.207 367.562 189.717C366.901 190.228 366.119 190.627 365.216 190.914C364.344 191.234 363.322 191.393 362.149 191.393ZM364.269 185.934C365.141 185.934 365.923 185.743 366.615 185.36C367.337 184.945 367.893 184.322 368.284 183.492C368.705 182.63 368.916 181.561 368.916 180.284V179.613L365.081 180.332C363.667 180.587 362.63 180.986 361.968 181.529C361.336 182.04 361.021 182.646 361.021 183.348C361.021 183.891 361.171 184.354 361.472 184.737C361.773 185.12 362.164 185.424 362.645 185.647C363.126 185.839 363.667 185.934 364.269 185.934Z" fill="white"/>
<path d="M382.849 190.914C382.518 190.914 382.248 190.803 382.037 190.579C381.826 190.356 381.721 190.068 381.721 189.717V167.211C381.721 166.892 381.826 166.62 382.037 166.397C382.248 166.141 382.518 166.014 382.849 166.014H388.037C388.368 166.014 388.639 166.141 388.849 166.397C389.06 166.62 389.165 166.892 389.165 167.211V169.126C389.977 168.137 390.94 167.371 392.052 166.828C393.195 166.285 394.474 166.014 395.887 166.014H397.872C398.173 166.014 398.429 166.126 398.639 166.349C398.88 166.572 399 166.86 399 167.211V172.143C399 172.462 398.88 172.75 398.639 173.005C398.429 173.229 398.173 173.34 397.872 173.34H393.496C392.263 173.34 391.3 173.707 390.609 174.442C389.947 175.144 389.616 176.15 389.616 177.459V189.717C389.616 190.068 389.496 190.356 389.255 190.579C389.045 190.803 388.774 190.914 388.443 190.914H382.849Z" fill="white"/>
<path d="M6.65116 225C5.25905 225 4.0646 224.726 3.06778 224.179C2.08815 223.632 1.33195 222.793 0.79917 221.662C0.26639 220.531 0 219.08 0 217.311V206.201C0 206.001 0.0515593 205.846 0.154678 205.736C0.257797 205.627 0.395288 205.572 0.567153 205.572H1.03119C1.22024 205.572 1.36632 205.627 1.46944 205.736C1.57256 205.846 1.62412 206.001 1.62412 206.201V217.393C1.62412 219.436 2.07097 220.941 2.96466 221.908C3.87554 222.875 5.10438 223.358 6.65116 223.358C8.18075 223.358 9.3924 222.875 10.2861 221.908C11.197 220.941 11.6524 219.436 11.6524 217.393V206.201C11.6524 206.001 11.704 205.846 11.8071 205.736C11.9274 205.627 12.0735 205.572 12.2453 205.572H12.7094C12.8812 205.572 13.0187 205.627 13.1219 205.736C13.225 205.846 13.2765 206.001 13.2765 206.201V217.311C13.2765 219.08 13.0101 220.531 12.4774 221.662C11.9618 222.793 11.2142 223.632 10.2345 224.179C9.2549 224.726 8.06045 225 6.65116 225Z" fill="white"/>
<path d="M31.1008 224.726C30.9289 224.726 30.7914 224.672 30.6883 224.562C30.5852 224.453 30.5336 224.307 30.5336 224.124V211.099C30.5336 210.917 30.5852 210.771 30.6883 210.662C30.7914 210.552 30.9289 210.497 31.1008 210.497H31.539C31.7109 210.497 31.8484 210.552 31.9515 210.662C32.0546 210.771 32.1062 210.917 32.1062 211.099V212.385C32.5702 211.747 33.1288 211.227 33.7818 210.826C34.4521 210.424 35.3372 210.224 36.4372 210.224C37.6058 210.224 38.5769 210.497 39.3503 211.045C40.1408 211.574 40.7252 212.303 41.1033 213.234C41.4986 214.146 41.6962 215.186 41.6962 216.353V224.124C41.6962 224.307 41.6446 224.453 41.5415 224.562C41.4384 224.672 41.3009 224.726 41.1291 224.726H40.6908C40.5189 224.726 40.3814 224.672 40.2783 224.562C40.1752 224.453 40.1236 224.307 40.1236 224.124V216.49C40.1236 215.031 39.7885 213.89 39.1182 213.07C38.448 212.23 37.4683 211.811 36.1794 211.811C34.9591 211.811 33.9709 212.23 33.2147 213.07C32.4757 213.89 32.1062 215.031 32.1062 216.49V224.124C32.1062 224.307 32.0546 224.453 31.9515 224.562C31.8484 224.672 31.7109 224.726 31.539 224.726H31.1008Z" fill="white"/>
<path d="M59.1966 224.726C59.0247 224.726 58.8872 224.672 58.7841 224.562C58.681 224.453 58.6294 224.307 58.6294 224.124V211.099C58.6294 210.917 58.681 210.771 58.7841 210.662C58.8872 210.552 59.0247 210.497 59.1966 210.497H59.6348C59.8067 210.497 59.9442 210.552 60.0473 210.662C60.1504 210.771 60.202 210.917 60.202 211.099V224.124C60.202 224.307 60.1504 224.453 60.0473 224.562C59.9442 224.672 59.8067 224.726 59.6348 224.726H59.1966ZM58.913 207.57C58.7411 207.57 58.6036 207.515 58.5005 207.405C58.3974 207.296 58.3458 207.15 58.3458 206.968V205.928C58.3458 205.745 58.3974 205.599 58.5005 205.49C58.6036 205.362 58.7411 205.298 58.913 205.298H59.8926C60.0645 205.298 60.202 205.362 60.3051 205.49C60.4254 205.599 60.4856 205.745 60.4856 205.928V206.968C60.4856 207.15 60.4254 207.296 60.3051 207.405C60.202 207.515 60.0645 207.57 59.8926 207.57H58.913Z" fill="white"/>
<path d="M81.8738 224.726C81.5988 224.726 81.384 224.663 81.2293 224.535C81.0918 224.407 80.9801 224.243 80.8942 224.042L76.1507 211.346C76.1164 211.236 76.0992 211.136 76.0992 211.045C76.0992 210.899 76.1507 210.771 76.2539 210.662C76.357 210.552 76.4773 210.497 76.6148 210.497H77.1561C77.328 210.497 77.4569 210.552 77.5428 210.662C77.646 210.753 77.7061 210.835 77.7233 210.908L82.0801 222.729L86.4368 210.908C86.4712 210.835 86.5313 210.753 86.6173 210.662C86.7032 210.552 86.8321 210.497 87.004 210.497H87.5454C87.6828 210.497 87.8032 210.552 87.9063 210.662C88.0094 210.771 88.061 210.899 88.061 211.045C88.061 211.136 88.0438 211.236 88.0094 211.346L83.2659 224.042C83.1972 224.243 83.0855 224.407 82.9308 224.535C82.7761 224.663 82.5613 224.726 82.2863 224.726H81.8738Z" fill="white"/>
<path d="M108.493 225C106.826 225 105.502 224.425 104.523 223.276C103.543 222.109 102.984 220.585 102.847 218.706C102.83 218.433 102.821 218.068 102.821 217.612C102.821 217.156 102.83 216.791 102.847 216.517C102.933 215.277 103.208 214.182 103.672 213.234C104.136 212.285 104.772 211.546 105.58 211.017C106.405 210.488 107.376 210.224 108.493 210.224C109.696 210.224 110.718 210.507 111.561 211.072C112.403 211.638 113.047 212.449 113.494 213.507C113.958 214.565 114.19 215.824 114.19 217.284V217.694C114.19 217.876 114.13 218.022 114.01 218.132C113.906 218.241 113.769 218.296 113.597 218.296H104.42C104.42 218.296 104.42 218.332 104.42 218.405C104.42 218.478 104.42 218.533 104.42 218.57C104.454 219.391 104.634 220.175 104.961 220.923C105.287 221.653 105.752 222.255 106.353 222.729C106.955 223.185 107.668 223.413 108.493 223.413C109.232 223.413 109.842 223.294 110.323 223.057C110.822 222.82 111.217 222.565 111.509 222.291C111.801 221.999 111.99 221.78 112.076 221.634C112.231 221.397 112.351 221.26 112.437 221.224C112.523 221.169 112.66 221.142 112.85 221.142H113.262C113.417 221.142 113.546 221.196 113.649 221.306C113.769 221.397 113.821 221.525 113.803 221.689C113.786 221.944 113.649 222.264 113.391 222.647C113.15 223.012 112.798 223.376 112.334 223.741C111.887 224.106 111.337 224.407 110.684 224.644C110.031 224.881 109.301 225 108.493 225ZM104.42 216.764H112.618V216.654C112.618 215.742 112.454 214.921 112.128 214.191C111.801 213.462 111.329 212.887 110.71 212.468C110.091 212.03 109.352 211.811 108.493 211.811C107.633 211.811 106.894 212.03 106.276 212.468C105.674 212.887 105.21 213.462 104.884 214.191C104.574 214.921 104.42 215.742 104.42 216.654V216.764Z" fill="white"/>
<path d="M131.047 224.726C130.875 224.726 130.738 224.672 130.635 224.562C130.532 224.453 130.48 224.307 130.48 224.124V211.127C130.48 210.944 130.532 210.798 130.635 210.689C130.738 210.561 130.875 210.497 131.047 210.497H131.46C131.632 210.497 131.769 210.561 131.872 210.689C131.993 210.798 132.053 210.944 132.053 211.127V212.385C132.362 211.747 132.809 211.273 133.393 210.963C133.978 210.652 134.699 210.497 135.559 210.497H136.513C136.685 210.497 136.822 210.552 136.925 210.662C137.028 210.771 137.08 210.917 137.08 211.099V211.482C137.08 211.665 137.028 211.811 136.925 211.92C136.822 212.03 136.685 212.084 136.513 212.084H135.404C134.373 212.084 133.557 212.404 132.955 213.042C132.354 213.681 132.053 214.547 132.053 215.642V224.124C132.053 224.307 131.993 224.453 131.872 224.562C131.769 224.672 131.632 224.726 131.46 224.726H131.047Z" fill="white"/>
<path d="M156.586 225C155.692 225 154.919 224.872 154.266 224.617C153.63 224.362 153.106 224.061 152.693 223.714C152.281 223.349 151.972 222.993 151.765 222.647C151.576 222.3 151.473 222.036 151.456 221.853C151.439 221.653 151.499 221.507 151.636 221.415C151.774 221.306 151.903 221.251 152.023 221.251H152.41C152.513 221.251 152.599 221.269 152.668 221.306C152.754 221.342 152.857 221.443 152.977 221.607C153.2 221.917 153.458 222.218 153.75 222.51C154.043 222.784 154.412 223.002 154.859 223.167C155.323 223.331 155.899 223.413 156.586 223.413C157.617 223.413 158.468 223.203 159.138 222.784C159.809 222.364 160.144 221.744 160.144 220.923C160.144 220.412 160.006 220.002 159.731 219.691C159.473 219.381 159.027 219.108 158.391 218.871C157.755 218.633 156.895 218.387 155.813 218.132C154.73 217.858 153.896 217.53 153.312 217.147C152.745 216.764 152.358 216.326 152.152 215.833C151.946 215.322 151.843 214.775 151.843 214.191C151.843 213.553 152.015 212.933 152.358 212.331C152.702 211.711 153.209 211.209 153.879 210.826C154.567 210.424 155.426 210.224 156.457 210.224C157.299 210.224 158.013 210.342 158.597 210.579C159.198 210.817 159.688 211.109 160.066 211.455C160.444 211.783 160.719 212.112 160.891 212.44C161.08 212.769 161.184 213.033 161.201 213.234C161.218 213.416 161.166 213.562 161.046 213.672C160.926 213.781 160.788 213.836 160.634 213.836H160.247C160.109 213.836 159.998 213.808 159.912 213.754C159.826 213.681 159.748 213.589 159.68 213.48C159.508 213.188 159.302 212.914 159.061 212.659C158.82 212.404 158.494 212.203 158.081 212.057C157.686 211.893 157.145 211.811 156.457 211.811C155.426 211.811 154.661 212.039 154.163 212.495C153.664 212.933 153.415 213.498 153.415 214.191C153.415 214.593 153.518 214.949 153.725 215.259C153.931 215.551 154.318 215.824 154.885 216.08C155.452 216.317 156.277 216.572 157.36 216.846C158.459 217.101 159.327 217.42 159.963 217.803C160.599 218.168 161.046 218.606 161.304 219.117C161.579 219.628 161.716 220.23 161.716 220.923C161.716 221.653 161.519 222.328 161.123 222.948C160.745 223.568 160.17 224.07 159.396 224.453C158.64 224.818 157.703 225 156.586 225Z" fill="white"/>
<path d="M178.478 224.726C178.306 224.726 178.169 224.672 178.065 224.562C177.962 224.453 177.911 224.307 177.911 224.124V211.099C177.911 210.917 177.962 210.771 178.065 210.662C178.169 210.552 178.306 210.497 178.478 210.497H178.916C179.088 210.497 179.226 210.552 179.329 210.662C179.432 210.771 179.483 210.917 179.483 211.099V224.124C179.483 224.307 179.432 224.453 179.329 224.562C179.226 224.672 179.088 224.726 178.916 224.726H178.478ZM178.194 207.57C178.022 207.57 177.885 207.515 177.782 207.405C177.679 207.296 177.627 207.15 177.627 206.968V205.928C177.627 205.745 177.679 205.599 177.782 205.49C177.885 205.362 178.022 205.298 178.194 205.298H179.174C179.346 205.298 179.483 205.362 179.586 205.49C179.707 205.599 179.767 205.745 179.767 205.928V206.968C179.767 207.15 179.707 207.296 179.586 207.405C179.483 207.515 179.346 207.57 179.174 207.57H178.194Z" fill="white"/>
<path d="M201.387 225C200.39 225 199.54 224.808 198.835 224.425C198.148 224.042 197.589 223.531 197.159 222.893C196.73 222.255 196.412 221.543 196.205 220.759C196.016 219.974 195.905 219.181 195.87 218.378C195.853 218.104 195.845 217.849 195.845 217.612C195.845 217.375 195.853 217.119 195.87 216.846C195.905 216.043 196.016 215.25 196.205 214.465C196.412 213.681 196.73 212.969 197.159 212.331C197.589 211.692 198.148 211.181 198.835 210.798C199.54 210.415 200.39 210.224 201.387 210.224C202.453 210.224 203.329 210.434 204.017 210.853C204.721 211.273 205.289 211.783 205.718 212.385V205.9C205.718 205.718 205.77 205.572 205.873 205.463C205.976 205.353 206.113 205.298 206.285 205.298H206.724C206.895 205.298 207.033 205.353 207.136 205.463C207.239 205.572 207.291 205.718 207.291 205.9V224.124C207.291 224.307 207.239 224.453 207.136 224.562C207.033 224.672 206.895 224.726 206.724 224.726H206.285C206.113 224.726 205.976 224.672 205.873 224.562C205.77 224.453 205.718 224.307 205.718 224.124V222.838C205.289 223.459 204.721 223.978 204.017 224.398C203.329 224.799 202.453 225 201.387 225ZM201.542 223.413C202.521 223.413 203.312 223.167 203.914 222.674C204.515 222.182 204.962 221.57 205.254 220.841C205.546 220.093 205.701 219.345 205.718 218.597C205.735 218.323 205.744 217.968 205.744 217.53C205.744 217.092 205.735 216.736 205.718 216.463C205.701 215.733 205.538 215.012 205.228 214.301C204.936 213.589 204.489 212.997 203.888 212.522C203.286 212.048 202.504 211.811 201.542 211.811C200.545 211.811 199.746 212.048 199.144 212.522C198.56 212.997 198.139 213.617 197.881 214.383C197.623 215.149 197.477 215.97 197.443 216.846C197.426 217.356 197.426 217.867 197.443 218.378C197.477 219.254 197.623 220.075 197.881 220.841C198.139 221.607 198.56 222.227 199.144 222.701C199.746 223.176 200.545 223.413 201.542 223.413Z" fill="white"/>
<path d="M227.994 225C227.169 225 226.404 224.818 225.699 224.453C225.012 224.088 224.453 223.604 224.024 223.002C223.594 222.382 223.379 221.689 223.379 220.923C223.379 219.682 223.852 218.688 224.797 217.94C225.742 217.192 226.971 216.709 228.484 216.49L232.557 215.888V214.93C232.557 213.963 232.273 213.206 231.706 212.659C231.156 212.094 230.271 211.811 229.051 211.811C228.157 211.811 227.435 212.002 226.885 212.385C226.335 212.75 225.957 213.234 225.751 213.836C225.665 214.109 225.502 214.246 225.261 214.246H224.849C224.642 214.246 224.496 214.191 224.41 214.082C224.325 213.954 224.282 213.808 224.282 213.644C224.282 213.389 224.367 213.07 224.539 212.686C224.728 212.303 225.012 211.929 225.39 211.565C225.768 211.181 226.258 210.862 226.86 210.607C227.461 210.351 228.191 210.224 229.051 210.224C230.065 210.224 230.898 210.37 231.551 210.662C232.222 210.953 232.737 211.337 233.098 211.811C233.476 212.267 233.743 212.778 233.897 213.343C234.052 213.909 234.129 214.465 234.129 215.012V224.124C234.129 224.307 234.078 224.453 233.975 224.562C233.872 224.672 233.734 224.726 233.562 224.726H233.124C232.952 224.726 232.815 224.672 232.712 224.562C232.608 224.453 232.557 224.307 232.557 224.124V222.838C232.351 223.167 232.058 223.495 231.68 223.823C231.302 224.152 230.812 224.434 230.211 224.672C229.627 224.891 228.888 225 227.994 225ZM228.252 223.413C229.042 223.413 229.764 223.23 230.417 222.866C231.07 222.501 231.586 221.944 231.964 221.196C232.359 220.43 232.557 219.473 232.557 218.323V217.393L229.231 217.886C227.822 218.086 226.756 218.433 226.035 218.925C225.313 219.418 224.952 220.038 224.952 220.786C224.952 221.388 225.115 221.881 225.442 222.264C225.768 222.647 226.181 222.939 226.679 223.139C227.195 223.322 227.719 223.413 228.252 223.413Z" fill="white"/>
<path d="M255.942 225C254.946 225 254.095 224.808 253.39 224.425C252.703 224.042 252.144 223.531 251.715 222.893C251.285 222.255 250.967 221.543 250.761 220.759C250.572 219.974 250.46 219.181 250.426 218.378C250.408 218.104 250.4 217.849 250.4 217.612C250.4 217.375 250.408 217.119 250.426 216.846C250.46 216.043 250.572 215.25 250.761 214.465C250.967 213.681 251.285 212.969 251.715 212.331C252.144 211.692 252.703 211.181 253.39 210.798C254.095 210.415 254.946 210.224 255.942 210.224C257.008 210.224 257.884 210.434 258.572 210.853C259.277 211.273 259.844 211.783 260.273 212.385V205.9C260.273 205.718 260.325 205.572 260.428 205.463C260.531 205.353 260.669 205.298 260.841 205.298H261.279C261.451 205.298 261.588 205.353 261.691 205.463C261.794 205.572 261.846 205.718 261.846 205.9V224.124C261.846 224.307 261.794 224.453 261.691 224.562C261.588 224.672 261.451 224.726 261.279 224.726H260.841C260.669 224.726 260.531 224.672 260.428 224.562C260.325 224.453 260.273 224.307 260.273 224.124V222.838C259.844 223.459 259.277 223.978 258.572 224.398C257.884 224.799 257.008 225 255.942 225ZM256.097 223.413C257.077 223.413 257.867 223.167 258.469 222.674C259.07 222.182 259.517 221.57 259.809 220.841C260.102 220.093 260.256 219.345 260.273 218.597C260.291 218.323 260.299 217.968 260.299 217.53C260.299 217.092 260.291 216.736 260.273 216.463C260.256 215.733 260.093 215.012 259.784 214.301C259.491 213.589 259.045 212.997 258.443 212.522C257.842 212.048 257.06 211.811 256.097 211.811C255.1 211.811 254.301 212.048 253.7 212.522C253.115 212.997 252.694 213.617 252.436 214.383C252.179 215.149 252.033 215.97 251.998 216.846C251.981 217.356 251.981 217.867 251.998 218.378C252.033 219.254 252.179 220.075 252.436 220.841C252.694 221.607 253.115 222.227 253.7 222.701C254.301 223.176 255.1 223.413 256.097 223.413Z" fill="white"/>
<path d="M299.378 224.726C299.207 224.726 299.069 224.672 298.966 224.562C298.863 224.453 298.811 224.307 298.811 224.124V206.174C298.811 205.992 298.863 205.846 298.966 205.736C299.069 205.627 299.207 205.572 299.378 205.572H299.868C300.04 205.572 300.178 205.627 300.281 205.736C300.384 205.846 300.435 205.992 300.435 206.174V224.124C300.435 224.307 300.384 224.453 300.281 224.562C300.178 224.672 300.04 224.726 299.868 224.726H299.378Z" fill="white"/>
<path d="M322.915 225C321.712 225 320.689 224.754 319.847 224.261C319.005 223.75 318.36 223.021 317.913 222.072C317.484 221.124 317.252 220.002 317.217 218.706C317.2 218.433 317.191 218.068 317.191 217.612C317.191 217.156 317.2 216.791 317.217 216.517C317.252 215.204 317.484 214.082 317.913 213.152C318.36 212.203 319.005 211.482 319.847 210.99C320.689 210.479 321.712 210.224 322.915 210.224C323.825 210.224 324.607 210.361 325.261 210.634C325.931 210.89 326.481 211.236 326.91 211.674C327.34 212.094 327.667 212.559 327.89 213.07C328.113 213.58 328.234 214.082 328.251 214.575C328.268 214.757 328.217 214.903 328.096 215.012C327.976 215.122 327.839 215.177 327.684 215.177H327.323C327.151 215.177 327.022 215.14 326.936 215.067C326.867 214.976 326.79 214.821 326.704 214.602C326.343 213.562 325.845 212.842 325.209 212.44C324.59 212.021 323.825 211.811 322.915 211.811C321.746 211.811 320.775 212.194 320.001 212.96C319.245 213.708 318.841 214.939 318.79 216.654C318.755 217.293 318.755 217.931 318.79 218.57C318.841 220.284 319.245 221.525 320.001 222.291C320.775 223.039 321.746 223.413 322.915 223.413C323.825 223.413 324.59 223.212 325.209 222.811C325.845 222.391 326.343 221.662 326.704 220.622C326.79 220.403 326.867 220.257 326.936 220.184C327.022 220.093 327.151 220.047 327.323 220.047H327.684C327.839 220.047 327.976 220.102 328.096 220.211C328.217 220.321 328.268 220.467 328.251 220.649C328.234 221.051 328.156 221.452 328.019 221.853C327.881 222.255 327.667 222.647 327.374 223.03C327.099 223.413 326.756 223.75 326.343 224.042C325.931 224.334 325.432 224.562 324.848 224.726C324.281 224.909 323.636 225 322.915 225Z" fill="white"/>
<path d="M349.523 225C347.856 225 346.532 224.425 345.553 223.276C344.573 222.109 344.014 220.585 343.877 218.706C343.86 218.433 343.851 218.068 343.851 217.612C343.851 217.156 343.86 216.791 343.877 216.517C343.963 215.277 344.238 214.182 344.702 213.234C345.166 212.285 345.802 211.546 346.61 211.017C347.434 210.488 348.405 210.224 349.523 210.224C350.726 210.224 351.748 210.507 352.59 211.072C353.433 211.638 354.077 212.449 354.524 213.507C354.988 214.565 355.22 215.824 355.22 217.284V217.694C355.22 217.876 355.16 218.022 355.039 218.132C354.936 218.241 354.799 218.296 354.627 218.296H345.449C345.449 218.296 345.449 218.332 345.449 218.405C345.449 218.478 345.449 218.533 345.449 218.57C345.484 219.391 345.664 220.175 345.991 220.923C346.317 221.653 346.781 222.255 347.383 222.729C347.984 223.185 348.698 223.413 349.523 223.413C350.262 223.413 350.872 223.294 351.353 223.057C351.851 222.82 352.247 222.565 352.539 222.291C352.831 221.999 353.02 221.78 353.106 221.634C353.261 221.397 353.381 221.26 353.467 221.224C353.553 221.169 353.69 221.142 353.879 221.142H354.292C354.447 221.142 354.575 221.196 354.679 221.306C354.799 221.397 354.85 221.525 354.833 221.689C354.816 221.944 354.679 222.264 354.421 222.647C354.18 223.012 353.828 223.376 353.364 223.741C352.917 224.106 352.367 224.407 351.714 224.644C351.061 224.881 350.33 225 349.523 225ZM345.449 216.764H353.647V216.654C353.647 215.742 353.484 214.921 353.158 214.191C352.831 213.462 352.358 212.887 351.74 212.468C351.121 212.03 350.382 211.811 349.523 211.811C348.663 211.811 347.924 212.03 347.306 212.468C346.704 212.887 346.24 213.462 345.913 214.191C345.604 214.921 345.449 215.742 345.449 216.654V216.764Z" fill="white"/>
<path d="M375.764 225C374.87 225 374.097 224.872 373.444 224.617C372.808 224.362 372.283 224.061 371.871 223.714C371.458 223.349 371.149 222.993 370.943 222.647C370.754 222.3 370.651 222.036 370.634 221.853C370.616 221.653 370.677 221.507 370.814 221.415C370.952 221.306 371.08 221.251 371.201 221.251H371.587C371.691 221.251 371.776 221.269 371.845 221.306C371.931 221.342 372.034 221.443 372.155 221.607C372.378 221.917 372.636 222.218 372.928 222.51C373.22 222.784 373.59 223.002 374.036 223.167C374.501 223.331 375.076 223.413 375.764 223.413C376.795 223.413 377.646 223.203 378.316 222.784C378.986 222.364 379.321 221.744 379.321 220.923C379.321 220.412 379.184 220.002 378.909 219.691C378.651 219.381 378.204 219.108 377.568 218.871C376.932 218.633 376.073 218.387 374.99 218.132C373.908 217.858 373.074 217.53 372.49 217.147C371.923 216.764 371.536 216.326 371.33 215.833C371.123 215.322 371.02 214.775 371.02 214.191C371.02 213.553 371.192 212.933 371.536 212.331C371.88 211.711 372.387 211.209 373.057 210.826C373.744 210.424 374.604 210.224 375.635 210.224C376.477 210.224 377.19 210.342 377.775 210.579C378.376 210.817 378.866 211.109 379.244 211.455C379.622 211.783 379.897 212.112 380.069 212.44C380.258 212.769 380.361 213.033 380.378 213.234C380.395 213.416 380.344 213.562 380.224 213.672C380.103 213.781 379.966 213.836 379.811 213.836H379.424C379.287 213.836 379.175 213.808 379.089 213.754C379.003 213.681 378.926 213.589 378.857 213.48C378.685 213.188 378.479 212.914 378.239 212.659C377.998 212.404 377.671 212.203 377.259 212.057C376.864 211.893 376.322 211.811 375.635 211.811C374.604 211.811 373.839 212.039 373.34 212.495C372.842 212.933 372.593 213.498 372.593 214.191C372.593 214.593 372.696 214.949 372.902 215.259C373.108 215.551 373.495 215.824 374.062 216.08C374.629 216.317 375.454 216.572 376.537 216.846C377.637 217.101 378.505 217.42 379.141 217.803C379.777 218.168 380.224 218.606 380.481 219.117C380.756 219.628 380.894 220.23 380.894 220.923C380.894 221.653 380.696 222.328 380.301 222.948C379.923 223.568 379.347 224.07 378.574 224.453C377.818 224.818 376.881 225 375.764 225Z" fill="white"/>
<path d="M397.656 224.726C397.484 224.726 397.346 224.672 397.243 224.562C397.14 224.453 397.088 224.307 397.088 224.124V211.099C397.088 210.917 397.14 210.771 397.243 210.662C397.346 210.552 397.484 210.497 397.656 210.497H398.094C398.266 210.497 398.403 210.552 398.506 210.662C398.609 210.771 398.661 210.917 398.661 211.099V224.124C398.661 224.307 398.609 224.453 398.506 224.562C398.403 224.672 398.266 224.726 398.094 224.726H397.656ZM397.372 207.57C397.2 207.57 397.063 207.515 396.959 207.405C396.856 207.296 396.805 207.15 396.805 206.968V205.928C396.805 205.745 396.856 205.599 396.959 205.49C397.063 205.362 397.2 205.298 397.372 205.298H398.352C398.523 205.298 398.661 205.362 398.764 205.49C398.884 205.599 398.945 205.745 398.945 205.928V206.968C398.945 207.15 398.884 207.296 398.764 207.405C398.661 207.515 398.523 207.57 398.352 207.57H397.372Z" fill="white"/>
</svg>
