<svg width="94" height="93" viewBox="0 0 94 93" fill="none" xmlns="http://www.w3.org/2000/svg">
<circle cx="47" cy="46.5" r="46.5" fill="#756EF2"/>
<path d="M44.9456 55.0567C45.7689 55.88 47.0989 55.88 47.9222 55.0567L55.5011 47.4778C55.6968 47.2825 55.8521 47.0505 55.958 46.7951C56.064 46.5397 56.1185 46.2659 56.1185 45.9894C56.1185 45.713 56.064 45.4392 55.958 45.1838C55.8521 44.9284 55.6968 44.6964 55.5011 44.5011L47.9222 36.9222C47.5275 36.5275 46.9921 36.3057 46.4339 36.3057C45.8757 36.3057 45.3403 36.5275 44.9456 36.9222C44.5508 37.317 44.3291 37.8523 44.3291 38.4106C44.3291 38.9688 44.5508 39.5042 44.9456 39.8989L48.9144 43.8889H30.6111C29.45 43.8889 28.5 44.8389 28.5 46C28.5 47.1611 29.45 48.1111 30.6111 48.1111H48.9144L44.9456 52.08C44.1222 52.9033 44.1433 54.2544 44.9456 55.0567ZM62.2778 27H32.7222C31.6024 27 30.5285 27.4448 29.7367 28.2367C28.9448 29.0285 28.5 30.1024 28.5 31.2222V37.5556C28.5 38.7167 29.45 39.6667 30.6111 39.6667C31.7722 39.6667 32.7222 38.7167 32.7222 37.5556V33.3333C32.7222 32.1722 33.6722 31.2222 34.8333 31.2222H60.1667C61.3278 31.2222 62.2778 32.1722 62.2778 33.3333V58.6667C62.2778 59.8278 61.3278 60.7778 60.1667 60.7778H34.8333C33.6722 60.7778 32.7222 59.8278 32.7222 58.6667V54.4444C32.7222 53.2833 31.7722 52.3333 30.6111 52.3333C29.45 52.3333 28.5 53.2833 28.5 54.4444V60.7778C28.5 63.1 30.4 65 32.7222 65H62.2778C64.6 65 66.5 63.1 66.5 60.7778V31.2222C66.5 28.9 64.6 27 62.2778 27Z" fill="white"/>
</svg>
