<svg width="29" height="19" viewBox="0 0 29 19" fill="none" xmlns="http://www.w3.org/2000/svg">
<path d="M1.56944 18.983H26.6806C27.5437 18.983 28.25 18.2767 28.25 17.4135C28.25 16.5504 27.5437 15.8441 26.6806 15.8441H1.56944C0.70625 15.8441 0 16.5504 0 17.4135C0 18.2767 0.70625 18.983 1.56944 18.983ZM1.56944 11.1358H26.6806C27.5437 11.1358 28.25 10.4295 28.25 9.56633C28.25 8.70313 27.5437 7.99688 26.6806 7.99688H1.56944C0.70625 7.99688 0 8.70313 0 9.56633C0 10.4295 0.70625 11.1358 1.56944 11.1358ZM0 1.7191C0 2.5823 0.70625 3.28855 1.56944 3.28855H26.6806C27.5437 3.28855 28.25 2.5823 28.25 1.7191C28.25 0.855908 27.5437 0.149658 26.6806 0.149658H1.56944C0.70625 0.149658 0 0.855908 0 1.7191Z" fill="white"/>
</svg>
