<svg width="94" height="93" viewBox="0 0 94 93" fill="none" xmlns="http://www.w3.org/2000/svg">
<circle cx="47" cy="46.5" r="46.5" fill="#756EF2"/>
<path d="M51.955 28H35.3962C34.3629 28 33.3718 28.3959 32.6412 29.1007C31.9105 29.8055 31.5 30.7614 31.5 31.7582V61.8235C31.5 62.8203 31.9105 63.7762 32.6412 64.481C33.3718 65.1858 34.3629 65.5817 35.3962 65.5817H58.7733C59.8067 65.5817 60.7977 65.1858 61.5284 64.481C62.259 63.7762 62.6695 62.8203 62.6695 61.8235V38.335L51.955 28Z" stroke="white" stroke-width="3.41667" stroke-linecap="round" stroke-linejoin="round"/>
<path d="M50.9815 28V39.2745H62.6701M39.293 48.6699H43.1892M39.293 56.1863H43.1892M50.9815 48.6699H54.8777M50.9815 56.1863H54.8777" stroke="white" stroke-width="3.41667" stroke-linecap="round" stroke-linejoin="round"/>
</svg>
