<svg width="207" height="44" viewBox="0 0 207 44" fill="none" xmlns="http://www.w3.org/2000/svg">
<path d="M36.1415 41.8665C36.0903 41.849 36.0573 41.8377 36.0243 41.8265C35.354 41.5862 34.7034 41.3003 34.0521 41.013C33.8002 40.9013 33.9139 40.765 33.9819 40.6245C34.535 39.4794 35.0922 38.3357 35.646 37.1913C36.3527 35.7308 37.0623 34.2724 37.7585 32.807C37.8792 32.5534 37.9845 32.4375 38.2702 32.6047C38.4997 32.7389 38.7551 32.8379 39.0099 32.9152C39.238 32.9847 39.2583 33.0789 39.1832 33.2938C38.4351 35.4302 37.6996 37.5707 36.9591 39.7098C36.7338 40.3604 36.5071 41.0102 36.2797 41.66C36.251 41.7415 36.2397 41.8419 36.1415 41.8665Z" fill="#756EF2"/>
<path d="M31.6378 39.6615C31.5823 39.6264 31.5234 39.5892 31.4651 39.5519C30.905 39.1908 30.3752 38.7897 29.8432 38.3893C29.6628 38.2537 29.6782 38.1589 29.8067 37.9987C31.6483 35.7036 33.4864 33.4057 35.3175 31.1029C35.4494 30.9371 35.5259 30.9596 35.6712 31.0727C35.9288 31.2729 36.1962 31.4633 36.4769 31.629C36.6727 31.7443 36.6545 31.837 36.5471 32.007C34.9694 34.4897 33.3987 36.9765 31.8237 39.4606C31.7767 39.5337 31.7564 39.6383 31.6378 39.6615Z" fill="#756EF2"/>
<path d="M40.8802 42.917C40.1875 42.851 39.5341 42.7323 38.8786 42.622C38.6463 42.5826 38.6463 42.4478 38.6856 42.2665C39.1334 40.2159 39.5783 38.1646 40.0247 36.1133C40.198 35.3159 40.3861 34.5207 40.5405 33.7198C40.5904 33.4606 40.6872 33.3882 40.9364 33.4409C41.2206 33.5013 41.5098 33.5428 41.7989 33.5744C41.9765 33.5941 42.0326 33.6566 42.0151 33.8435C41.7575 36.5622 41.507 39.2809 41.2543 42.0003C41.2346 42.2096 41.1974 42.4183 41.1946 42.6269C41.1932 42.8735 41.095 42.9739 40.8802 42.917Z" fill="#756EF2"/>
<path d="M43.4531 38.322C43.4531 36.8622 43.4601 35.4024 43.4461 33.9433C43.444 33.7101 43.498 33.6419 43.7289 33.649C44.0076 33.6574 44.2953 33.6539 44.5655 33.5949C44.8757 33.5267 44.9389 33.6609 44.9726 33.9215C45.1298 35.1488 45.301 36.3747 45.466 37.6013C45.6885 39.2557 45.906 40.9108 46.1362 42.5645C46.1622 42.7513 46.1573 42.8293 45.9397 42.8595C45.2568 42.9551 44.5683 42.9761 43.8833 43.0443C43.651 43.0675 43.6503 42.9403 43.6503 42.7703C43.6538 41.2873 43.6524 39.8043 43.6524 38.3213C43.5858 38.322 43.5198 38.322 43.4531 38.322Z" fill="#756EF2"/>
<path d="M47.738 32.9102C47.8328 32.9495 47.8398 33.0724 47.8763 33.1729C48.5935 35.1209 49.3101 37.069 50.0274 39.0171C50.3053 39.7722 50.5699 40.5324 50.8675 41.2791C50.9756 41.551 50.8998 41.6444 50.6478 41.7182C50.0667 41.8896 49.4877 42.0716 48.9143 42.269C48.649 42.3603 48.5627 42.276 48.4995 42.0189C47.8707 39.4589 47.2306 36.9018 46.5933 34.344C46.5231 34.0609 46.4487 33.7792 46.3849 33.4946C46.3701 33.4293 46.2922 33.3317 46.4242 33.2923C46.8488 33.1666 47.2741 33.0443 47.738 32.9102Z" fill="#756EF2"/>
<path d="M26.1855 34.7138C26.267 34.6387 26.34 34.5642 26.4207 34.4989C28.4855 32.8178 30.551 31.1367 32.6172 29.457C32.8516 29.2666 33.1007 28.9301 33.3274 28.9427C33.5499 28.9554 33.7527 29.3263 33.9633 29.5413C34.0124 29.5911 34.0524 29.6523 34.1086 29.693C34.3591 29.8736 34.3423 30.0126 34.117 30.236C32.335 32.0071 30.5671 33.7928 28.7971 35.5758C28.5255 35.8491 28.2616 36.1301 27.9963 36.409C27.898 36.5122 27.8117 36.5804 27.6805 36.4413C27.1913 35.9228 26.7084 35.4002 26.2691 34.8382C26.241 34.8023 26.2185 34.7637 26.1855 34.7138Z" fill="#756EF2"/>
<path d="M55.3287 39.3089C55.3379 39.4234 55.2382 39.441 55.1778 39.481C54.6009 39.8597 53.9932 40.1849 53.3903 40.52C53.1481 40.6549 53.1369 40.4498 53.0794 40.3353C52.4491 39.0686 51.8252 37.7999 51.1999 36.5312C50.5591 35.2308 49.9225 33.9284 49.274 32.6323C49.168 32.4208 49.1393 32.2993 49.4032 32.1904C49.693 32.071 49.9688 31.9094 50.2313 31.7359C50.4236 31.6094 50.5036 31.6684 50.6117 31.8398C52.1473 34.2719 53.6886 36.6998 55.2284 39.1298C55.2649 39.1881 55.2965 39.2506 55.3287 39.3089Z" fill="#756EF2"/>
<path d="M32.4204 27.6435C32.4057 27.7559 32.3172 27.7798 32.2527 27.822C29.8278 29.4068 27.4002 30.9875 24.9789 32.5779C24.7802 32.7086 24.6911 32.6686 24.5879 32.4803C24.2847 31.9274 23.9801 31.3753 23.6552 30.835C23.5099 30.5941 23.5948 30.5105 23.8124 30.4002C26.1334 29.2235 28.4494 28.0355 30.7669 26.8532C31.0567 26.705 31.3782 26.4184 31.6371 26.4647C31.9067 26.5125 31.9796 26.9748 32.1656 27.2389C32.259 27.3724 32.3397 27.5143 32.4204 27.6435Z" fill="#756EF2"/>
<path d="M59.1417 36.2601C59.0988 36.3071 59.049 36.3718 58.9901 36.4252C58.5086 36.8671 58.0201 37.3019 57.545 37.7508C57.3702 37.9159 57.279 37.8428 57.1583 37.6904C56.2459 36.5362 55.3272 35.3869 54.4113 34.2362C53.5537 33.1578 52.7009 32.0752 51.8356 31.0032C51.7064 30.843 51.6741 30.7665 51.8664 30.6302C52.1317 30.4419 52.3718 30.2157 52.6111 29.9937C52.7557 29.8602 52.8539 29.8364 53.0111 29.9958C55.0128 32.0254 57.0214 34.0465 59.028 36.0711C59.075 36.1189 59.1431 36.1554 59.1417 36.2601Z" fill="#756EF2"/>
<path d="M31.0134 25.0032C31.0212 25.1437 30.8682 25.1304 30.7734 25.1669C29.5003 25.6573 28.2258 26.1434 26.9512 26.6302C25.5897 27.1501 24.2246 27.6608 22.8694 28.1975C22.5977 28.305 22.517 28.2362 22.4469 27.9875C22.2981 27.4599 22.1423 26.9337 21.9591 26.4174C21.8791 26.1919 21.9689 26.1392 22.15 26.0816C23.8491 25.5392 25.5469 24.992 27.2439 24.4447C28.2314 24.1265 29.2195 23.809 30.2042 23.4823C30.3909 23.4205 30.4871 23.417 30.5523 23.646C30.6808 24.0935 30.8499 24.5297 31.0134 25.0032Z" fill="#756EF2"/>
<path d="M20.9545 23.076C20.9145 22.894 21.0766 22.8912 21.1643 22.8484C22.7673 22.0658 24.3731 21.2902 25.9782 20.5125C26.8597 20.0854 27.7447 19.666 28.6185 19.2248C28.8171 19.1244 28.9042 19.1518 28.9778 19.3492C29.2242 20.0039 29.4691 20.6601 29.7316 21.3085C29.8257 21.5417 29.6748 21.5621 29.5302 21.6098C27.5482 22.2681 25.5662 22.927 23.5843 23.5853C22.9098 23.8094 22.2318 24.0237 21.5616 24.2583C21.384 24.3208 21.3124 24.2934 21.264 24.1108C21.1713 23.7609 21.0584 23.4174 20.9545 23.076Z" fill="#756EF2"/>
<path d="M62.1768 32.332C62.1326 32.4043 62.0933 32.476 62.0476 32.5434C61.6855 33.0738 61.3128 33.5979 60.9626 34.136C60.8328 34.3355 60.7443 34.325 60.571 34.1852C58.4851 32.5076 56.393 30.8377 54.3043 29.1651C53.8081 28.7682 53.8032 28.7597 54.1983 28.2736C54.378 28.0523 54.5001 27.6729 54.7528 27.6533C54.9788 27.6357 55.2286 27.909 55.4658 28.0579C57.624 29.406 59.7821 30.7548 61.9389 32.1065C62.0294 32.1634 62.1648 32.1851 62.1768 32.332Z" fill="#756EF2"/>
<path d="M56.1909 25.0096C56.2203 25.0202 56.2744 25.0405 56.3298 25.0595C58.848 25.9152 61.3648 26.7757 63.8865 27.6208C64.1742 27.7171 64.2444 27.8281 64.1258 28.1119C63.883 28.6929 63.6633 29.2844 63.4464 29.8752C63.3798 30.0571 63.3018 30.0663 63.1383 29.9883C60.651 28.8053 58.1623 27.6265 55.6708 26.4526C55.5017 26.3725 55.4413 26.3135 55.5424 26.1238C55.7066 25.8154 55.8385 25.4894 55.9803 25.1691C56.0168 25.0841 56.0323 24.9815 56.1909 25.0096Z" fill="#756EF2"/>
<path d="M27.2192 16.6252C27.2192 16.7397 27.1321 16.772 27.0725 16.8197C24.9235 18.5311 22.7723 20.2403 20.6254 21.9551C20.4626 22.085 20.3679 22.0703 20.2703 21.8975C20.2366 21.8371 20.1833 21.7879 20.1376 21.7345C19.6815 21.2104 19.6836 21.2132 20.1503 20.6639C21.7785 18.7488 23.4089 16.8345 25.0273 14.9117C25.1909 14.7171 25.2821 14.6771 25.4842 14.8598C26.0408 15.3613 26.5875 15.8707 27.0704 16.4446C27.123 16.5071 27.1742 16.5697 27.2192 16.6252Z" fill="#756EF2"/>
<path d="M65.1704 23.1884C65.0609 23.9232 64.9661 24.5224 64.8847 25.1245C64.856 25.3366 64.7724 25.3872 64.5626 25.3401C61.9672 24.7578 59.3711 24.1796 56.7729 23.6148C56.5399 23.5642 56.5259 23.4771 56.5743 23.2846C56.6536 22.9678 56.7252 22.6481 56.7757 22.3257C56.8094 22.11 56.893 22.0377 57.1189 22.0636C58.6384 22.2386 60.1593 22.4016 61.6795 22.568C62.7126 22.6812 63.745 22.7985 64.7781 22.9074C65.0363 22.9341 65.2644 22.9657 65.1704 23.1884Z" fill="#756EF2"/>
<path d="M18.6565 20.4481C18.4894 20.3519 18.3196 20.2507 18.1462 20.1552C17.5581 19.832 17.5602 19.8334 17.8037 19.2033C18.6782 16.9398 19.5583 14.6777 20.4167 12.4079C20.5353 12.0946 20.6518 12.0616 20.9416 12.1852C21.5635 12.4515 22.1846 12.717 22.784 13.0325C22.9573 13.1238 22.9959 13.1856 22.8892 13.3669C21.5375 15.6598 20.1935 17.9584 18.8453 20.2542C18.8025 20.3287 18.7814 20.4348 18.6565 20.4481Z" fill="#756EF2"/>
<path d="M56.9919 19.7177C56.9919 18.9498 56.9933 18.9646 57.7435 18.888C59.8666 18.6709 61.9882 18.4405 64.1113 18.2157C64.2271 18.2038 64.3443 18.1988 64.4608 18.1904C65.0657 18.1462 65.0665 18.1462 65.1156 18.7777C65.1549 19.2779 65.1886 19.7788 65.2335 20.2783C65.2503 20.4658 65.2075 20.5628 64.9942 20.56C63.1729 20.534 61.3509 20.5944 59.5297 20.527C58.8061 20.5003 58.0804 20.5031 57.3575 20.5291C57.0375 20.5403 56.9385 20.4441 56.989 20.1385C57.0101 20.0015 56.9919 19.8582 56.9919 19.7177Z" fill="#756EF2"/>
<path d="M15.2063 15.153C15.2625 13.9159 15.3249 12.6795 15.3684 11.4424C15.3776 11.1811 15.4337 11.0827 15.7222 11.1045C16.4212 11.1572 17.1174 11.219 17.8101 11.3265C17.9715 11.3511 18.0431 11.3897 17.9989 11.5955C17.4543 14.1042 16.9195 16.6157 16.3938 19.1285C16.3419 19.3751 16.2612 19.4257 16.0232 19.3498C15.7692 19.269 15.4997 19.2227 15.2337 19.2009C15.0351 19.1847 15.0161 19.0927 15.0238 18.9332C15.087 17.6736 15.1453 16.4133 15.2056 15.153C15.2056 15.153 15.2056 15.153 15.2063 15.153Z" fill="#756EF2"/>
<path d="M56.5372 16.0232C56.4923 15.8209 56.6755 15.8469 56.7738 15.8139C58.3332 15.2912 59.8948 14.7763 61.4564 14.2592C62.1652 14.0246 62.8762 13.7963 63.5794 13.5469C63.7942 13.471 63.8918 13.4984 63.9584 13.7253C64.1255 14.2957 64.3009 14.8641 64.4974 15.4247C64.5936 15.6994 64.5311 15.8033 64.2448 15.863C62.2474 16.2796 60.2535 16.711 58.2581 17.1381C57.8707 17.221 57.4791 17.2898 57.0966 17.3917C56.8601 17.4549 56.7955 17.3854 56.7639 17.1549C56.7106 16.7749 56.6151 16.4005 56.5372 16.0232Z" fill="#756EF2"/>
<path d="M13.7552 18.9664C13.7769 19.1266 13.6913 19.1631 13.5502 19.1757C13.2955 19.1982 13.0323 19.2088 12.7909 19.2825C12.5157 19.3661 12.4287 19.2657 12.3522 19.0205C11.7283 17.0043 11.0924 14.9909 10.4601 12.9768C10.3794 12.7211 10.3078 12.4612 10.2123 12.2111C10.1386 12.0179 10.2102 11.9378 10.3871 11.8788C11.0854 11.6477 11.7964 11.4685 12.5178 11.3266C12.6758 11.2957 12.7494 11.3386 12.7719 11.5121C12.9804 13.1546 13.1951 14.7956 13.4092 16.4374C13.5102 17.2122 13.6141 17.9864 13.7173 18.7606C13.7264 18.8294 13.7425 18.8976 13.7552 18.9664Z" fill="#756EF2"/>
<path d="M56.1179 14.4044C55.9944 14.4458 55.9831 14.3545 55.9572 14.299C55.7838 13.9295 55.6287 13.5515 55.4399 13.1897C55.3192 12.9579 55.5108 12.9312 55.621 12.8638C57.4029 11.7742 59.187 10.6888 60.9718 9.60344C61.6876 9.16788 61.6932 9.16578 62.1179 9.8725C62.3579 10.2722 62.574 10.6867 62.8064 11.0914C62.8751 11.2108 62.8941 11.2838 62.7376 11.3555C60.5556 12.3573 58.3757 13.364 56.1951 14.37C56.1628 14.3854 56.1305 14.3988 56.1179 14.4044Z" fill="#756EF2"/>
<path d="M7.71242 13.0693C7.85419 13.0728 7.86683 13.2 7.91034 13.285C8.59603 14.6261 9.27751 15.97 9.9604 17.3132C10.331 18.0417 10.6945 18.7744 11.0749 19.498C11.1781 19.6947 11.1788 19.793 10.9486 19.8851C10.6798 19.9932 10.4257 20.1443 10.1766 20.296C10.0292 20.386 9.94566 20.386 9.83547 20.2349C8.47602 18.3761 7.11025 16.5215 5.74167 14.6689C5.6385 14.5291 5.62587 14.4519 5.77957 14.3367C6.35999 13.9011 6.95936 13.4958 7.5889 13.1354C7.62891 13.1115 7.67102 13.0911 7.71242 13.0693Z" fill="#756EF2"/>
<path d="M60.198 7.22695C60.1952 7.33794 60.1103 7.37026 60.0492 7.41803C58.3031 8.78722 56.5534 10.1522 54.8114 11.527C54.6135 11.683 54.5188 11.6633 54.3833 11.4553C54.1931 11.1624 53.9692 10.8905 53.7461 10.6208C53.638 10.4901 53.6261 10.4079 53.7587 10.2779C55.3091 8.7549 56.8531 7.22554 58.3971 5.69618C58.4975 5.59713 58.5775 5.52688 58.7136 5.65614C59.2056 6.12261 59.6695 6.61647 60.1208 7.12227C60.151 7.15599 60.1756 7.19604 60.198 7.22695Z" fill="#756EF2"/>
<path d="M8.86471 21.2278C8.80576 21.2911 8.76014 21.3416 8.71311 21.3908C8.49625 21.6191 8.26815 21.8383 8.06462 22.0786C7.9432 22.2219 7.85266 22.2057 7.7144 22.1102C5.93736 20.8843 4.15821 19.6612 2.37415 18.4445C2.22396 18.3419 2.2008 18.2682 2.30116 18.1164C2.69629 17.5228 3.1209 16.9531 3.5806 16.4072C3.71185 16.2513 3.78554 16.2569 3.92941 16.3974C5.51486 17.9485 7.10802 19.4919 8.69837 21.0382C8.75592 21.0937 8.80365 21.1576 8.86471 21.2278Z" fill="#756EF2"/>
<path d="M56.7221 4.08501C56.6799 4.13981 56.6315 4.20514 56.581 4.26767C55.2756 5.88414 53.9681 7.4999 52.6669 9.11989C52.5532 9.26179 52.4809 9.27865 52.3405 9.1515C52.0563 8.89227 51.7587 8.6464 51.4562 8.40825C51.3137 8.29584 51.2702 8.20663 51.3804 8.03732C52.4774 6.34217 53.5673 4.6421 54.6566 2.94204C54.7345 2.8198 54.7969 2.74955 54.9555 2.84579C55.524 3.19213 56.0841 3.5497 56.6217 3.94241C56.6645 3.97472 56.727 3.9965 56.7221 4.08501Z" fill="#756EF2"/>
<path d="M7.10843 23.4289C7.00596 23.6523 6.89788 23.8722 6.80243 24.0977C6.56802 24.6527 6.57012 24.6562 5.98339 24.5101C4.18319 24.0597 2.38509 23.6031 0.582778 23.1619C0.333627 23.1008 0.276076 23.0242 0.343452 22.765C0.510489 22.1201 0.692966 21.4815 0.918254 20.8542C0.989139 20.6575 1.06213 20.6069 1.26987 20.7018C3.14938 21.5595 5.03381 22.406 6.91542 23.2582C6.99403 23.2933 7.10562 23.3031 7.10843 23.4289Z" fill="#756EF2"/>
<path d="M52.6939 1.77825C52.6581 1.85132 52.6279 1.91384 52.5963 1.97706C51.7464 3.67713 50.8937 5.37579 50.0501 7.07938C49.9546 7.27186 49.8893 7.34633 49.6711 7.20864C49.337 6.99788 48.9784 6.82577 48.6239 6.65014C48.4822 6.57989 48.4422 6.50824 48.5004 6.35439C49.1573 4.60936 49.81 2.86293 50.4613 1.11649C50.5126 0.980206 50.5547 0.909955 50.7337 0.969668C51.3414 1.1734 51.9429 1.39258 52.5346 1.63846C52.5991 1.66375 52.703 1.67147 52.6939 1.77825Z" fill="#756EF2"/>
<path d="M0.523039 28.0397C0.165104 28.1992 0.115976 27.9224 0.0914114 27.5957C0.0471959 27.0014 -0.00333614 26.4085 0.000173025 25.8114C0.00157669 25.6006 0.0717601 25.5613 0.261957 25.576C2.16954 25.7242 4.07713 25.8669 5.98541 26.0067C6.16999 26.02 6.24509 26.0593 6.20649 26.2792C6.14824 26.6108 6.1349 26.9529 6.12648 27.2908C6.12227 27.4608 6.08928 27.5304 5.90049 27.5465C4.38944 27.6758 2.8791 27.8177 1.36875 27.9568C1.11328 27.98 0.858516 28.0067 0.523039 28.0397Z" fill="#756EF2"/>
<path d="M45.2951 5.29055C45.5085 3.80896 45.7177 2.33159 45.9366 0.85492C45.9759 0.58867 45.8959 0.214936 46.1275 0.0912945C46.3254 -0.0147841 46.6483 0.102535 46.9136 0.136255C47.3178 0.188241 47.72 0.254979 48.1242 0.311882C48.2843 0.334362 48.3271 0.39829 48.2836 0.566189C47.8351 2.29084 47.3929 4.01761 46.9557 5.74507C46.915 5.90735 46.8518 5.91578 46.7107 5.87152C46.3002 5.74297 45.8854 5.62705 45.4706 5.51184C45.3499 5.47742 45.2341 5.45424 45.2951 5.29055Z" fill="#756EF2"/>
<path d="M6.10374 29.0447C6.24902 28.9927 6.25323 29.0911 6.27288 29.1676C6.37394 29.5631 6.46659 29.9608 6.57748 30.3535C6.61888 30.5003 6.54379 30.5347 6.43921 30.5811C4.9043 31.2653 3.3701 31.9496 1.83869 32.6394C1.68569 32.7083 1.61481 32.6752 1.54392 32.5284C1.24845 31.9179 0.985263 31.2955 0.771204 30.652C0.720672 30.501 0.72769 30.4378 0.908062 30.3914C2.61422 29.9572 4.31757 29.5112 6.02162 29.0679C6.05672 29.0601 6.0897 29.0489 6.10374 29.0447Z" fill="#756EF2"/>
<path d="M43.7663 0.761065C43.7242 2.12744 43.6772 3.49382 43.6456 4.8609C43.6407 5.0864 43.5972 5.1686 43.3515 5.13979C42.9466 5.09273 42.5367 5.07797 42.1289 5.06533C41.9738 5.06041 41.9064 5.0288 41.8931 4.85387C41.7836 3.40882 41.6706 1.96446 41.5387 0.52151C41.5141 0.251747 41.6089 0.170959 41.8489 0.152694C42.4076 0.109841 42.9662 0.0599629 43.5235 0.00376235C43.7368 -0.0180154 43.8224 0.0459128 43.7916 0.271418C43.7698 0.432292 43.7874 0.598084 43.7874 0.761768C43.7796 0.761768 43.7726 0.761065 43.7663 0.761065Z" fill="#756EF2"/>
<path d="M4.56561 36.528C4.5249 36.4936 4.47086 36.4514 4.42103 36.4044C3.94238 35.9562 3.50935 35.4658 3.09246 34.96C2.96051 34.7998 2.97736 34.7261 3.14509 34.6151C4.43998 33.7559 5.73065 32.8904 7.01922 32.0207C7.16169 31.9245 7.23468 31.9097 7.33364 32.0839C7.5119 32.398 7.71052 32.7035 7.9309 32.9902C8.06495 33.1644 8.02565 33.2543 7.88458 33.3899C6.84657 34.3853 5.81627 35.3885 4.78317 36.3889C4.72562 36.4444 4.6793 36.5189 4.56561 36.528Z" fill="#756EF2"/>
<path d="M38.7026 5.35262C38.4823 5.42779 38.4654 5.32452 38.4367 5.2353C38.045 4.02769 37.6569 2.81867 37.2576 1.61317C37.2042 1.4523 37.2351 1.38556 37.3909 1.33287C37.9643 1.13968 38.5356 0.939468 39.1062 0.737848C39.2557 0.68516 39.3385 0.698508 39.3743 0.88116C39.641 2.23068 39.9154 3.57879 40.1891 4.9269C40.2123 5.04 40.2284 5.1229 40.0663 5.14538C39.582 5.21071 39.0992 5.2915 38.7026 5.35262Z" fill="#756EF2"/>
<path d="M10.4004 35.3952C10.3786 35.4451 10.3519 35.5097 10.3218 35.5722C9.79538 36.6506 9.2648 37.7268 8.74474 38.808C8.6549 38.9942 8.58402 39.0735 8.36013 38.9696C7.80007 38.7089 7.24773 38.4371 6.71012 38.1329C6.53747 38.0352 6.51291 37.9566 6.63362 37.7901C7.42389 36.7061 8.20713 35.6179 8.98617 34.5262C9.09706 34.371 9.16443 34.34 9.32586 34.4805C9.61571 34.732 9.93645 34.947 10.2432 35.1795C10.3126 35.2308 10.4256 35.2519 10.4004 35.3952Z" fill="#756EF2"/>
<path d="M12.8643 40.0207C12.22 39.9645 11.6185 39.9006 11.0226 39.7847C10.8374 39.7488 10.8093 39.7004 10.8661 39.5163C11.1953 38.4485 11.509 37.3765 11.822 36.3044C11.874 36.1274 11.9231 36.0621 12.1315 36.1478C12.507 36.3016 12.9007 36.4112 13.2896 36.5306C13.4369 36.5756 13.524 36.6149 13.4973 36.8124C13.3597 37.8169 13.2404 38.8236 13.1204 39.831C13.0966 40.0291 12.9786 40.046 12.8643 40.0207Z" fill="#756EF2"/>
<path d="M36.7752 5.80449C36.7759 5.92672 36.6713 5.92321 36.6039 5.95061C36.1723 6.12553 35.7351 6.28851 35.3062 6.47116C35.1659 6.53088 35.1048 6.49997 35.0325 6.37703C34.5181 5.501 34.0001 4.62708 33.4759 3.75738C33.3839 3.60493 33.3944 3.5115 33.5481 3.41596C34.0429 3.10686 34.5328 2.79003 35.0248 2.47601C35.1308 2.40786 35.2213 2.35517 35.2971 2.52307C35.7751 3.58737 36.2593 4.64886 36.7408 5.71175C36.7541 5.74266 36.7646 5.77568 36.7752 5.80449Z" fill="#756EF2"/>
<path d="M31.6997 4.90833C32.2871 5.69232 32.8654 6.46789 33.4501 7.23854C33.5392 7.35656 33.5118 7.40644 33.3995 7.4788C32.9784 7.74997 32.5608 8.02816 32.1474 8.31127C32.0373 8.38714 31.9699 8.37379 31.8822 8.27825C31.3523 7.7036 30.8203 7.13106 30.2827 6.56414C30.1823 6.45876 30.2132 6.39624 30.2967 6.30491C30.7375 5.8244 31.1754 5.34107 31.6997 4.90833Z" fill="#756EF2"/>
<path d="M15.2225 37.8202C15.2225 37.6333 15.252 37.4408 15.2162 37.2617C15.1495 36.9301 15.2674 36.8451 15.5875 36.8697C15.958 36.8978 16.3335 36.8838 16.7055 36.8662C16.8887 36.8578 16.9785 36.9027 17.0171 37.0924C17.1617 37.7998 17.3168 38.5044 17.4733 39.2091C17.514 39.3931 17.4529 39.4886 17.2705 39.5378C16.7083 39.6882 16.144 39.8259 15.5664 39.9088C15.3524 39.9397 15.3004 39.8659 15.3018 39.6734C15.3067 39.0559 15.3039 38.4384 15.3039 37.8216C15.2766 37.8202 15.2499 37.8202 15.2225 37.8202Z" fill="#756EF2"/>
<path d="M28.8812 8.0957C29.4104 8.55093 29.9283 9.00053 30.4505 9.44381C30.5656 9.54146 30.5754 9.61171 30.4568 9.71569C30.0701 10.0536 29.7143 10.4231 29.3767 10.8095C29.2904 10.9085 29.2167 10.9114 29.1093 10.8348C28.7107 10.551 28.3085 10.2728 27.9036 9.9988C27.7913 9.92292 27.787 9.85478 27.8516 9.74098C28.1667 9.18318 28.4889 8.63031 28.8812 8.0957Z" fill="#756EF2"/>
<path d="M19.6225 38.5624C19.4912 38.5827 19.4828 38.4788 19.4554 38.4134C19.2168 37.8444 18.9873 37.2719 18.7466 36.7035C18.6841 36.5567 18.7276 36.4991 18.8694 36.4605C19.3298 36.3326 19.7776 36.1682 20.2078 35.9603C20.3552 35.8893 20.4268 35.9181 20.5103 36.0565C20.751 36.4555 21.0044 36.8468 21.2626 37.2346C21.3441 37.3562 21.3412 37.4299 21.2205 37.5205C20.7447 37.8781 20.2562 38.2146 19.7347 38.5019C19.694 38.5251 19.6526 38.5462 19.6225 38.5624Z" fill="#756EF2"/>
<path d="M28.0413 12.4621C28.0357 12.4727 28.0315 12.4839 28.0252 12.4938C27.7129 12.9862 27.3999 13.478 27.0875 13.9704C27.037 14.0498 26.9767 14.0189 26.9058 14.0027C26.2804 13.8566 26.2222 13.7688 26.4089 13.1752C26.531 12.786 26.6784 12.4052 26.7984 12.016C26.8587 11.82 26.9395 11.7758 27.1212 11.8833C27.3816 12.0378 27.6539 12.1727 27.9192 12.3195C27.974 12.349 28.0589 12.3652 28.0413 12.4621Z" fill="#756EF2"/>
<path d="M22.8793 35.9193C22.8252 35.8701 22.781 35.8357 22.7438 35.7949C22.5311 35.5638 22.3248 35.3263 22.1065 35.1008C21.9978 34.9884 22.0118 34.9238 22.1367 34.8353C22.555 34.5395 22.9452 34.2079 23.3186 33.8574C23.4176 33.7647 23.4955 33.7281 23.6092 33.8391C23.7165 33.9445 23.8408 34.0337 23.9636 34.1215C24.078 34.2037 24.1054 34.2852 24.0232 34.4131C23.7137 34.8929 23.3825 35.3558 23.014 35.7928C22.9789 35.835 22.9333 35.8694 22.8793 35.9193Z" fill="#756EF2"/>
<path d="M25.8153 16.3604C25.8216 16.2227 25.8258 16.085 25.8364 15.9473C25.842 15.8707 25.8272 15.7717 25.9283 15.7478C25.9774 15.7359 26.0441 15.7548 26.0904 15.7808C26.1957 15.8412 26.1185 15.9248 26.0946 15.9909C26.0329 16.1637 25.9592 16.3316 25.8904 16.5016C25.7542 16.5142 25.8034 16.4271 25.8153 16.3604Z" fill="#756EF2"/>
<path d="M25.817 16.3574C25.8423 16.4046 25.867 16.4526 25.8923 16.4998C25.8768 16.5646 25.8627 16.6302 25.786 16.6675C25.7374 16.5548 25.7508 16.454 25.817 16.3574Z" fill="#756EF2"/>
<path d="M77.4706 19C77.2981 19 77.157 18.9451 77.0473 18.8354C76.9375 18.7256 76.8827 18.5846 76.8827 18.4121V3.12689C76.8827 2.95444 76.9375 2.81334 77.0473 2.7036C77.157 2.59386 77.2981 2.53899 77.4706 2.53899H88.4524C88.6249 2.53899 88.766 2.59386 88.8757 2.7036C88.9854 2.81334 89.0403 2.95444 89.0403 3.12689V5.33736C89.0403 5.50981 88.9854 5.65091 88.8757 5.76065C88.766 5.87039 88.6249 5.92526 88.4524 5.92526H80.9509V9.09988H87.9351C88.1075 9.09988 88.2486 9.16259 88.3583 9.28801C88.4681 9.39775 88.523 9.53884 88.523 9.71129V11.7572C88.523 11.9139 88.4681 12.055 88.3583 12.1804C88.2486 12.2902 88.1075 12.3451 87.9351 12.3451H80.9509V15.6137H88.6405C88.813 15.6137 88.9541 15.6686 89.0638 15.7783C89.1736 15.8881 89.2284 16.0292 89.2284 16.2016V18.4121C89.2284 18.5846 89.1736 18.7256 89.0638 18.8354C88.9541 18.9451 88.813 19 88.6405 19H77.4706ZM97.1942 19.2352C96.0341 19.2352 95.0072 19.0235 94.1136 18.6002C93.22 18.1769 92.5067 17.5655 91.9737 16.766C91.4564 15.9508 91.1742 14.9788 91.1271 13.8501C91.1115 13.5992 91.1036 13.2857 91.1036 12.9094C91.1036 12.5175 91.1115 12.1961 91.1271 11.9453C91.1742 10.8009 91.4564 9.82887 91.9737 9.02933C92.4911 8.21412 93.1965 7.59487 94.0901 7.17159C94.9994 6.74831 96.0341 6.53667 97.1942 6.53667C98.2759 6.53667 99.2009 6.69344 99.969 7.00698C100.737 7.30485 101.364 7.6811 101.85 8.13574C102.336 8.59037 102.697 9.06069 102.932 9.54668C103.183 10.017 103.316 10.4324 103.332 10.793C103.347 10.9498 103.293 11.0909 103.167 11.2163C103.042 11.326 102.901 11.3809 102.744 11.3809H99.7574C99.585 11.3809 99.4517 11.3417 99.3576 11.2633C99.2636 11.1849 99.1774 11.0674 99.099 10.9106C98.9108 10.4246 98.6678 10.0797 98.37 9.8759C98.0878 9.6721 97.7194 9.57019 97.2647 9.57019C96.6377 9.57019 96.1517 9.774 95.8068 10.1816C95.4775 10.5892 95.2973 11.2163 95.2659 12.0629C95.2502 12.6899 95.2502 13.2465 95.2659 13.7325C95.2973 14.5947 95.4775 15.2218 95.8068 15.6137C96.1517 16.0057 96.6377 16.2016 97.2647 16.2016C97.7507 16.2016 98.1348 16.0997 98.417 15.8959C98.6992 15.6921 98.9265 15.3472 99.099 14.8612C99.1774 14.7045 99.2636 14.5869 99.3576 14.5085C99.4517 14.4301 99.585 14.3909 99.7574 14.3909H102.744C102.901 14.3909 103.042 14.4536 103.167 14.579C103.293 14.6888 103.347 14.822 103.332 14.9788C103.316 15.2453 103.238 15.5589 103.097 15.9194C102.956 16.2643 102.736 16.6328 102.438 17.0247C102.14 17.4166 101.748 17.785 101.262 18.1299C100.792 18.4591 100.22 18.7256 99.5458 18.9295C98.8716 19.1333 98.0878 19.2352 97.1942 19.2352ZM111.229 19.2352C109.913 19.2352 108.799 19.0235 107.89 18.6002C106.997 18.1769 106.307 17.5734 105.821 16.7895C105.35 15.99 105.084 15.0415 105.021 13.9441C105.006 13.6306 104.998 13.2778 104.998 12.8859C104.998 12.4783 105.006 12.1256 105.021 11.8277C105.084 10.7146 105.366 9.76616 105.868 8.9823C106.369 8.19844 107.067 7.59487 107.961 7.17159C108.87 6.74831 109.96 6.53667 111.229 6.53667C112.515 6.53667 113.604 6.74831 114.498 7.17159C115.407 7.59487 116.113 8.19844 116.615 8.9823C117.116 9.76616 117.398 10.7146 117.461 11.8277C117.477 12.1256 117.485 12.4783 117.485 12.8859C117.485 13.2778 117.477 13.6306 117.461 13.9441C117.398 15.0415 117.124 15.99 116.638 16.7895C116.168 17.5734 115.478 18.1769 114.569 18.6002C113.675 19.0235 112.562 19.2352 111.229 19.2352ZM111.229 16.3662C111.935 16.3662 112.444 16.1546 112.758 15.7313C113.087 15.308 113.275 14.6731 113.322 13.8265C113.338 13.5914 113.346 13.2778 113.346 12.8859C113.346 12.494 113.338 12.1804 113.322 11.9453C113.275 11.1144 113.087 10.4873 112.758 10.064C112.444 9.62506 111.935 9.40558 111.229 9.40558C110.54 9.40558 110.03 9.62506 109.701 10.064C109.372 10.4873 109.191 11.1144 109.16 11.9453C109.144 12.1804 109.137 12.494 109.137 12.8859C109.137 13.2778 109.144 13.5914 109.16 13.8265C109.191 14.6731 109.372 15.308 109.701 15.7313C110.03 16.1546 110.54 16.3662 111.229 16.3662ZM120.385 19C120.213 19 120.072 18.9451 119.962 18.8354C119.852 18.7256 119.797 18.5846 119.797 18.4121V7.35972C119.797 7.18727 119.852 7.04617 119.962 6.93643C120.072 6.82669 120.213 6.77182 120.385 6.77182H123.09C123.262 6.77182 123.403 6.82669 123.513 6.93643C123.623 7.04617 123.677 7.18727 123.677 7.35972V8.25331C124.085 7.76732 124.618 7.35972 125.277 7.0305C125.935 6.70128 126.711 6.53667 127.605 6.53667C128.514 6.53667 129.313 6.74047 130.003 7.14808C130.709 7.55568 131.257 8.15925 131.649 8.95879C132.057 9.74264 132.261 10.7068 132.261 11.8512V18.4121C132.261 18.5846 132.198 18.7256 132.073 18.8354C131.963 18.9451 131.83 19 131.673 19H128.71C128.553 19 128.412 18.9451 128.287 18.8354C128.177 18.7256 128.122 18.5846 128.122 18.4121V11.9923C128.122 11.2555 127.942 10.6911 127.581 10.2992C127.236 9.89158 126.719 9.68777 126.029 9.68777C125.386 9.68777 124.869 9.89158 124.477 10.2992C124.101 10.6911 123.913 11.2555 123.913 11.9923V18.4121C123.913 18.5846 123.85 18.7256 123.725 18.8354C123.615 18.9451 123.482 19 123.325 19H120.385ZM140.67 19.2352C139.353 19.2352 138.24 19.0235 137.331 18.6002C136.437 18.1769 135.747 17.5734 135.261 16.7895C134.791 15.99 134.525 15.0415 134.462 13.9441C134.446 13.6306 134.438 13.2778 134.438 12.8859C134.438 12.4783 134.446 12.1256 134.462 11.8277C134.525 10.7146 134.807 9.76616 135.308 8.9823C135.81 8.19844 136.508 7.59487 137.401 7.17159C138.311 6.74831 139.4 6.53667 140.67 6.53667C141.956 6.53667 143.045 6.74831 143.939 7.17159C144.848 7.59487 145.553 8.19844 146.055 8.9823C146.557 9.76616 146.839 10.7146 146.902 11.8277C146.917 12.1256 146.925 12.4783 146.925 12.8859C146.925 13.2778 146.917 13.6306 146.902 13.9441C146.839 15.0415 146.565 15.99 146.079 16.7895C145.608 17.5734 144.918 18.1769 144.009 18.6002C143.116 19.0235 142.003 19.2352 140.67 19.2352ZM140.67 16.3662C141.375 16.3662 141.885 16.1546 142.199 15.7313C142.528 15.308 142.716 14.6731 142.763 13.8265C142.779 13.5914 142.786 13.2778 142.786 12.8859C142.786 12.494 142.779 12.1804 142.763 11.9453C142.716 11.1144 142.528 10.4873 142.199 10.064C141.885 9.62506 141.375 9.40558 140.67 9.40558C139.98 9.40558 139.471 9.62506 139.141 10.064C138.812 10.4873 138.632 11.1144 138.601 11.9453C138.585 12.1804 138.577 12.494 138.577 12.8859C138.577 13.2778 138.585 13.5914 138.601 13.8265C138.632 14.6731 138.812 15.308 139.141 15.7313C139.471 16.1546 139.98 16.3662 140.67 16.3662ZM149.826 19C149.653 19 149.512 18.9451 149.403 18.8354C149.293 18.7256 149.238 18.5846 149.238 18.4121V7.35972C149.238 7.18727 149.293 7.04617 149.403 6.93643C149.512 6.82669 149.653 6.77182 149.826 6.77182H152.389C152.562 6.77182 152.703 6.82669 152.812 6.93643C152.922 7.04617 152.977 7.18727 152.977 7.35972V8.15925C153.291 7.73597 153.729 7.36756 154.294 7.05401C154.858 6.72479 155.525 6.55234 156.293 6.53667C158.096 6.50531 159.334 7.18727 160.008 8.58253C160.369 7.9868 160.886 7.50081 161.56 7.12456C162.234 6.73263 162.971 6.53667 163.771 6.53667C164.586 6.53667 165.315 6.72479 165.958 7.10104C166.616 7.46162 167.141 8.026 167.533 8.79418C167.925 9.54668 168.121 10.5265 168.121 11.7336V18.4121C168.121 18.5846 168.058 18.7256 167.933 18.8354C167.823 18.9451 167.69 19 167.533 19H164.805C164.633 19 164.484 18.9451 164.359 18.8354C164.249 18.7256 164.194 18.5846 164.194 18.4121V11.8983C164.194 11.3496 164.116 10.9184 163.959 10.6049C163.802 10.2757 163.59 10.0405 163.324 9.89941C163.057 9.75832 162.752 9.68777 162.407 9.68777C162.125 9.68777 161.842 9.75832 161.56 9.89941C161.294 10.0405 161.074 10.2757 160.902 10.6049C160.745 10.9184 160.667 11.3496 160.667 11.8983V18.4121C160.667 18.5846 160.612 18.7256 160.502 18.8354C160.392 18.9451 160.251 19 160.079 19H157.351C157.178 19 157.037 18.9451 156.928 18.8354C156.818 18.7256 156.763 18.5846 156.763 18.4121V11.8983C156.763 11.3496 156.677 10.9184 156.504 10.6049C156.332 10.2757 156.112 10.0405 155.846 9.89941C155.579 9.75832 155.282 9.68777 154.952 9.68777C154.67 9.68777 154.388 9.75832 154.106 9.89941C153.839 10.0405 153.62 10.2757 153.447 10.6049C153.291 10.9184 153.212 11.3417 153.212 11.8747V18.4121C153.212 18.5846 153.149 18.7256 153.024 18.8354C152.914 18.9451 152.773 19 152.601 19H149.826ZM171.344 19C171.171 19 171.03 18.9451 170.92 18.8354C170.811 18.7256 170.756 18.5846 170.756 18.4121V7.35972C170.756 7.18727 170.811 7.04617 170.92 6.93643C171.03 6.82669 171.171 6.77182 171.344 6.77182H174.119C174.275 6.77182 174.409 6.82669 174.518 6.93643C174.644 7.04617 174.706 7.18727 174.706 7.35972V18.4121C174.706 18.5846 174.644 18.7256 174.518 18.8354C174.409 18.9451 174.275 19 174.119 19H171.344ZM171.367 5.00814C171.116 5.00814 170.991 4.88273 170.991 4.63189C170.991 4.50648 171.03 4.40457 171.109 4.32619L173.178 1.81001C173.335 1.62188 173.468 1.5043 173.578 1.45727C173.687 1.39456 173.844 1.36321 174.048 1.36321H177.129C177.426 1.36321 177.575 1.51998 177.575 1.83352C177.575 1.94326 177.536 2.03732 177.458 2.11571L174.354 4.67892C174.228 4.78866 174.103 4.87489 173.977 4.9376C173.852 4.98463 173.68 5.00814 173.46 5.00814H171.367ZM181.13 19.2352C180.283 19.2352 179.523 19.0784 178.849 18.7648C178.19 18.4356 177.665 17.9967 177.273 17.448C176.881 16.8993 176.685 16.28 176.685 15.5902C176.685 14.4771 177.14 13.5992 178.049 12.9565C178.959 12.298 180.166 11.8512 181.671 11.6161L184.61 11.1693V10.84C184.61 10.2757 184.493 9.84455 184.257 9.54668C184.022 9.24881 183.591 9.09988 182.964 9.09988C182.525 9.09988 182.165 9.1861 181.882 9.35855C181.616 9.531 181.404 9.76616 181.247 10.064C181.106 10.2678 180.91 10.3697 180.66 10.3697H178.026C177.853 10.3697 177.72 10.3227 177.626 10.2286C177.532 10.1189 177.493 9.99348 177.508 9.85238C177.508 9.5702 177.61 9.24881 177.814 8.88824C178.034 8.51199 178.363 8.14357 178.802 7.783C179.241 7.42243 179.805 7.12456 180.495 6.8894C181.185 6.65424 182.016 6.53667 182.988 6.53667C184.007 6.53667 184.877 6.65424 185.598 6.8894C186.319 7.12456 186.899 7.45378 187.338 7.87706C187.793 8.30035 188.13 8.80201 188.349 9.38207C188.569 9.94645 188.678 10.5735 188.678 11.2633V18.4121C188.678 18.5846 188.616 18.7256 188.49 18.8354C188.381 18.9451 188.247 19 188.091 19H185.363C185.19 19 185.049 18.9451 184.939 18.8354C184.83 18.7256 184.775 18.5846 184.775 18.4121V17.5891C184.571 17.8869 184.297 18.1613 183.952 18.4121C183.607 18.6629 183.199 18.8589 182.729 19C182.274 19.1568 181.741 19.2352 181.13 19.2352ZM182.235 16.5544C182.69 16.5544 183.097 16.4603 183.458 16.2722C183.834 16.0684 184.124 15.7627 184.328 15.3551C184.548 14.9318 184.657 14.4066 184.657 13.7795V13.4503L182.658 13.803C181.922 13.9284 181.381 14.1244 181.036 14.3909C180.707 14.6418 180.542 14.9396 180.542 15.2845C180.542 15.551 180.62 15.7783 180.777 15.9665C180.934 16.1546 181.138 16.3035 181.389 16.4133C181.639 16.5073 181.922 16.5544 182.235 16.5544ZM83.6317 41.2352C82.1424 41.2352 80.8647 40.9922 79.7986 40.5062C78.7483 40.0202 77.9252 39.3069 77.3295 38.3662C76.7494 37.4256 76.428 36.2577 76.3653 34.8624C76.3496 34.2196 76.3418 33.5298 76.3418 32.793C76.3418 32.0562 76.3496 31.3507 76.3653 30.6766C76.428 29.3127 76.7573 28.1604 77.353 27.2198C77.9487 26.2635 78.7796 25.5423 79.8457 25.0563C80.9117 24.5547 82.1737 24.3038 83.6317 24.3038C84.6664 24.3038 85.6227 24.4371 86.5006 24.7036C87.3785 24.9544 88.1467 25.3307 88.8051 25.8324C89.4636 26.3184 89.9731 26.9141 90.3337 27.6196C90.7099 28.3093 90.9059 29.0932 90.9216 29.9711C90.9372 30.1122 90.8902 30.2298 90.7805 30.3239C90.6864 30.4179 90.5688 30.465 90.4277 30.465H87.2531C87.0493 30.465 86.8925 30.4258 86.7828 30.3474C86.6731 30.2533 86.579 30.0887 86.5006 29.8535C86.2811 29.0227 85.9205 28.4583 85.4189 28.1604C84.9329 27.8469 84.3293 27.6901 83.6082 27.6901C82.7459 27.6901 82.064 27.9331 81.5623 28.4191C81.0606 28.8894 80.7863 29.6811 80.7393 30.7942C80.6922 32.0797 80.6922 33.3966 80.7393 34.7448C80.7863 35.8579 81.0606 36.6574 81.5623 37.1434C82.064 37.6137 82.7459 37.8489 83.6082 37.8489C84.3293 37.8489 84.9407 37.6921 85.4424 37.3786C85.9441 37.065 86.2968 36.5007 86.5006 35.6854C86.5633 35.4503 86.6495 35.2935 86.7593 35.2151C86.8847 35.1211 87.0493 35.074 87.2531 35.074H90.4277C90.5688 35.074 90.6864 35.1211 90.7805 35.2151C90.8902 35.3092 90.9372 35.4268 90.9216 35.5679C90.9059 36.4458 90.7099 37.2375 90.3337 37.943C89.9731 38.6328 89.4636 39.2285 88.8051 39.7302C88.1467 40.2161 87.3785 40.5924 86.5006 40.8589C85.6227 41.1097 84.6664 41.2352 83.6317 41.2352ZM93.7234 41C93.551 41 93.4099 40.9451 93.3001 40.8354C93.1904 40.7256 93.1355 40.5846 93.1355 40.4121V29.3597C93.1355 29.1873 93.1904 29.0462 93.3001 28.9364C93.4099 28.8267 93.551 28.7718 93.7234 28.7718H96.4983C96.655 28.7718 96.7883 28.8267 96.898 28.9364C97.0235 29.0462 97.0862 29.1873 97.0862 29.3597V40.4121C97.0862 40.5846 97.0235 40.7256 96.898 40.8354C96.7883 40.9451 96.655 41 96.4983 41H93.7234ZM93.6999 27.0081C93.5275 27.0081 93.3864 26.9533 93.2766 26.8435C93.1669 26.7338 93.112 26.5927 93.112 26.4203V24.3274C93.112 24.1549 93.1669 24.0138 93.2766 23.9041C93.3864 23.7787 93.5275 23.7159 93.6999 23.7159H96.4983C96.6707 23.7159 96.8118 23.7787 96.9216 23.9041C97.047 24.0138 97.1097 24.1549 97.1097 24.3274V26.4203C97.1097 26.5927 97.047 26.7338 96.9216 26.8435C96.8118 26.9533 96.6707 27.0081 96.4983 27.0081H93.6999ZM101.164 41C100.991 41 100.85 40.9451 100.741 40.8354C100.631 40.7256 100.576 40.5846 100.576 40.4121V29.3597C100.576 29.2029 100.631 29.0697 100.741 28.9599C100.85 28.8345 100.991 28.7718 101.164 28.7718H103.868C104.041 28.7718 104.182 28.8345 104.292 28.9599C104.401 29.0697 104.456 29.2029 104.456 29.3597V30.3003C104.879 29.8144 105.381 29.4381 105.961 29.1716C106.557 28.9051 107.223 28.7718 107.96 28.7718H108.995C109.151 28.7718 109.285 28.8267 109.394 28.9364C109.52 29.0462 109.583 29.1873 109.583 29.3597V31.7818C109.583 31.9386 109.52 32.0797 109.394 32.2051C109.285 32.3149 109.151 32.3697 108.995 32.3697H106.714C106.071 32.3697 105.569 32.55 105.209 32.9106C104.864 33.2555 104.691 33.7493 104.691 34.3921V40.4121C104.691 40.5846 104.629 40.7256 104.503 40.8354C104.393 40.9451 104.252 41 104.08 41H101.164ZM116.783 41.2352C115.623 41.2352 114.596 41.0235 113.702 40.6002C112.809 40.1769 112.096 39.5655 111.562 38.766C111.045 37.9508 110.763 36.9788 110.716 35.8501C110.7 35.5992 110.692 35.2857 110.692 34.9094C110.692 34.5175 110.7 34.1961 110.716 33.9453C110.763 32.8009 111.045 31.8289 111.562 31.0293C112.08 30.2141 112.785 29.5949 113.679 29.1716C114.588 28.7483 115.623 28.5367 116.783 28.5367C117.865 28.5367 118.79 28.6934 119.558 29.007C120.326 29.3048 120.953 29.6811 121.439 30.1357C121.925 30.5904 122.286 31.0607 122.521 31.5467C122.772 32.017 122.905 32.4324 122.921 32.793C122.936 32.9498 122.881 33.0909 122.756 33.2163C122.631 33.326 122.489 33.3809 122.333 33.3809H119.346C119.174 33.3809 119.04 33.3417 118.946 33.2633C118.852 33.1849 118.766 33.0674 118.688 32.9106C118.5 32.4246 118.257 32.0797 117.959 31.8759C117.677 31.6721 117.308 31.5702 116.854 31.5702C116.226 31.5702 115.74 31.774 115.396 32.1816C115.066 32.5892 114.886 33.2163 114.855 34.0629C114.839 34.6899 114.839 35.2465 114.855 35.7325C114.886 36.5947 115.066 37.2218 115.396 37.6137C115.74 38.0057 116.226 38.2016 116.854 38.2016C117.34 38.2016 117.724 38.0997 118.006 37.8959C118.288 37.6921 118.515 37.3472 118.688 36.8612C118.766 36.7045 118.852 36.5869 118.946 36.5085C119.04 36.4301 119.174 36.3909 119.346 36.3909H122.333C122.489 36.3909 122.631 36.4536 122.756 36.579C122.881 36.6888 122.936 36.822 122.921 36.9788C122.905 37.2453 122.827 37.5589 122.685 37.9194C122.544 38.2643 122.325 38.6328 122.027 39.0247C121.729 39.4166 121.337 39.785 120.851 40.1299C120.381 40.4591 119.809 40.7256 119.135 40.9295C118.46 41.1333 117.677 41.2352 116.783 41.2352ZM129.525 41.2352C128.631 41.2352 127.832 41.0314 127.126 40.6237C126.436 40.2161 125.896 39.6204 125.504 38.8366C125.112 38.037 124.916 37.065 124.916 35.9206V29.3597C124.916 29.1873 124.971 29.0462 125.08 28.9364C125.19 28.8267 125.331 28.7718 125.504 28.7718H128.443C128.616 28.7718 128.757 28.8267 128.866 28.9364C128.976 29.0462 129.031 29.1873 129.031 29.3597V35.7795C129.031 37.3159 129.721 38.0841 131.1 38.0841C131.743 38.0841 132.253 37.8881 132.629 37.4962C133.021 37.0886 133.217 36.5163 133.217 35.7795V29.3597C133.217 29.1873 133.272 29.0462 133.381 28.9364C133.491 28.8267 133.632 28.7718 133.805 28.7718H136.744C136.917 28.7718 137.058 28.8267 137.167 28.9364C137.277 29.0462 137.332 29.1873 137.332 29.3597V40.4121C137.332 40.5846 137.277 40.7256 137.167 40.8354C137.058 40.9451 136.917 41 136.744 41H134.016C133.86 41 133.718 40.9451 133.593 40.8354C133.483 40.7256 133.428 40.5846 133.428 40.4121V39.5185C133.021 40.0829 132.488 40.514 131.829 40.8119C131.187 41.0941 130.418 41.2352 129.525 41.2352ZM140.686 41C140.514 41 140.372 40.9451 140.263 40.8354C140.153 40.7256 140.098 40.5846 140.098 40.4121V24.8917C140.098 24.7193 140.153 24.5782 140.263 24.4684C140.372 24.3587 140.514 24.3038 140.686 24.3038H143.461C143.633 24.3038 143.774 24.3587 143.884 24.4684C143.994 24.5782 144.049 24.7193 144.049 24.8917V40.4121C144.049 40.5846 143.994 40.7256 143.884 40.8354C143.774 40.9451 143.633 41 143.461 41H140.686ZM150.495 41.2352C149.649 41.2352 148.888 41.0784 148.214 40.7648C147.556 40.4356 147.031 39.9967 146.639 39.448C146.247 38.8993 146.051 38.28 146.051 37.5902C146.051 36.4771 146.505 35.5992 147.415 34.9565C148.324 34.298 149.531 33.8512 151.036 33.6161L153.975 33.1693V32.84C153.975 32.2757 153.858 31.8445 153.623 31.5467C153.388 31.2488 152.956 31.0999 152.329 31.0999C151.89 31.0999 151.53 31.1861 151.248 31.3586C150.981 31.531 150.77 31.7662 150.613 32.064C150.472 32.2678 150.276 32.3697 150.025 32.3697H147.391C147.219 32.3697 147.085 32.3227 146.991 32.2286C146.897 32.1189 146.858 31.9935 146.874 31.8524C146.874 31.5702 146.976 31.2488 147.179 30.8882C147.399 30.512 147.728 30.1436 148.167 29.783C148.606 29.4224 149.17 29.1246 149.86 28.8894C150.55 28.6542 151.381 28.5367 152.353 28.5367C153.372 28.5367 154.242 28.6542 154.963 28.8894C155.684 29.1246 156.264 29.4538 156.703 29.8771C157.158 30.3003 157.495 30.802 157.714 31.3821C157.934 31.9464 158.044 32.5735 158.044 33.2633V40.4121C158.044 40.5846 157.981 40.7256 157.856 40.8354C157.746 40.9451 157.613 41 157.456 41H154.728C154.556 41 154.414 40.9451 154.305 40.8354C154.195 40.7256 154.14 40.5846 154.14 40.4121V39.5891C153.936 39.8869 153.662 40.1613 153.317 40.4121C152.972 40.6629 152.565 40.8589 152.094 41C151.64 41.1568 151.107 41.2352 150.495 41.2352ZM151.6 38.5544C152.055 38.5544 152.463 38.4603 152.823 38.2722C153.199 38.0684 153.489 37.7627 153.693 37.3551C153.913 36.9318 154.023 36.4066 154.023 35.7795V35.4503L152.024 35.803C151.287 35.9284 150.746 36.1244 150.401 36.3909C150.072 36.6418 149.907 36.9396 149.907 37.2845C149.907 37.551 149.986 37.7783 150.142 37.9665C150.299 38.1546 150.503 38.3035 150.754 38.4133C151.005 38.5073 151.287 38.5544 151.6 38.5544ZM161.285 41C161.113 41 160.972 40.9451 160.862 40.8354C160.752 40.7256 160.697 40.5846 160.697 40.4121V29.3597C160.697 29.2029 160.752 29.0697 160.862 28.9599C160.972 28.8345 161.113 28.7718 161.285 28.7718H163.99C164.162 28.7718 164.303 28.8345 164.413 28.9599C164.523 29.0697 164.577 29.2029 164.577 29.3597V30.3003C165.001 29.8144 165.502 29.4381 166.082 29.1716C166.678 28.9051 167.344 28.7718 168.081 28.7718H169.116C169.273 28.7718 169.406 28.8267 169.516 28.9364C169.641 29.0462 169.704 29.1873 169.704 29.3597V31.7818C169.704 31.9386 169.641 32.0797 169.516 32.2051C169.406 32.3149 169.273 32.3697 169.116 32.3697H166.835C166.192 32.3697 165.69 32.55 165.33 32.9106C164.985 33.2555 164.813 33.7493 164.813 34.3921V40.4121C164.813 40.5846 164.75 40.7256 164.624 40.8354C164.515 40.9451 164.374 41 164.201 41H161.285Z" fill="#756EF2"/>
</svg>
