<svg width="13" height="13" viewBox="0 0 13 13" fill="none" xmlns="http://www.w3.org/2000/svg">
<path d="M6.44286 12.1333C5.93577 12.1333 5.48989 12.0139 5.1052 11.7751C4.72052 11.5203 4.41452 11.1461 4.1872 10.6525L0.22669 2.34068C0.0343469 1.92668 -0.0355959 1.54453 0.0168612 1.19423C0.0693183 0.827996 0.252918 0.541382 0.567661 0.334383C0.89989 0.111461 1.35452 0 1.93155 0C2.40366 0 2.78835 0.103499 3.0856 0.310498C3.38286 0.501574 3.64515 0.875765 3.87246 1.43307L6.96743 8.59842H6.12812L9.35423 1.40919C9.59903 0.867803 9.87006 0.501574 10.1673 0.310498C10.4646 0.103499 10.8755 0 11.4001 0C11.8547 0 12.2131 0.111461 12.4754 0.334383C12.7552 0.541382 12.9213 0.820035 12.9738 1.17034C13.0437 1.52065 12.9738 1.9028 12.7639 2.3168L8.72474 10.6525C8.49743 11.162 8.19143 11.5362 7.80674 11.7751C7.43954 12.0139 6.98492 12.1333 6.44286 12.1333Z" fill="#756EF2"/>
</svg>
