<svg width="94" height="93" viewBox="0 0 94 93" fill="none" xmlns="http://www.w3.org/2000/svg">
<circle cx="47" cy="46.5" r="46.5" fill="#756EF2"/>
<path fill-rule="evenodd" clip-rule="evenodd" d="M34.75 25C33.6228 25 32.5418 25.4478 31.7448 26.2448C30.9478 27.0418 30.5 28.1228 30.5 29.25V63.25C30.5 64.3772 30.9478 65.4582 31.7448 66.2552C32.5418 67.0522 33.6228 67.5 34.75 67.5H60.25C61.3772 67.5 62.4582 67.0522 63.2552 66.2552C64.0522 65.4582 64.5 64.3772 64.5 63.25V34.3798C64.4998 33.2527 64.0518 32.1718 63.2547 31.375L58.125 26.2452C57.3282 25.4482 56.2473 25.0002 55.1203 25H34.75ZM34.75 29.25H55.1203L60.25 34.3798V63.25H34.75V29.25ZM56.5058 43.6851C56.7087 43.4891 56.8706 43.2546 56.982 42.9954C57.0933 42.7361 57.152 42.4573 57.1544 42.1751C57.1569 41.8929 57.1031 41.6131 56.9962 41.352C56.8894 41.0908 56.7316 40.8536 56.5321 40.654C56.3326 40.4545 56.0953 40.2967 55.8342 40.1899C55.573 40.083 55.2932 40.0293 55.011 40.0317C54.7289 40.0342 54.45 40.0928 54.1908 40.2042C53.9315 40.3155 53.697 40.4774 53.501 40.6804L44.4867 49.6946L41.4799 46.6899C41.0791 46.3028 40.5423 46.0886 39.9851 46.0934C39.428 46.0983 38.895 46.3218 38.501 46.7158C38.107 47.1098 37.8835 47.6427 37.8787 48.1999C37.8739 48.7571 38.088 49.2938 38.4751 49.6946L42.8314 54.053C43.0484 54.2702 43.3062 54.4425 43.5898 54.56C43.8735 54.6775 44.1776 54.738 44.4846 54.738C44.7917 54.738 45.0957 54.6775 45.3794 54.56C45.6631 54.4425 45.9208 54.2702 46.1379 54.053L56.5058 43.6851Z" fill="white"/>
</svg>
