<svg width="10" height="10" viewBox="0 0 10 10" fill="none" xmlns="http://www.w3.org/2000/svg">
<path d="M4.95605 10C4.56598 10 4.22299 9.90158 3.92708 9.70472C3.63117 9.49475 3.39578 9.18635 3.22093 8.77953L0.174377 1.92913C0.0264207 1.58793 -0.0273815 1.27297 0.0129702 0.984252C0.0533218 0.682414 0.194553 0.446194 0.436662 0.275591C0.692223 0.0918635 1.04194 0 1.4858 0C1.84897 0 2.14488 0.0853017 2.37354 0.255905C2.6022 0.413385 2.80396 0.721784 2.97882 1.1811L5.35956 7.08661H4.71394L7.19556 1.16142C7.38387 0.715223 7.59235 0.413385 7.82101 0.255905C8.04967 0.0853017 8.36576 0 8.76927 0C9.11899 0 9.39473 0.0918635 9.59648 0.275591C9.81169 0.446194 9.93947 0.675853 9.97982 0.964567C10.0336 1.25328 9.97982 1.56824 9.81842 1.90945L6.71134 8.77953C6.53648 9.19948 6.3011 9.50787 6.00519 9.70472C5.72273 9.90158 5.37301 10 4.95605 10Z" fill="#BCBCBC"/>
</svg>
