<svg width="9" height="10" viewBox="0 0 9 10" fill="none" xmlns="http://www.w3.org/2000/svg">
<path d="M1.04586 9.43818C0.772355 9.43818 0.542366 9.36359 0.355888 9.21441C0.181843 9.0528 0.0886037 8.84767 0.0761719 8.59904C0.0761719 8.3504 0.181843 8.08933 0.393184 7.81583L3.41412 4.08627V5.18649L0.579662 1.69936C0.355888 1.42586 0.250218 1.16479 0.26265 0.916153C0.275081 0.667516 0.36832 0.468606 0.542366 0.319424C0.728844 0.15781 0.958833 0.0770035 1.23233 0.0770035C1.51827 0.0770035 1.75447 0.126731 1.94095 0.226185C2.13986 0.32564 2.32012 0.481038 2.48173 0.69238L4.71947 3.56414H3.89897L6.15535 0.69238C6.32939 0.481038 6.50965 0.32564 6.69613 0.226185C6.88261 0.126731 7.1126 0.0770035 7.3861 0.0770035C7.67203 0.0770035 7.90202 0.15781 8.07607 0.319424C8.25011 0.481038 8.33714 0.686164 8.33714 0.934801C8.34957 1.18344 8.2439 1.44451 8.02012 1.71801L5.20431 5.16785V4.12357L8.22525 7.81583C8.44902 8.0769 8.55469 8.33175 8.54226 8.58039C8.52983 8.82902 8.43037 9.03415 8.2439 9.19576C8.06985 9.35738 7.83986 9.43818 7.55393 9.43818C7.28043 9.43818 7.05044 9.38846 6.86396 9.289C6.67748 9.18955 6.49722 9.03415 6.32318 8.82281L3.89897 5.76457H4.68217L2.27661 8.82281C2.115 9.02172 1.94095 9.17712 1.75447 9.289C1.56799 9.38846 1.33179 9.43818 1.04586 9.43818Z" fill="white"/>
</svg>
